<svg width="24" height="25" viewBox="0 0 24 25" fill="none" xmlns="http://www.w3.org/2000/svg">
<path d="M14.4301 19.1797C14.2401 19.1797 14.0501 19.1097 13.9001 18.9597C13.6101 18.6697 13.6101 18.1897 13.9001 17.8997L19.4401 12.3597L13.9001 6.81974C13.6101 6.52974 13.6101 6.04974 13.9001 5.75974C14.1901 5.46974 14.6701 5.46974 14.9601 5.75974L21.0301 11.8297C21.3201 12.1197 21.3201 12.5997 21.0301 12.8897L14.9601 18.9597C14.8101 19.1097 14.6201 19.1797 14.4301 19.1797Z" fill="#60A5FA"/>
<path d="M20.33 13.1096H3.5C3.09 13.1096 2.75 12.7696 2.75 12.3596C2.75 11.9496 3.09 11.6096 3.5 11.6096H20.33C20.74 11.6096 21.08 11.9496 21.08 12.3596C21.08 12.7696 20.74 13.1096 20.33 13.1096Z" fill="#60A5FA"/>
</svg>
