<svg width="524" height="44" viewBox="0 0 524 44" fill="none" xmlns="http://www.w3.org/2000/svg">
<rect x="0.5" y="0.5" width="523" height="43" rx="15.5" fill="white"/>
<path d="M502.656 8.73035L504.568 10.6416" stroke="#FFA88E" stroke-width="0.819109" stroke-linecap="round"/>
<path d="M501 13.4661L503.69 13.2022" stroke="#FFA88E" stroke-width="0.819109" stroke-linecap="round"/>
<path d="M512.445 13.4661L509.755 13.2022" stroke="#FFA88E" stroke-width="0.819109" stroke-linecap="round"/>
<path d="M511.119 8.73035L509.208 10.6416" stroke="#FFA88E" stroke-width="0.819109" stroke-linecap="round"/>
<path d="M504.178 18.0299L505.229 15.5399" stroke="#FFA88E" stroke-width="0.819109" stroke-linecap="round"/>
<path d="M508.289 15.54L509.34 18.0301" stroke="#FFA88E" stroke-width="0.819109" stroke-linecap="round"/>
<path d="M506.904 8.70264L506.873 5.9999" stroke="#FFA88E" stroke-width="0.819109" stroke-linecap="round"/>
<rect x="376" y="9.04395" width="3.70041" height="3.70041" rx="0.616735" transform="rotate(-16.3879 376 9.04395)" fill="#A7D7ED"/>
<circle cx="488.5" cy="36.5" r="2" stroke="#FFB667"/>
<circle cx="187.5" cy="8.5" r="2.75" stroke="#FFAF85" stroke-width="1.5"/>
<rect x="315.242" y="33" width="6" height="6" rx="1" transform="rotate(45 315.242 33)" fill="#E4E3E2"/>
<path d="M258 8H266.5" stroke="#FFC1B2" stroke-width="2" stroke-linecap="round"/>
<path d="M10.377 9.26978L11.9657 10.8585" stroke="#FF9351" stroke-width="0.680891" stroke-linecap="round"/>
<path d="M9 13.2063L11.2361 12.987" stroke="#FF9351" stroke-width="0.680891" stroke-linecap="round"/>
<path d="M18.5137 13.2063L16.2776 12.987" stroke="#FF9351" stroke-width="0.680891" stroke-linecap="round"/>
<path d="M17.4121 9.26978L15.8234 10.8585" stroke="#FF9351" stroke-width="0.680891" stroke-linecap="round"/>
<path d="M11.6406 17L12.5146 14.9301" stroke="#FF9351" stroke-width="0.680891" stroke-linecap="round"/>
<path d="M15.0605 14.9303L15.9346 17.0002" stroke="#FF9351" stroke-width="0.680891" stroke-linecap="round"/>
<path d="M13.9062 9.24683L13.8802 7.00015" stroke="#FF9351" stroke-width="0.680891" stroke-linecap="round"/>
<rect x="0.5" y="0.5" width="523" height="43" rx="15.5" stroke="#CBD5E1"/>
</svg>
