<svg width="180" height="80" viewBox="0 0 180 80" fill="none" xmlns="http://www.w3.org/2000/svg">
<g clip-path="url(#clip0_905_3199)">
<path d="M28.3999 51.2683C29.0169 52.9089 29.8711 54.3116 30.9626 55.4764C32.0542 56.6414 33.3474 57.533 34.8422 58.1511C36.3371 58.7693 37.9625 59.0783 39.7185 59.0783C41.427 59.0783 43.0286 58.7573 44.5236 58.1153C46.0185 57.4733 47.3235 56.57 48.4387 55.4051C49.5539 54.2401 50.4201 52.8494 51.0371 51.2327C51.6541 49.616 51.9625 47.8092 51.9625 45.812V15H59.437V64.9268H52.0337V60.2907C50.3727 62.0499 48.415 63.4051 46.1608 64.3563C43.9064 65.3072 41.4744 65.7827 38.8643 65.7827C36.2066 65.7827 33.727 65.319 31.4252 64.3918C29.1237 63.4646 27.1303 62.1452 25.4457 60.4334C23.7611 58.7215 22.4322 56.6653 21.4594 54.2639C20.4864 51.8627 20 49.1881 20 46.2399V15H27.4745V45.812C27.4745 47.8092 27.7829 49.6278 28.3999 51.2683Z" fill="white"/>
<path d="M72.3206 15V33.1876C73.9815 31.5234 75.9037 30.204 78.0867 29.2292C80.2696 28.2543 82.6426 27.767 85.2052 27.767C87.8629 27.767 90.3541 28.2661 92.6796 29.2647C95.005 30.2632 97.0218 31.6184 98.7304 33.3303C100.439 35.0421 101.791 37.0628 102.788 39.3927C103.785 41.7228 104.283 44.1953 104.283 46.8106C104.283 49.4256 103.785 51.8863 102.788 54.1924C101.791 56.4986 100.439 58.5077 98.7304 60.2192C97.0218 61.9311 95.005 63.2863 92.6796 64.2848C90.3541 65.2833 87.8627 65.7825 85.2052 65.7825C82.6424 65.7825 80.2578 65.2952 78.0511 64.3203C75.8443 63.3456 73.9103 62.0261 72.2494 60.3619V64.9267H65.1309V15H72.3206ZM73.1392 51.7318C73.7798 53.2535 74.6697 54.5849 75.8087 55.7261C76.9477 56.8673 78.2765 57.7708 79.795 58.4365C81.3138 59.1022 82.951 59.435 84.7069 59.435C86.4155 59.435 88.0289 59.1022 89.5475 58.4365C91.0661 57.7708 92.3829 56.8674 93.4984 55.7261C94.6136 54.5851 95.5034 53.2535 96.1678 51.7318C96.8322 50.2103 97.1644 48.5699 97.1644 46.8106C97.1644 45.0512 96.8322 43.3988 96.1678 41.8535C95.5034 40.3081 94.6136 38.9649 93.4984 37.8237C92.383 36.6827 91.0662 35.791 89.5475 35.1491C88.0287 34.5073 86.4153 34.1861 84.7069 34.1861C82.9986 34.1861 81.385 34.5071 79.8664 35.1491C78.3478 35.7911 77.019 36.6827 75.8799 37.8237C74.7411 38.9649 73.8393 40.3081 73.1749 41.8535C72.5105 43.3988 72.1783 45.0512 72.1783 46.8106C72.1782 48.5699 72.4985 50.2103 73.1392 51.7318Z" fill="white"/>
<path d="M108.341 39.4645C109.29 37.1821 110.596 35.1732 112.257 33.4377C113.917 31.7021 115.887 30.3351 118.165 29.3366C120.443 28.338 122.911 27.8389 125.568 27.8389C128.179 27.8389 130.599 28.3144 132.829 29.2652C135.06 30.2163 136.982 31.5358 138.595 33.2238C140.209 34.9117 141.467 36.9089 142.368 39.215C143.27 41.5212 143.721 44.0294 143.721 46.7398V49.0935H114.179C114.416 50.5676 114.891 51.9346 115.602 53.1945C116.314 54.4545 117.204 55.5482 118.272 56.4754C119.34 57.4027 120.55 58.1279 121.902 58.6507C123.255 59.1738 124.69 59.4354 126.209 59.4354C130.528 59.4354 134.016 57.6522 136.674 54.086L141.87 57.9374C140.067 60.3625 137.836 62.2645 135.179 63.6434C132.521 65.0222 129.531 65.7117 126.209 65.7117C123.504 65.7117 120.977 65.2361 118.628 64.2852C116.279 63.3344 114.238 62.0028 112.506 60.291C110.774 58.5791 109.41 56.5702 108.413 54.2642C107.416 51.9581 106.918 49.4497 106.918 46.7395C106.918 44.1719 107.392 41.7469 108.341 39.4645ZM118.343 36.6471C116.326 38.3351 114.985 40.5818 114.321 43.3872H136.46C135.843 40.5818 134.526 38.3351 132.509 36.6471C130.492 34.9592 128.131 34.1152 125.426 34.1152C122.721 34.1152 120.36 34.9592 118.343 36.6471Z" fill="white"/>
<path d="M157.173 37.4665C155.654 39.1307 154.895 41.3893 154.895 44.2423V64.9265H147.705V28.5511H154.824V33.0446C155.725 31.5705 156.9 30.4055 158.347 29.5496C159.795 28.6936 161.515 28.2656 163.508 28.2656H166V34.9701H163.01C160.637 34.9703 158.691 35.8023 157.173 37.4665Z" fill="white"/>
</g>
<defs>
<clipPath id="clip0_905_3199">
<rect width="180" height="80" fill="white"/>
</clipPath>
</defs>
</svg>
