<svg width="200" height="80" viewBox="0 0 200 80" fill="none" xmlns="http://www.w3.org/2000/svg">
<path fill-rule="evenodd" clip-rule="evenodd" d="M123.358 64.9149C111.967 74.431 95.4548 79.5083 81.2384 79.5083C61.3048 79.5083 43.3594 71.1526 29.7831 57.2555C28.7164 56.1627 29.6721 54.6733 30.9521 55.5244C45.6037 65.1856 63.7197 70.9979 82.4331 70.9979C95.0537 70.9979 108.937 68.0386 121.703 61.8975C123.631 60.9691 125.244 63.3288 123.358 64.9149Z" fill="#FF9900"/>
<path fill-rule="evenodd" clip-rule="evenodd" d="M126.657 60.1346C125.222 58.1227 117.133 59.184 113.502 59.6547C112.396 59.8023 112.227 58.7502 113.223 57.9934C119.666 53.0374 130.237 54.4679 131.47 56.1292C132.703 57.7996 131.149 69.3821 125.095 74.9103C124.166 75.7594 123.28 75.3072 123.693 74.1812C125.053 70.4711 128.101 62.1558 126.657 60.1346Z" fill="#FF9900"/>
<path fill-rule="evenodd" clip-rule="evenodd" d="M113.784 24.1591V19.424C113.784 18.7073 114.334 18.2266 114.994 18.2266H136.415C137.102 18.2266 137.652 18.7164 137.652 19.424V23.4788C137.643 24.1591 137.066 25.0481 136.039 26.4541L124.939 42.1381C129.064 42.0384 133.418 42.6461 137.157 44.7325C138.001 45.2042 138.23 45.8936 138.294 46.5739V51.6266C138.294 52.316 137.524 53.1233 136.717 52.706C130.127 49.2862 121.373 48.9143 114.086 52.7423C113.344 53.1414 112.565 52.3432 112.565 51.6538V46.8551C112.565 46.0841 112.574 44.7688 113.353 43.5986L126.213 25.3474H115.021C114.334 25.3474 113.784 24.8667 113.784 24.1591Z" fill="white"/>
<path fill-rule="evenodd" clip-rule="evenodd" d="M40.8068 51.1148H34.8381C34.2673 51.0713 33.8139 50.6274 33.772 50.0617V18.3025C33.772 17.6672 34.2841 17.1624 34.9221 17.1624H40.4878C41.067 17.1885 41.5287 17.6498 41.5707 18.2242V22.3758H41.6798C43.1321 18.3634 45.8604 16.4922 49.5373 16.4922C53.273 16.4922 55.6067 18.3634 57.2857 22.3758C58.7296 18.3634 62.0119 16.4922 65.5293 16.4922C68.031 16.4922 70.7676 17.5627 72.4382 19.9649C74.327 22.6369 73.9409 26.5186 73.9409 29.9217L73.9325 49.9659C73.9325 50.6013 73.4204 51.1148 72.7824 51.1148H66.8221C66.2261 51.0713 65.7476 50.5752 65.7476 49.9659V33.1333C65.7476 31.793 65.8651 28.4508 65.5797 27.1801C65.1348 25.0478 63.8 24.4472 62.0707 24.4472C60.6268 24.4472 59.1157 25.4481 58.5029 27.0496C57.8901 28.651 57.9489 31.3317 57.9489 33.1333V49.9659C57.9489 50.6013 57.4368 51.1148 56.7988 51.1148H50.8385C50.2341 51.0713 49.764 50.5752 49.764 49.9659L49.7556 33.1333C49.7556 29.591 50.318 24.3776 46.0787 24.3776C41.789 24.3776 41.9569 29.4604 41.9569 33.1333V49.9659C41.9569 50.6013 41.4448 51.1148 40.8068 51.1148Z" fill="white"/>
<path fill-rule="evenodd" clip-rule="evenodd" d="M155.063 16.4922C165.054 16.4922 170.462 24.6166 170.462 34.947C170.462 44.9277 164.486 52.8459 155.063 52.8459C145.251 52.8459 139.909 44.7215 139.909 34.5973C139.909 24.4104 145.317 16.4922 155.063 16.4922M155.107 23.1728C150.145 23.1728 149.832 29.5755 149.832 33.566C149.832 37.5655 149.766 46.1024 155.051 46.1024C160.269 46.1024 160.515 39.2155 160.515 35.0187C160.515 32.2568 160.392 28.9568 159.511 26.3383C158.754 24.0606 157.248 23.1728 155.107 23.1728Z" fill="white"/>
<path fill-rule="evenodd" clip-rule="evenodd" d="M179.893 51.1148H173.267C172.602 51.0713 172.069 50.5752 172.069 49.9659L172.06 18.1981C172.116 17.6149 172.668 17.1624 173.342 17.1624H179.509C180.089 17.1885 180.567 17.554 180.698 18.0501V22.9067H180.819C182.682 18.5636 185.293 16.4922 189.888 16.4922C192.873 16.4922 195.784 17.4931 197.656 20.2347C199.397 22.7761 199.397 27.0496 199.397 30.1219V50.1139C199.322 50.6709 198.769 51.1148 198.114 51.1148H191.442C190.833 51.0713 190.328 50.6535 190.262 50.1139V32.8635C190.262 29.3908 190.693 24.3079 186.098 24.3079C184.479 24.3079 182.991 25.3176 182.251 26.8494C181.315 28.7903 181.194 30.7224 181.194 32.8635V49.9659C181.184 50.6013 180.604 51.1148 179.893 51.1148" fill="white"/>
<path fill-rule="evenodd" clip-rule="evenodd" d="M99.2456 36.8063C99.2456 39.2848 99.3086 41.3517 98.0498 43.5527C97.0339 45.3423 95.4155 46.4428 93.6263 46.4428C91.1717 46.4428 89.7331 44.5817 89.7331 41.8348C89.7331 36.4126 94.6153 35.4284 99.2456 35.4284V36.8063ZM105.71 52.3091C105.287 52.6849 104.676 52.7117 104.199 52.4612C102.077 50.7075 101.691 49.8932 100.531 48.2201C97.0242 51.7812 94.5337 52.8459 89.9932 52.8459C84.6076 52.8459 80.4268 49.5443 80.4268 42.9321C80.4268 37.7694 83.232 34.253 87.242 32.5351C90.7125 31.014 95.5587 30.7456 99.263 30.325V29.5019C99.263 27.9897 99.3799 26.2002 98.4808 24.8939C97.7075 23.7218 96.215 23.2386 94.8933 23.2386C92.4568 23.2386 90.2899 24.4823 89.7595 27.0592C89.6516 27.6318 89.229 28.1955 88.6446 28.2224L82.4497 27.5603C81.9283 27.4439 81.3438 27.0234 81.4967 26.2271C82.9173 18.747 89.7145 16.4922 95.7924 16.4922C98.9033 16.4922 102.967 17.3154 105.422 19.6596C108.533 22.5497 108.236 26.406 108.236 30.6024V40.5163C108.236 43.4958 109.477 44.8021 110.646 46.4127C111.05 46.9853 111.14 47.6743 110.619 48.1037C109.315 49.1864 106.995 51.1996 105.719 52.327L105.71 52.3091" fill="white"/>
<path fill-rule="evenodd" clip-rule="evenodd" d="M18.8333 36.7991C18.8333 39.2775 18.8962 41.3444 17.6378 43.5455C16.622 45.335 15.0131 46.4355 13.2153 46.4355C10.7614 46.4355 9.33221 44.5744 9.33221 41.8276C9.33221 36.4054 14.2131 35.4211 18.8333 35.4211V36.7991ZM25.2762 52.3091C24.8537 52.6849 24.2425 52.7117 23.7661 52.4612C21.6448 50.7075 21.2672 49.8932 20.0987 48.2201C16.5931 51.7812 14.1122 52.8459 9.56396 52.8459C4.18872 52.8459 0 49.5443 0 42.9321C0 37.7694 2.81346 34.253 6.81342 32.5351C10.2831 31.014 15.128 30.7456 18.8313 30.325V29.5019C18.8313 27.9897 18.9482 26.2002 18.0583 24.8939C17.2763 23.7218 15.7841 23.2386 14.4718 23.2386C12.0359 23.2386 9.86059 24.4823 9.33026 27.0592C9.22239 27.6318 8.79992 28.1955 8.22465 28.2224L2.02246 27.5603C1.50111 27.4439 0.925833 27.0234 1.06965 26.2271C2.49885 18.747 9.28531 16.4922 15.3617 16.4922C18.4718 16.4922 22.5346 17.3154 24.9885 19.6596C28.0986 22.5497 27.802 26.406 27.802 30.6024V40.5163C27.802 43.4958 29.0425 44.8021 30.211 46.4127C30.6245 46.9853 30.7143 47.6743 30.193 48.1037C28.8896 49.1864 26.5706 51.1996 25.2942 52.327L25.2762 52.309" fill="white"/>
</svg>
