<svg width="163" height="58" viewBox="0 0 163 58" fill="none" xmlns="http://www.w3.org/2000/svg">
<g clip-path="url(#clip0_905_3122)">
<mask id="mask0_905_3122" style="mask-type:luminance" maskUnits="userSpaceOnUse" x="0" y="0" width="163" height="58">
<path d="M162.846 0H0V57.7059H162.846V0Z" fill="white"/>
</mask>
<g mask="url(#mask0_905_3122)">
<path d="M8.02688 55.8659C5.29614 54.6616 3.28869 53.2189 2.00459 51.5378C0.639203 49.9357 0.000398797 48.5729 0.000398797 47.3705C-0.0181239 47.1275 0.0233123 46.8836 0.12108 46.6603C0.218848 46.437 0.369961 46.2411 0.561179 46.0899C0.7179 45.9305 0.905667 45.8054 1.11284 45.7218C1.32001 45.638 1.54219 45.5975 1.76564 45.603H8.34873C8.57141 45.6194 8.78764 45.6853 8.98163 45.7953C9.17568 45.9059 9.34259 46.0579 9.47031 46.2406C9.71412 46.484 10.3529 46.9663 11.3184 47.7646C12.2506 48.5944 13.3448 49.2228 14.5319 49.6096C15.7827 50.1024 17.1178 50.3472 18.4623 50.3303C20.6323 50.3303 22.3146 49.9311 23.68 49.0497C24.3105 48.7063 24.8326 48.1939 25.1875 47.5705C25.5424 46.9467 25.7161 46.237 25.6891 45.5202C25.7043 44.5645 25.393 43.6321 24.8064 42.8767C23.8456 42.0455 22.7258 41.4178 21.5149 41.0315C19.9106 40.4716 17.5017 39.9118 14.3711 39.1912C9.79216 38.2175 6.50061 36.7862 4.33549 34.7804C2.17038 32.7746 1.04394 30.2137 1.04394 26.9275C1.05782 24.7464 1.73833 22.6216 2.99448 20.8371C4.47304 18.8088 6.46351 17.208 8.76321 16.1974C11.255 14.9949 14.3028 14.435 17.8333 14.435C21.0465 14.3615 24.2419 14.9326 27.23 16.1146C29.8779 17.3171 31.887 18.6803 33.2475 20.282C34.6079 21.8838 35.2565 23.3297 35.2565 24.5322C35.2619 24.7553 35.2215 24.9771 35.1376 25.184C35.0537 25.3908 34.9282 25.5783 34.7689 25.7347C34.6069 25.9133 34.4088 26.0555 34.1877 26.152C33.9667 26.2485 33.7277 26.2971 33.4864 26.2946H27.4543C27.1927 26.2988 26.9335 26.2431 26.6968 26.1317C26.4601 26.0203 26.2522 25.8562 26.0889 25.652C25.4667 25.1862 24.8769 24.6787 24.3237 24.133C23.4861 23.4218 22.5373 22.8527 21.5149 22.4485C20.3334 22.0073 19.08 21.7894 17.8186 21.8059C15.8144 21.8059 14.2881 22.21 13.2446 23.0912C12.7386 23.4932 12.331 24.0051 12.053 24.5881C11.775 25.1711 11.6338 25.8097 11.6403 26.4553C11.5962 27.3286 11.8815 28.1867 12.44 28.8603C12.9276 29.503 13.9663 30.0628 15.4926 30.6227C17.7667 31.4045 20.1026 31.994 22.4755 32.3851C32.1112 34.2302 36.9291 38.4804 36.9291 44.9701C36.9291 48.7383 35.3199 51.8639 32.0527 54.1862C28.7856 56.5084 24.1091 57.7159 18.2478 57.7159C14.1272 57.7109 10.7577 57.0925 8.02688 55.8659Z" fill="white"/>
<path d="M43.9507 56.3477C43.7642 56.1742 43.6175 55.9627 43.5207 55.7275C43.4239 55.4923 43.3793 55.2388 43.3899 54.9845V1.91816C43.3771 1.64923 43.4204 1.3806 43.5169 1.12921C43.6135 0.877821 43.7611 0.649141 43.9507 0.457618C44.3295 0.131731 44.8161 -0.0418062 45.316 -0.0292299H52.06C52.3257 -0.0708237 52.5974 -0.0491586 52.8531 0.0339958C53.1089 0.11715 53.3412 0.259441 53.5315 0.449275C53.7214 0.639107 53.8641 0.871107 53.9473 1.12637C54.0306 1.38164 54.0521 1.65293 54.0105 1.91816V54.9845C54.0223 55.4836 53.8485 55.9691 53.5228 56.3477C53.3312 56.5368 53.102 56.6843 52.8504 56.7806C52.5984 56.877 52.3294 56.9204 52.06 56.9076H45.3356C45.0777 56.9213 44.82 56.8784 44.5807 56.7816C44.3413 56.6847 44.1262 56.5368 43.9507 56.3477Z" fill="white"/>
<path d="M61.9151 56.3476C61.7289 56.1741 61.5821 55.9627 61.4856 55.7275C61.3886 55.4923 61.3438 55.2388 61.3547 54.9844V18.5147C61.3419 18.2458 61.3849 17.9772 61.4815 17.7258C61.578 17.4744 61.7257 17.2457 61.9151 17.0542C62.2952 16.7299 62.781 16.5566 63.2805 16.5674H70.1077C70.3607 16.5667 70.6114 16.616 70.8456 16.7125C71.0793 16.8089 71.292 16.9505 71.4709 17.1292C71.6502 17.3079 71.792 17.5201 71.8885 17.7537C71.985 17.9873 72.0344 18.2377 72.034 18.4904V54.9602C72.0344 55.2128 71.985 55.463 71.8885 55.6969C71.792 55.9302 71.6502 56.1426 71.4709 56.3212C71.292 56.5002 71.0793 56.6418 70.8456 56.7381C70.6114 56.8345 70.3607 56.8838 70.1077 56.8833H63.2805C63.028 56.8961 62.7755 56.855 62.54 56.7628C62.3044 56.6705 62.0917 56.529 61.9151 56.3476Z" fill="white"/>
<path d="M84.2684 52.818C80.7334 49.5321 78.9046 45.0286 78.6461 39.2741L78.5684 36.0706L78.6461 32.8623C78.8899 27.0932 80.7334 22.6044 84.2684 19.3182C87.7211 16.032 92.456 14.4497 98.3176 14.4497C102.569 14.4497 106.12 15.1702 109.075 16.6941C111.961 18.213 114.131 19.9803 115.575 22.1419C116.94 24.3084 117.745 26.3921 117.823 28.393C117.867 28.6429 117.845 28.9001 117.76 29.1392C117.675 29.3782 117.528 29.5909 117.335 29.7562C117.143 29.9454 116.915 30.0929 116.662 30.1892C116.411 30.2856 116.142 30.3288 115.872 30.3161H108.753C108.291 30.3445 107.834 30.2025 107.47 29.9168C107.111 29.5543 106.836 29.1171 106.666 28.6364C105.861 26.6306 104.818 25.1068 103.535 24.2256C102.019 23.2886 100.261 22.8148 98.4781 22.8624C95.7477 22.8624 93.6604 23.7436 92.139 25.4281C90.6176 27.1126 89.7302 29.7562 89.652 33.281L89.5692 36.2507L89.652 38.8943C89.974 45.8657 92.9436 49.3129 98.4832 49.3129C100.269 49.3827 102.033 48.9073 103.54 47.9496C104.822 47.0687 105.866 45.6274 106.671 43.5437C106.831 43.0569 107.108 42.6161 107.475 42.2584C107.839 41.9728 108.296 41.8307 108.758 41.8592H115.897C116.166 41.8465 116.435 41.8897 116.687 41.986C116.939 42.0824 117.168 42.2299 117.36 42.4191C117.553 42.5844 117.699 42.7971 117.785 43.0361C117.87 43.2752 117.892 43.5323 117.847 43.7823C117.769 45.6274 116.965 47.6286 115.599 49.7947C114.234 51.9612 112.069 53.8793 109.177 55.4033C106.286 56.9273 102.677 57.7306 98.3418 57.7306C92.456 57.711 87.7211 56.119 84.2684 52.818Z" fill="white"/>
<path d="M128.805 52.5795C125.275 49.1328 123.441 44.3031 123.187 37.9741L123.104 35.9682C123.104 29.3179 124.87 24.0259 128.405 20.1798C131.857 16.3337 136.753 14.4106 142.932 14.4106C149.271 14.4106 154.255 16.3337 157.707 20.1798C161.16 24.0259 162.856 29.1767 162.856 35.5885V37.273C162.867 37.5264 162.822 37.7791 162.726 38.0136C162.629 38.2481 162.482 38.4589 162.296 38.6313C162.105 38.8228 161.877 38.9722 161.624 39.0695C161.372 39.1668 161.103 39.2099 160.833 39.1961H134.184V39.8338C134.182 42.4979 135.055 45.0889 136.671 47.2097C138.197 49.2155 140.284 50.1745 142.932 50.1745C144.382 50.2065 145.819 49.8882 147.12 49.2465C148.421 48.6049 149.547 47.6591 150.402 46.489C150.733 46.0739 151.109 45.6967 151.524 45.3644C151.969 45.2463 152.429 45.1922 152.889 45.2037H159.955C160.412 45.2139 160.857 45.3541 161.237 45.6078C161.402 45.7423 161.533 45.9141 161.617 46.1086C161.702 46.3036 161.739 46.5155 161.725 46.7274C161.725 48.013 161.004 49.532 159.477 51.2163C157.951 52.9786 155.703 54.5026 152.894 55.7878C149.78 57.1304 146.411 57.7862 143.019 57.7109C137.012 57.7109 132.257 56.0261 128.805 52.5795ZM151.763 32.2195C151.763 29.094 150.963 26.5331 149.437 24.6052C148.631 23.6829 147.628 22.9523 146.503 22.4671C145.377 21.9818 144.157 21.7543 142.932 21.801C140.206 21.801 138.055 22.7747 136.51 24.6052C134.988 26.5526 134.184 29.094 134.184 32.2195V32.3802H151.763V32.2195Z" fill="white"/>
<path d="M64.3247 7.99403C65.375 9.04547 66.6229 9.87921 67.997 10.4474C69.3711 11.0155 70.8441 11.3069 72.3316 11.3046V0H61.0088C61.007 1.48482 61.2988 2.95537 61.8679 4.32721C62.4369 5.69905 63.2717 6.94519 64.3247 7.99403Z" fill="white"/>
</g>
</g>
<defs>
<clipPath id="clip0_905_3122">
<rect width="162.846" height="58" fill="white"/>
</clipPath>
</defs>
</svg>
