<svg width="360" height="108" viewBox="0 0 360 108" fill="none" xmlns="http://www.w3.org/2000/svg">
<path opacity="0.7" d="M333.936 19.6331C334.703 20.412 334.602 21.779 334.602 21.779C334.602 21.779 334.767 20.4292 335.675 19.8176C336.308 19.4304 337.029 19.209 337.77 19.1738C337.77 19.1738 336.319 18.7275 335.821 18.118C335.323 17.5086 335.177 16 335.177 16C335.177 16 334.733 17.4507 334.121 17.9485C333.509 18.4464 332 18.5923 332 18.5923C332.723 18.7711 333.389 19.129 333.936 19.6331V19.6331Z" fill="#CBD5E1"/>
<path opacity="0.7" d="M345.239 57.7288C346.682 57.9374 348.394 57.5058 349.296 56.2466C349.772 55.5824 349.91 54.5435 349.238 53.9438C348.203 53.0233 346.886 54.7526 348.191 55.4224C349.65 56.1702 351.285 54.4262 351.766 53.1919C352.28 51.8673 352.315 50.4085 352.887 49.0971C352.976 48.8914 353.28 49.0493 353.191 49.2551C352.265 51.3703 352.58 54.0904 350.385 55.4185C349.658 55.8574 348.641 56.1555 347.877 55.6368C347.337 55.2688 347.06 54.5388 347.44 53.9498C347.641 53.6565 347.943 53.452 348.285 53.3772C348.627 53.3024 348.984 53.3628 349.284 53.5463C349.932 53.9619 350.16 54.8495 349.989 55.5776C349.516 57.6083 346.92 58.3222 345.171 58.0688C344.954 58.0371 345.024 57.6952 345.239 57.7269L345.239 57.7288Z" fill="#CBD5E1"/>
<path opacity="0.7" d="M139.554 78.2084C139.31 79.6462 139.699 81.3683 140.936 82.3009C141.588 82.7932 142.623 82.9564 143.239 82.2989C144.185 81.287 142.489 79.9277 141.787 81.2159C141.003 82.656 142.707 84.3335 143.929 84.8448C145.24 85.3916 146.698 85.4623 147.995 86.0668C148.198 86.1607 148.033 86.4605 147.829 86.3666C145.738 85.3886 143.011 85.6365 141.737 83.41C141.316 82.6716 141.043 81.6481 141.58 80.8974C141.962 80.3661 142.698 80.1078 143.278 80.5013C143.566 80.7099 143.763 81.0167 143.829 81.3605C143.896 81.7042 143.826 82.0596 143.636 82.3556C143.204 82.9925 142.311 83.1989 141.588 83.0102C139.569 82.4866 138.919 79.8741 139.216 78.1323C139.253 77.916 139.593 77.994 139.556 78.2084L139.554 78.2084Z" fill="#CBD5E1"/>
<path opacity="0.7" d="M13.7939 12.2992C13.444 14.3599 14.002 16.8279 15.7742 18.1646C16.7091 18.8701 18.1927 19.104 19.0756 18.1617C20.4311 16.7114 18 14.7633 16.9942 16.6096C15.8712 18.6734 18.3123 21.0777 20.0637 21.8105C21.9434 22.5941 24.0322 22.6954 25.8909 23.5618C26.1826 23.6964 25.9455 24.1261 25.6539 23.9915C22.656 22.5898 18.7477 22.9451 16.9222 19.7541C16.3192 18.6959 15.928 17.229 16.6981 16.153C17.2445 15.3917 18.3001 15.0215 19.1306 15.5854C19.5437 15.8843 19.826 16.3241 19.9211 16.8168C20.0162 17.3095 19.917 17.8188 19.6435 18.2429C19.0252 19.1557 17.7455 19.4516 16.7083 19.1812C13.8155 18.4307 12.8844 14.6865 13.3091 12.1902C13.3622 11.8801 13.8496 11.9919 13.7966 12.2993L13.7939 12.2992Z" fill="#CBD5E1"/>
<rect opacity="0.7" x="94.4121" y="11" width="3.41091" height="3.41091" rx="0.895413" transform="rotate(45 94.4121 11)" fill="#CBD5E1"/>
<rect opacity="0.7" x="329.047" y="92" width="1.48085" height="1.48085" rx="0.388746" transform="rotate(45 329.047 92)" fill="#CBD5E1"/>
<rect opacity="0.7" x="173.047" y="92" width="1.48085" height="1.48085" rx="0.388746" transform="rotate(45 173.047 92)" fill="#CBD5E1"/>
<rect opacity="0.7" x="251.047" y="13" width="1.48085" height="1.48085" rx="0.388746" transform="rotate(45 251.047 13)" fill="#CBD5E1"/>
<rect opacity="0.7" x="245.412" y="86" width="3.41091" height="3.41091" rx="0.895413" transform="rotate(45 245.412 86)" fill="#CBD5E1"/>
<rect opacity="0.7" x="13.4121" y="83" width="3.41091" height="3.41091" rx="0.895413" transform="rotate(45 13.4121 83)" fill="#CBD5E1"/>
<circle opacity="0.7" cx="193.5" cy="22.5" r="1.5" fill="#CBD5E1"/>
<circle opacity="0.7" cx="241.5" cy="61.5" r="0.5" fill="#CBD5E1"/>
<path opacity="0.3" d="M268.942 101.941L264.016 98.058L259.089 101.941L254.163 98.058L249.237 101.941L244.31 98.058L239.5 101.883L239.442 101.941L234.516 98L229.589 101.941L224.663 98L219.737 101.941L214.81 98L210 101.825V102.579L214.81 98.7534L219.737 102.695L224.663 98.7534L229.589 102.695L234.516 98.7534L239.442 102.695L239.5 102.637L244.31 98.8114L249.237 102.695L254.163 98.8114L259.089 102.695L264.016 98.8114L268.942 102.695L269 102.637V101.883L268.942 101.941Z" fill="#E2E8F0"/>
<circle opacity="0.7" cx="346.5" cy="72.5" r="1.5" fill="#CBD5E1"/>
<path opacity="0.7" d="M190.936 71.6331C191.703 72.412 191.602 73.779 191.602 73.779C191.602 73.779 191.767 72.4292 192.675 71.8176C193.308 71.4304 194.029 71.209 194.77 71.1738C194.77 71.1738 193.319 70.7275 192.821 70.118C192.323 69.5086 192.177 68 192.177 68C192.177 68 191.733 69.4507 191.121 69.9485C190.509 70.4464 189 70.5923 189 70.5923C189.723 70.7711 190.389 71.129 190.936 71.6331V71.6331Z" fill="#CBD5E1"/>
</svg>
