<svg width="313" height="79" viewBox="0 0 313 79" fill="none" xmlns="http://www.w3.org/2000/svg">
<path fill-rule="evenodd" clip-rule="evenodd" d="M295 32.8663V37.6793H288.875V49.4643C288.875 50.9936 289.151 52.0282 289.704 52.6579C290.302 53.3326 291.131 53.6025 292.329 53.6025C292.651 53.6025 293.066 53.5575 293.526 53.4226C294.079 53.2876 294.401 53.1077 294.77 52.8828L295 52.7029V57.5158L294.954 57.5608C294.585 57.7407 293.941 57.9657 293.066 58.1456C292.237 58.2805 291.362 58.4155 290.533 58.4155C285.467 58.4155 282.934 55.7616 282.934 50.4988V37.6793H273.908V57.7857H267.875V37.6343H263.684V32.8663H267.875V29.4028C267.875 27.6485 268.289 26.1192 269.072 24.7698C269.855 23.3754 270.914 22.3408 272.342 21.5761C273.769 20.9014 275.335 20.4966 277.131 20.4966C278.559 20.4966 279.664 20.6765 280.493 20.9464L280.631 20.9914V26.0742L280.401 25.9393C279.434 25.5344 278.559 25.3545 277.73 25.3545C276.533 25.3545 275.565 25.7144 274.921 26.4341C274.276 27.1538 273.908 28.2783 273.908 29.7177V32.8663H282.934V27.2437L283.072 27.1987L288.783 25.5344L288.967 25.4895V32.8663H295ZM138.876 23.3299C139.567 22.7001 140.396 22.3403 141.409 22.3403C142.468 22.3403 143.343 22.7001 143.942 23.3299C144.633 24.0046 145.001 24.8142 145.001 25.7588C145.001 26.7034 144.633 27.5131 143.942 28.1428C143.297 28.7276 142.422 29.0874 141.409 29.0874C140.396 29.0874 139.567 28.7725 138.876 28.1428C138.185 27.5131 137.817 26.7034 137.817 25.7588C137.817 24.7692 138.185 23.9596 138.876 23.3299ZM115.067 44.8779L113.409 49.466H113.271C112.994 48.4314 112.488 46.8571 111.659 44.9679L102.77 23.1521H94.0664V57.9224H99.8231V36.4665C99.8231 35.1171 99.8231 33.5877 99.777 31.6985C99.7443 31.0276 99.6884 30.4702 99.6422 30.0101C99.6233 29.8224 99.6061 29.6509 99.5928 29.4945H99.7309C100.007 30.8439 100.33 31.8335 100.56 32.4632L111.244 57.8324H115.297L125.889 32.2383C126.065 31.7911 126.241 31.002 126.417 30.2129C126.472 29.9701 126.526 29.7273 126.58 29.4945H126.718C126.58 32.0584 126.488 34.3524 126.442 35.7468V57.7874H132.567V23.0622H124.185L115.067 44.8779ZM138.371 32.8639H144.358V57.7833H138.371V32.8639ZM165.589 32.6404C164.484 32.4155 163.333 32.2806 162.227 32.2806C159.51 32.2806 157.023 32.8653 154.951 34.0348C152.879 35.2043 151.221 36.8236 150.162 38.8478C149.056 40.9169 148.504 43.3009 148.504 46.0447C148.504 48.4287 149.056 50.5428 150.115 52.477C151.175 54.3662 152.648 55.8955 154.629 56.9301C156.517 57.9646 158.727 58.5044 161.214 58.5044C164.07 58.5044 166.51 57.9197 168.445 56.8401L168.491 56.7951V51.3974L168.26 51.5774C167.385 52.2071 166.372 52.7469 165.359 53.0617C164.3 53.4216 163.333 53.6015 162.504 53.6015C160.109 53.6015 158.221 52.9268 156.885 51.4424C155.504 50.003 154.813 48.0239 154.813 45.5499C154.813 42.986 155.504 40.9619 156.931 39.4775C158.359 37.9931 160.247 37.2285 162.55 37.2285C164.484 37.2285 166.464 37.8582 168.26 39.1177L168.491 39.2976V33.585L168.445 33.54L168.376 33.5125C167.611 33.2044 166.752 32.8588 165.589 32.6404ZM181.288 33.8544C182.486 32.9098 183.867 32.46 185.341 32.46C186.354 32.46 187.183 32.5949 187.598 32.8648L187.736 32.9098V38.7573L187.505 38.5774C187.183 38.3525 186.723 38.1726 186.078 37.9926C185.848 37.9627 185.633 37.9277 185.428 37.8944L185.428 37.8944C185.019 37.8277 184.65 37.7677 184.282 37.7677C182.716 37.7677 181.426 38.4425 180.413 39.7919C179.4 41.0963 178.94 42.8956 178.94 45.0546V57.7842H172.953V32.8648H178.94V37.228H178.986C179.584 35.8336 180.275 34.6641 181.288 33.8544ZM201.647 32.3254C197.456 32.3254 194.094 33.5399 191.746 35.9238C189.351 38.3078 188.199 41.5914 188.199 45.7297C188.199 49.598 189.397 52.7467 191.7 55.0407C194.002 57.2898 197.134 58.4593 201.048 58.4593C205.147 58.4593 208.417 57.2448 210.766 54.8158C213.16 52.3868 214.312 49.1482 214.312 45.1449C214.312 41.1866 213.206 38.038 210.95 35.7439C208.785 33.4499 205.608 32.3254 201.647 32.3254ZM201.416 53.5566C203.58 53.5566 205.33 52.8818 206.436 51.4874C207.587 50.093 208.093 47.9789 208.186 45.2801C208.186 42.6262 207.541 40.6021 206.343 39.2077C205.146 37.8133 203.488 37.1385 201.37 37.1385C199.205 37.1385 197.501 37.8582 196.258 39.2976C195.06 40.737 194.416 42.7611 194.416 45.415C194.416 47.9789 195.014 50.0031 196.258 51.3975C197.501 52.8818 199.251 53.5566 201.416 53.5566ZM227.663 43.2109C225.775 42.4462 224.577 41.8615 224.025 41.3667C223.564 40.9169 223.334 40.2872 223.334 39.4775C223.334 38.8028 223.61 38.1281 224.301 37.6783C224.992 37.2285 225.775 37.0036 226.926 37.0036C227.939 37.0036 228.999 37.1835 230.012 37.4534C231.025 37.7232 231.946 38.1281 232.683 38.6678L232.913 38.8478V33.3601L232.775 33.3151C232.084 33.0452 231.163 32.7754 230.058 32.5504C228.953 32.3705 227.939 32.2806 227.11 32.2806C224.255 32.2806 221.906 32.9553 220.064 34.4396C218.222 35.8341 217.347 37.7232 217.347 39.9273C217.347 41.0968 217.531 42.1314 217.946 42.986C218.36 43.8406 218.959 44.6503 219.788 45.325C220.617 45.9548 221.814 46.6744 223.472 47.3492C224.854 47.9339 225.913 48.3837 226.558 48.7436C227.203 49.1034 227.617 49.5082 227.939 49.8231C228.17 50.183 228.308 50.6328 228.308 51.2175C228.308 52.8818 227.018 53.6915 224.393 53.6915C223.38 53.6915 222.321 53.5115 221.077 53.1067C219.834 52.7019 218.683 52.1171 217.716 51.4424L217.485 51.2625V56.9751L217.623 57.02C218.498 57.4249 219.558 57.6948 220.847 58.0096C222.137 58.2345 223.288 58.4145 224.301 58.4145C227.387 58.4145 229.92 57.7397 231.716 56.2554C233.558 54.816 234.525 52.9718 234.525 50.5878C234.525 48.9235 234.064 47.4391 233.051 46.3146C231.716 45.2351 230.058 44.1105 227.663 43.2109ZM240.423 35.9238C242.772 33.5399 246.134 32.3254 250.325 32.3254C254.285 32.3254 257.463 33.4499 259.627 35.7439C261.884 38.038 262.989 41.1866 262.989 45.1449C262.989 49.1482 261.838 52.3868 259.443 54.8158C257.094 57.2448 253.825 58.4593 249.726 58.4593C245.811 58.4593 242.68 57.2898 240.377 55.0407C238.074 52.7467 236.877 49.598 236.877 45.7297C236.877 41.5914 238.074 38.3078 240.423 35.9238ZM255.072 51.4874C253.967 52.8818 252.217 53.5566 250.052 53.5566C247.842 53.5566 246.138 52.8818 244.895 51.3975C243.651 50.0031 243.052 47.9789 243.052 45.415C243.052 42.7611 243.697 40.737 244.895 39.2976C246.138 37.8582 247.842 37.1385 250.006 37.1385C252.079 37.1385 253.783 37.8133 254.98 39.2077C256.178 40.6021 256.822 42.6262 256.822 45.2801C256.822 47.9789 256.224 50.093 255.072 51.4874Z" fill="white"/>
<path d="M17.2363 10.2627H45.3074V38.0384H17.2363V10.2627Z" fill="#F25022"/>
<path d="M48.269 10.2627H76.3401V38.0384H48.269V10.2627Z" fill="#7FBA00"/>
<path d="M17.2368 40.9604H45.3079V68.7361H17.2368V40.9604Z" fill="#00A4EF"/>
<path d="M48.2607 40.9604H76.3318V68.7361H48.2607V40.9604Z" fill="#FFB900"/>
</svg>
