<svg width="100" height="55" viewBox="0 0 100 55" fill="none" xmlns="http://www.w3.org/2000/svg">
<path d="M13.3461 41.6993C13.2427 43.5085 12.8626 44.2783 11.2924 44.2783C10.1343 44.2468 10.5571 44.2468 9.399 44.2519C9.1068 44.2531 8.97496 44.1864 8.97852 43.86C9.01059 40.6523 8.82529 37.432 9.19589 34.2431C9.61875 30.6083 12.0205 28.3304 15.6528 27.8214C16.4272 27.713 17.2005 27.6576 17.9821 27.6664C18.2909 27.6702 18.4453 27.7218 18.4358 28.0935C18.4049 29.2816 18.3966 30.471 18.4121 31.6591C18.4168 32.0433 18.285 32.1441 17.9239 32.1378C17.2646 32.1252 16.6066 32.0774 15.9462 32.2071C14.3949 32.5108 13.5646 33.4267 13.4482 35.0268C13.4257 35.3342 13.3936 35.6429 13.3912 35.9503C13.3841 37.1157 13.3888 38.2812 13.3888 39.4466" fill="white"/>
<path d="M56.8828 41.9673C56.8721 43.5246 55.7947 44.6925 54.3872 44.6963C52.9951 44.7014 51.8869 43.5989 51.8809 42.0644C51.8679 38.6651 51.8988 35.2659 51.9475 31.8666C51.9665 30.5211 53.1198 29.4262 54.4205 29.4161C55.7484 29.406 56.8863 30.5022 56.9184 31.9095C56.9576 33.6204 56.9279 35.3327 56.9279 37.0449" fill="white"/>
<path d="M47.9232 12.453C46.7414 11.3695 45.7163 10.4309 44.6936 9.48851C44.4489 9.26301 44.2102 9.41541 43.9631 9.47341C42.8323 9.73921 41.6611 9.26421 41.1385 8.33191C40.6052 7.37941 40.7917 6.29211 41.6172 5.55251C42.4843 4.77521 43.975 4.72351 44.905 5.43791C45.8505 6.16491 46.1178 7.31891 45.4942 8.35081C45.259 8.74011 45.3493 8.90261 45.6343 9.15841C46.7639 10.1701 47.8745 11.2032 48.9911 12.2288C49.1681 12.3913 49.3795 12.4795 49.5992 12.574C50.1599 12.8146 50.4414 13.2682 50.3499 13.8843C50.2596 14.4941 49.8712 14.9275 49.269 14.9388C47.3305 14.9754 45.3896 14.9703 43.4512 14.9237C42.7325 14.9061 42.2633 14.3101 42.2847 13.6399C42.3073 12.9482 42.824 12.4379 43.6008 12.4266C44.7114 12.4102 45.8232 12.4417 46.935 12.4518C47.1927 12.4556 47.4505 12.453 47.9232 12.453Z" fill="#FFCA20"/>
<path d="M60.8138 12.561C62.2938 12.561 63.6883 12.5573 65.0816 12.5623C65.9902 12.5648 66.5723 13.0663 66.5628 13.8222C66.5544 14.5517 65.9902 15.0582 65.1208 15.0494C63.3236 15.0305 61.5265 15.1136 59.7293 14.999C59.0653 14.9561 58.6472 14.6537 58.5094 14.0225C58.3693 13.3812 58.6603 12.9138 59.2411 12.6391C59.4609 12.5358 59.6402 12.3935 59.8089 12.2234C60.8613 11.1613 61.9089 10.0941 62.9756 9.04713C63.244 8.78383 63.3272 8.57723 63.1763 8.19173C62.7535 7.10563 63.1169 6.07003 64.0624 5.45893C65.0305 4.83403 66.4559 4.96633 67.2873 5.75753C68.0321 6.46563 68.1948 7.52893 67.6971 8.43733C67.1816 9.37853 65.9154 10.0072 64.9034 9.57253C64.047 9.20463 63.6372 9.54863 63.1336 10.0941C62.4256 10.8614 61.669 11.5821 60.9349 12.3254C60.9064 12.3557 60.8945 12.4035 60.8138 12.561Z" fill="#FFCA20"/>
<path d="M57.637 12.2813C57.6251 13.9822 56.1202 15.3732 54.2933 15.3732C52.4867 15.3732 50.9556 13.952 50.9473 12.2675C50.939 10.5616 52.5271 9.09501 54.3397 9.13661C56.1867 9.17821 57.6489 10.5729 57.637 12.2813Z" fill="#FFCA20"/>
<path d="M38.8275 42.4941C40.0652 43.8863 40.5605 44.2403 41.664 44.5314C44.9007 45.3843 47.8109 43.9581 49.2327 40.8348C49.8527 39.4716 50.0819 38.0277 50.1734 36.5498C50.1401 35.94 50.1461 35.329 50.1651 34.7204C50.2257 32.8432 49.627 31.1877 48.5259 29.7022C48.0876 29.1113 47.5887 28.5733 46.7989 28.4625C44.7321 27.4306 42.5679 27.1396 40.3241 27.6889C37.6647 28.339 35.3876 29.5258 34.7593 32.5295C34.6025 33.2766 34.5894 34.03 34.5871 34.7948C34.5787 37.2919 34.555 39.7903 34.536 42.2875C34.5158 44.903 34.498 47.5186 34.4659 50.1342C34.4623 50.4492 34.5574 50.5462 34.8662 50.5348C35.4803 50.5134 36.0968 50.55 36.7109 50.5235C37.882 50.4718 38.7206 49.5735 38.7301 48.3817L38.8275 42.4941ZM45.2666 39.0961C44.7309 40.3585 43.7367 41.049 42.3244 41.0313C40.8634 41.0124 39.8942 40.2615 39.2931 38.9689C38.8845 38.0869 38.8501 37.1357 38.8073 36.2286C38.8643 35.1954 38.8881 34.2001 39.2718 33.2564C39.8075 31.9373 40.7708 31.1877 42.1795 31.1448C43.5704 31.1032 44.6774 31.6967 45.2428 33.017C46.1052 35.0266 46.1206 37.084 45.2666 39.0961Z" fill="white"/>
<path d="M74.2416 25.0606C74.2428 24.0502 73.4339 23.2098 72.4266 23.0926C71.8185 23.0221 71.1984 23.0725 70.5855 23.0309C70.133 23.0007 69.969 23.1342 69.9845 23.6218C70.0225 24.8099 69.9964 26.0005 69.9964 27.1911C69.9964 28.092 69.9964 28.8668 69.9964 29.7689C68.8739 28.3868 67.8726 27.7719 65.8723 27.5842C64.536 27.4582 63.296 27.7644 62.1248 28.4006C61.5333 28.7257 61.5843 28.829 61.3408 29.0444C60.5141 29.7727 59.9749 30.6735 59.495 31.6651C58.8904 32.9162 58.6718 34.0564 58.6576 35.4083C58.5828 36.672 58.6374 37.9344 58.907 39.1691C59.4546 41.6713 60.5985 43.6922 63.2544 44.4708C64.9731 44.9748 66.7168 45.0781 68.4368 44.6447C72.2306 43.6859 73.9981 42.1677 74.1371 38.1208C74.2879 33.7704 74.238 29.4136 74.2416 25.0606ZM69.469 39.1313C68.9653 40.4252 68.0401 41.1799 66.642 41.2391C65.2451 41.2971 64.1298 40.7452 63.549 39.4299C62.6664 37.4317 62.6094 35.3717 63.4599 33.3546C64.0241 32.0166 65.0705 31.2921 66.5838 31.3677C67.9902 31.4383 69.0247 32.2081 69.5486 33.6129C69.8503 34.423 69.9346 35.2709 69.9595 36.1541C69.9192 37.1495 69.8443 38.1662 69.469 39.1313Z" fill="white"/>
<path d="M33.1941 32.1655C33.1929 30.1105 32.226 28.6629 30.3053 27.9788C28.1613 27.2153 25.9449 27.1082 23.7415 27.6083C21.7377 28.0644 20.3313 29.2765 19.7446 31.3314C19.6103 31.8039 19.678 32.0143 20.2411 31.9765C20.9953 31.9261 21.7543 31.9676 22.511 31.9626C23.1987 31.9588 23.9339 32.1251 24.3699 31.3213C24.4542 31.1651 24.7191 31.0807 24.9174 31.0202C26.0684 30.6687 27.2052 30.7695 28.3229 31.1789C28.7612 31.3402 29.0082 31.6753 29.0664 32.1377C29.1258 32.6178 28.8942 32.9668 28.5165 33.2175C27.9737 33.5778 27.3524 33.7151 26.7205 33.8285C25.4448 34.0566 24.1323 34.0931 22.8946 34.5253C21.6557 34.9587 20.4466 35.4601 19.7564 36.6848C17.869 40.0336 19.7885 43.9771 23.555 44.5504C24.8842 44.7532 26.2038 44.6461 27.5128 44.4823C30.4989 44.1094 32.6738 42.4476 32.9898 39.7111C33.1953 37.9245 33.1489 36.5827 33.1953 35.2988C33.1941 34.0679 33.1941 33.1167 33.1941 32.1655ZM29.0997 37.292C29.0914 39.9215 27.59 41.4145 25.1265 41.2431C24.0836 41.17 23.4137 40.6195 23.2676 39.7148C23.0965 38.6565 23.5313 37.8174 24.4625 37.3941C25.1348 37.0879 25.8653 37.0023 26.5709 36.8233C27.0507 36.7024 27.533 36.5877 28.0034 36.4391C29.1056 36.0888 29.1033 36.0813 29.0997 37.292Z" fill="white"/>
<path d="M62.1258 28.3982C59.9379 29.9857 58.9651 32.2208 58.7323 34.849C58.7156 35.0367 58.6824 35.2219 58.6574 35.4071C58.661 34.2429 58.6693 33.0813 58.6669 31.9184C58.661 29.2978 57.2832 27.922 54.6736 27.8073C53.1995 27.7418 51.8976 27.9875 50.9628 29.2499C50.4533 29.9378 50.2086 30.7089 50.2098 31.5745C50.2122 33.235 50.1884 34.8968 50.1753 36.5536C50.1385 35.0153 50.0993 33.4883 49.5529 32.0167C49.0018 30.5325 48.1893 29.2789 46.8008 28.4637C46.8174 25.823 46.8364 23.1822 46.8483 20.5414C46.859 18.2774 48.5065 16.55 50.7585 16.5261C53.2422 16.5009 55.7271 16.5097 58.2108 16.5462C60.5187 16.5803 62.1864 18.387 62.1555 20.6901C62.1199 23.259 62.1342 25.8293 62.1258 28.3982Z" fill="#FFCA20"/>
<path d="M90.4346 34.3552C89.9215 30.2416 87.2418 27.7684 83.1356 27.6587C79.6208 27.5643 77.0219 29.2021 75.9755 32.2259C75.5229 33.5325 75.2866 34.8906 75.3459 36.1657C75.3459 36.4756 75.3364 36.667 75.3471 36.856C75.4576 38.7711 75.6975 40.6787 76.8996 42.2447C78.7145 44.6083 81.2802 45.1955 84.0644 44.9082C87.2881 44.5756 89.2896 42.7034 90.1495 39.5826C90.6235 37.864 90.6555 36.1203 90.4346 34.3552ZM86.3058 36.0775C86.3106 37.2114 86.1989 38.2042 85.8616 39.1517C85.1228 41.2255 83.113 42.0066 81.2968 40.9584C80.6649 40.5943 80.2789 40.0361 80.0639 39.3646C79.5163 37.6574 79.4059 35.9124 79.7848 34.1612C80.1839 32.3179 81.4037 31.3264 83.1071 31.3679C84.5835 31.4045 85.8081 32.6026 86.1443 34.3615C86.2607 34.9688 86.3521 35.5823 86.3058 36.0775Z" fill="white"/>
</svg>
