<svg width="360" height="700" viewBox="0 0 360 700" fill="none" xmlns="http://www.w3.org/2000/svg">
<rect width="360" height="700" fill="#1E293B"/>
<path d="M46.873 300.883C47.3702 302.903 47.8674 303.912 49.6076 305.679C51.0991 303.66 52.5907 302.903 54.0823 302.398C53.8337 300.378 53.3365 299.369 52.0935 297.602C50.602 298.864 49.359 299.621 46.873 300.883Z" fill="#FF5C5C" fill-opacity="0.6"/>
<path d="M336.121 238.155C339.656 238.873 341.777 239.232 344.959 238.873C344.605 236.36 343.898 234.924 343.191 233.847C341.424 234.565 340.01 234.206 337.889 233.488C337.889 235.283 337.535 236.719 336.121 238.155Z" fill="#16A34A" fill-opacity="0.6"/>
<path d="M215.701 194.025C215.701 195.864 216.092 196.967 217.266 198.806C219.222 197.335 220.787 196.967 222.352 196.967C222.352 195.128 222.352 194.025 221.57 192.186C219.613 193.289 218.049 193.657 215.701 194.025Z" fill="#FF7CF1"/>
<path d="M142.693 214.996C141.627 215.999 141.271 217.001 141.271 219.006C144.471 219.34 146.248 220.009 148.736 221.68C148.736 220.343 149.447 219.34 150.869 218.004C148.025 216.333 145.892 215.664 142.693 214.996Z" fill="#00EE98" fill-opacity="0.6"/>
<path d="M27.5682 241.339C27.8572 241.823 28.0978 242.331 28.2869 242.855C28.3295 242.94 28.3054 243.041 28.2284 243.099C28.1515 243.158 28.0413 243.16 27.9606 243.104C27.4498 242.824 26.9672 242.502 26.519 242.139C26.3267 241.966 26.2566 241.706 26.3389 241.47C26.4213 241.235 26.6414 241.067 26.9043 241.039C27.1671 241.011 27.4256 241.128 27.5682 241.339Z" fill="#F0C419"/>
<path d="M24.9453 238.317C25.247 238.815 25.5004 239.337 25.7025 239.877C25.7488 239.962 25.7259 240.066 25.6475 240.125C25.5692 240.185 25.4563 240.185 25.3762 240.125C24.852 239.831 24.3567 239.494 23.8962 239.117C23.6148 238.837 23.6231 238.4 23.9147 238.136C24.2494 237.922 24.7089 238.003 24.9453 238.317Z" fill="#FF5364"/>
<path d="M33.8516 248.559C33.3911 248.182 32.8958 247.844 32.3716 247.55C32.2915 247.49 32.1786 247.49 32.1002 247.55C32.0219 247.61 31.999 247.713 32.0453 247.799C32.2474 248.338 32.5008 248.86 32.8025 249.358C33.0389 249.673 33.4984 249.753 33.8331 249.539C34.1247 249.276 34.133 248.839 33.8516 248.559Z" fill="#FF5364"/>
<path d="M22.974 247.509C23.5034 247.231 24.059 246.999 24.6343 246.816C24.7252 246.774 24.8362 246.797 24.9012 246.871C24.9662 246.946 24.9678 247.052 24.9049 247.127C24.597 247.617 24.242 248.079 23.8444 248.508C23.5482 248.769 23.0798 248.756 22.7938 248.478C22.5602 248.159 22.6406 247.727 22.974 247.509Z" fill="#FF5364"/>
<path d="M33.9014 239.171C33.5038 239.6 33.1488 240.062 32.8409 240.552C32.778 240.627 32.7796 240.733 32.8446 240.808C32.9096 240.882 33.0206 240.905 33.1115 240.863C33.6867 240.679 34.2424 240.448 34.7717 240.17C35.1052 239.951 35.1856 239.519 34.952 239.201C34.666 238.923 34.1976 238.909 33.9014 239.171Z" fill="#FF5364"/>
<path d="M24.3315 242.743C24.8991 242.898 25.4508 243.102 25.9793 243.353C26.0736 243.385 26.133 243.474 26.1235 243.567C26.114 243.66 26.038 243.735 25.9391 243.748C25.3709 243.887 24.7894 243.976 24.2021 244.014C23.9372 244.016 23.6923 243.876 23.5728 243.653C23.4532 243.43 23.4803 243.164 23.6423 242.969C23.8044 242.775 24.0726 242.687 24.3315 242.743V242.743Z" fill="#894B9D"/>
<path d="M33.5208 243.627C32.9337 243.664 32.3522 243.753 31.7841 243.893C31.6853 243.906 31.6096 243.98 31.6 244.074C31.5905 244.167 31.6496 244.255 31.7436 244.288C32.2722 244.539 32.8238 244.743 33.3914 244.898C33.6503 244.954 33.9185 244.866 34.0806 244.671C34.2427 244.477 34.2698 244.211 34.1502 243.988C34.0306 243.764 33.7857 243.624 33.5208 243.627V243.627Z" fill="#894B9D"/>
<path d="M27.7112 248.055C27.8692 247.524 28.0798 247.01 28.3402 246.518C28.3741 246.43 28.4673 246.375 28.5668 246.385C28.6663 246.396 28.7468 246.467 28.7624 246.56C28.9181 247.095 29.0206 247.642 29.0686 248.193C29.075 248.441 28.9285 248.669 28.6921 248.778C28.4557 248.887 28.1715 248.859 27.962 248.704C27.7524 248.549 27.6548 248.297 27.7112 248.055V248.055Z" fill="#894B9D"/>
<path d="M28.6468 239.446C28.6947 239.997 28.7972 240.543 28.953 241.078C28.9683 241.171 29.0488 241.243 29.1485 241.254C29.2482 241.264 29.3416 241.209 29.3754 241.121C29.6358 240.629 29.8463 240.114 30.0042 239.584C30.0605 239.342 29.9629 239.089 29.7534 238.934C29.5438 238.78 29.2597 238.751 29.0233 238.86C28.7869 238.969 28.6404 239.197 28.6468 239.446V239.446Z" fill="#894B9D"/>
<path d="M31.2223 245.536C30.7742 245.173 30.2916 244.851 29.7807 244.571C29.7001 244.515 29.5899 244.517 29.5129 244.576C29.436 244.634 29.4119 244.735 29.4544 244.82C29.6436 245.344 29.8842 245.852 30.1731 246.336C30.3157 246.547 30.5742 246.664 30.8371 246.636C31.0999 246.608 31.3201 246.44 31.4024 246.205C31.4848 245.97 31.4147 245.709 31.2223 245.536Z" fill="#F0C419"/>
<path d="M26.1963 245.046C26.7104 244.78 27.2505 244.56 27.8095 244.389C27.9001 244.35 28.0082 244.374 28.072 244.447C28.1358 244.521 28.1392 244.625 28.0801 244.7C27.788 245.177 27.4487 245.628 27.0666 246.045C26.8836 246.224 26.6057 246.286 26.3528 246.206C26.0999 246.125 25.9173 245.915 25.8839 245.667C25.8504 245.419 25.9721 245.178 26.1963 245.046Z" fill="#F0C419"/>
<path d="M30.6724 241.636C30.2903 242.054 29.9509 242.504 29.6588 242.981C29.5998 243.057 29.6031 243.16 29.6669 243.234C29.7307 243.307 29.8388 243.331 29.9294 243.292C30.4884 243.121 31.0285 242.901 31.5426 242.635C31.7668 242.504 31.8885 242.262 31.855 242.014C31.8216 241.766 31.639 241.556 31.3861 241.475C31.1332 241.395 30.8553 241.457 30.6724 241.636Z" fill="#F0C419"/>
<path d="M283.545 202.66L283.821 208.393L282.33 208.283C282.022 208.26 281.722 208.133 281.495 207.929C281.269 207.724 281.134 207.46 281.121 207.194L280.893 202.465L283.545 202.66Z" fill="#EECC1F"/>
<path d="M286.376 207.317L286.548 210.903L285.062 210.794C284.91 210.782 284.759 210.745 284.616 210.684C284.474 210.624 284.343 210.54 284.231 210.439C284.119 210.338 284.029 210.221 283.965 210.095C283.901 209.969 283.865 209.836 283.858 209.704L283.686 206.117L285.172 206.227C285.479 206.25 285.778 206.377 286.003 206.582C286.229 206.786 286.363 207.05 286.376 207.317V207.317Z" fill="#FBB540"/>
<path d="M289.121 209.812L289.348 214.541L286.697 214.346L286.421 208.613L287.912 208.723C288.22 208.746 288.52 208.873 288.747 209.077C288.973 209.282 289.108 209.546 289.121 209.812V209.812Z" fill="#EECC1F"/>
<path d="M322.554 305.742C322.62 305.122 322.657 304.915 322.985 304.671C323.311 304.428 323.529 304.446 324.167 304.541C324.917 304.652 326.051 304.821 327.213 303.956C328.374 303.092 328.492 301.991 328.571 301.263C328.637 300.643 328.674 300.435 329.002 300.192C329.544 299.788 329.63 299.018 329.192 298.471C328.754 297.926 327.96 297.811 327.417 298.215C326.256 299.079 326.137 300.18 326.059 300.908C325.993 301.528 325.956 301.735 325.628 301.979C325.301 302.222 325.084 302.204 324.446 302.109C323.696 301.998 322.561 301.829 321.4 302.694C320.239 303.558 320.12 304.659 320.042 305.387C319.976 306.007 319.939 306.214 319.611 306.458C319.154 306.799 319.021 307.4 319.253 307.907C319.296 308.002 319.352 308.093 319.421 308.178C319.859 308.724 320.654 308.839 321.196 308.435C322.357 307.571 322.475 306.47 322.554 305.742Z" fill="#F2A7D0"/>
<path d="M40.5615 192.717C41.2347 191.456 41.2347 190.51 40.8981 188.934C39.2151 188.619 38.2053 188.304 36.8588 188.619C36.5222 190.195 35.849 191.141 34.166 192.717C36.5222 192.402 38.2053 192.402 40.5615 192.717Z" fill="#FF5C5C" fill-opacity="0.6"/>
<path d="M348.828 194.377C349.773 194.377 350.481 194.6 351.426 195.49C353.079 193.041 353.552 191.261 354.497 188.589C353.079 187.477 352.135 187.254 351.426 187.254C351.19 190.148 350.245 191.928 348.828 194.377Z" fill="#16A34A"/>
</svg>
