<svg width="1266" height="637" viewBox="0 0 1266 637" fill="none" xmlns="http://www.w3.org/2000/svg">
<path d="M250.985 305.242C251.772 308.384 252.559 309.956 255.314 312.705C257.675 309.563 260.037 308.384 262.398 307.599C262.005 304.456 261.217 302.885 259.25 300.135C256.888 302.099 254.92 303.277 250.985 305.242Z" fill="#FF5C5C" fill-opacity="0.6"/>
<path d="M877.5 519.107C878.287 522.25 879.074 523.821 881.829 526.571C884.191 523.428 886.552 522.25 888.914 521.464C888.52 518.321 887.733 516.75 885.765 514C883.404 515.964 881.436 517.143 877.5 519.107Z" fill="#FF5C5C" fill-opacity="0.6"/>
<path d="M1108.5 386.634C1110.33 391.506 1110.33 393.941 1109.72 398.204C1111.55 398.204 1112.77 398.204 1113.99 399.422C1115.21 395.159 1115.21 391.506 1113.99 386.025C1111.55 386.025 1110.33 386.025 1108.5 386.634Z" fill="#4D8EFF"/>
<path d="M968.901 220.295C974.497 221.412 977.855 221.971 982.892 221.412C982.333 217.502 981.213 215.268 980.094 213.592C977.296 214.709 975.057 214.15 971.699 213.033C971.699 215.826 971.14 218.061 968.901 220.295Z" fill="#16A34A" fill-opacity="0.6"/>
<path d="M1019.78 572.542C1020.76 570.591 1020.76 569.128 1020.27 566.69C1017.83 566.202 1016.36 565.714 1014.41 566.202C1013.92 568.64 1012.94 570.103 1010.5 572.542C1013.92 572.054 1016.36 572.054 1019.78 572.542Z" fill="#16A34A"/>
<path d="M317.374 497C314.662 499.506 313.5 501.296 313.5 505.234C318.924 508.099 322.023 510.247 327.06 514.185C327.835 512.037 328.997 510.963 330.159 510.247C324.348 505.95 321.636 502.37 317.374 497Z" fill="#FC9512" fill-opacity="0.6"/>
<path d="M389.594 101.104C389.594 103.966 390.213 105.683 392.071 108.545C395.168 106.255 397.646 105.683 400.123 105.683C400.123 102.821 400.123 101.104 398.884 98.2422C395.788 99.9593 393.31 100.532 389.594 101.104Z" fill="#FF7CF1"/>
<path d="M184.751 400.008C183.063 401.568 182.5 403.128 182.5 406.248C187.565 406.768 190.378 407.808 194.318 410.409C194.318 408.328 195.443 406.768 197.694 404.688C193.192 402.088 189.816 401.048 184.751 400.008Z" fill="#00EE98" fill-opacity="0.6"/>
<path d="M388.769 176.903C389.227 177.656 389.61 178.446 389.91 179.262C389.978 179.395 389.94 179.551 389.818 179.642C389.697 179.733 389.523 179.736 389.395 179.648C388.586 179.213 387.821 178.709 387.111 178.144C386.807 177.874 386.695 177.469 386.825 177.104C386.954 176.738 387.302 176.478 387.718 176.435C388.133 176.392 388.543 176.574 388.769 176.903Z" fill="#F0C419"/>
<path d="M384.615 172.201C385.094 172.976 385.496 173.789 385.817 174.629C385.891 174.762 385.855 174.923 385.731 175.015C385.607 175.108 385.429 175.108 385.302 175.015C384.472 174.556 383.687 174.03 382.958 173.442C382.512 173.006 382.523 172.326 382.984 171.917C383.513 171.585 384.24 171.711 384.615 172.201Z" fill="#FF5364"/>
<path d="M398.717 188.138C397.987 187.551 397.203 187.024 396.373 186.566C396.246 186.473 396.067 186.472 395.944 186.565C395.82 186.658 395.784 186.819 395.857 186.952C396.179 187.791 396.581 188.604 397.06 189.379C397.435 189.869 398.162 189.996 398.691 189.664C399.151 189.255 399.163 188.575 398.717 188.138Z" fill="#FF5364"/>
<path d="M381.497 186.498C382.334 186.067 383.214 185.707 384.124 185.423C384.268 185.357 384.444 185.393 384.547 185.51C384.65 185.626 384.653 185.792 384.554 185.908C384.068 186.67 383.507 187.389 382.878 188.056C382.41 188.462 381.668 188.44 381.214 188.006C380.843 187.51 380.969 186.837 381.497 186.498Z" fill="#FF5364"/>
<path d="M398.796 173.526C398.168 174.193 397.607 174.912 397.121 175.674C397.021 175.79 397.024 175.956 397.127 176.072C397.231 176.189 397.407 176.225 397.55 176.159C398.461 175.875 399.34 175.515 400.178 175.084C400.705 174.744 400.831 174.072 400.46 173.576C400.007 173.142 399.265 173.12 398.796 173.526Z" fill="#FF5364"/>
<path d="M383.643 179.084C384.542 179.327 385.415 179.646 386.253 180.038C386.402 180.089 386.496 180.226 386.482 180.372C386.467 180.517 386.347 180.633 386.19 180.653C385.291 180.868 384.371 181.005 383.441 181.062C383.022 181.066 382.634 180.846 382.444 180.499C382.254 180.151 382.296 179.737 382.552 179.435C382.808 179.133 383.233 178.996 383.643 179.084V179.084Z" fill="#894B9D"/>
<path d="M398.194 180.464C397.265 180.522 396.345 180.659 395.446 180.874C395.29 180.894 395.17 181.01 395.155 181.155C395.14 181.3 395.234 181.437 395.383 181.489C396.22 181.88 397.094 182.2 397.993 182.443C398.403 182.531 398.827 182.394 399.083 182.092C399.339 181.789 399.381 181.375 399.191 181.028C399.002 180.68 398.613 180.461 398.194 180.464V180.464Z" fill="#894B9D"/>
<path d="M389.001 187.353C389.25 186.528 389.582 185.727 389.992 184.962C390.046 184.825 390.193 184.741 390.351 184.757C390.508 184.773 390.636 184.885 390.661 185.029C390.909 185.862 391.073 186.713 391.15 187.571C391.161 187.958 390.93 188.312 390.556 188.481C390.182 188.651 389.732 188.605 389.4 188.364C389.068 188.123 388.913 187.729 389.001 187.353V187.353Z" fill="#894B9D"/>
<path d="M390.478 173.955C390.555 174.813 390.719 175.664 390.967 176.497C390.992 176.642 391.119 176.754 391.277 176.77C391.435 176.786 391.583 176.702 391.636 176.565C392.047 175.799 392.379 174.999 392.627 174.174C392.715 173.797 392.56 173.404 392.228 173.162C391.896 172.921 391.446 172.876 391.072 173.045C390.698 173.214 390.467 173.569 390.478 173.955V173.955Z" fill="#894B9D"/>
<path d="M394.556 183.435C393.846 182.87 393.082 182.367 392.273 181.931C392.145 181.844 391.971 181.846 391.849 181.937C391.728 182.028 391.69 182.185 391.758 182.317C392.058 183.133 392.44 183.923 392.899 184.676C393.125 185.005 393.534 185.188 393.95 185.145C394.366 185.102 394.714 184.842 394.843 184.476C394.973 184.11 394.861 183.705 394.556 183.435Z" fill="#F0C419"/>
<path d="M386.6 182.664C387.414 182.251 388.268 181.91 389.153 181.645C389.297 181.585 389.468 181.622 389.569 181.736C389.67 181.851 389.676 182.012 389.583 182.129C389.122 182.872 388.585 183.573 387.982 184.222C387.692 184.5 387.252 184.597 386.852 184.47C386.451 184.344 386.161 184.017 386.107 183.631C386.054 183.245 386.246 182.868 386.6 182.664Z" fill="#F0C419"/>
<path d="M393.685 177.36C393.081 178.009 392.545 178.709 392.084 179.452C391.99 179.569 391.996 179.731 392.097 179.845C392.198 179.96 392.37 179.997 392.513 179.937C393.398 179.672 394.253 179.331 395.066 178.918C395.421 178.714 395.613 178.337 395.559 177.951C395.505 177.565 395.216 177.238 394.815 177.112C394.414 176.985 393.974 177.082 393.685 177.36Z" fill="#F0C419"/>
<path d="M872.674 128.877L873.086 137.809L870.71 137.644C870.22 137.61 869.742 137.413 869.382 137.096C869.022 136.779 868.809 136.368 868.79 135.953L868.451 128.584L872.674 128.877Z" fill="#EECC1F"/>
<path d="M877.15 136.118L877.405 141.708L875.041 141.543C874.8 141.527 874.559 141.469 874.332 141.375C874.106 141.281 873.898 141.151 873.72 140.994C873.543 140.837 873.4 140.655 873.299 140.459C873.198 140.262 873.141 140.055 873.131 139.85L872.876 134.26L875.239 134.425C875.727 134.459 876.202 134.656 876.561 134.974C876.919 135.291 877.131 135.703 877.15 136.118V136.118Z" fill="#FBB540"/>
<path d="M881.497 140.004L881.837 147.373L877.613 147.081L877.202 138.149L879.577 138.313C880.068 138.347 880.545 138.545 880.905 138.862C881.265 139.179 881.478 139.59 881.497 140.004V140.004Z" fill="#EECC1F"/>
<path d="M1082.68 312.668C1082.78 311.704 1082.84 311.381 1083.36 311.001C1083.88 310.623 1084.22 310.651 1085.23 310.798C1086.42 310.972 1088.22 311.234 1090.05 309.889C1091.89 308.544 1092.08 306.831 1092.2 305.698C1092.31 304.733 1092.37 304.41 1092.89 304.031C1093.75 303.402 1093.88 302.205 1093.19 301.354C1092.49 300.504 1091.24 300.326 1090.38 300.954C1088.54 302.3 1088.35 304.012 1088.23 305.145C1088.12 306.11 1088.06 306.433 1087.55 306.812C1087.03 307.191 1086.68 307.163 1085.67 307.015C1084.49 306.841 1082.69 306.579 1080.85 307.925C1079.01 309.27 1078.83 310.982 1078.7 312.115C1078.6 313.08 1078.54 313.403 1078.02 313.783C1077.29 314.313 1077.09 315.248 1077.45 316.038C1077.52 316.184 1077.61 316.326 1077.72 316.46C1078.41 317.309 1079.67 317.488 1080.53 316.859C1082.37 315.514 1082.55 313.802 1082.68 312.668Z" fill="#F2A7D0"/>
<path d="M752.647 61.1508C753.712 59.1885 753.712 57.7169 753.18 55.2641C750.515 54.7735 748.916 54.2829 746.785 54.7735C746.252 57.2263 745.186 58.698 742.521 61.1508C746.252 60.6602 748.916 60.6602 752.647 61.1508Z" fill="#FF5C5C" fill-opacity="0.6"/>
<path d="M1010.01 479.048C1013.67 479.048 1013.68 473.803 1010.01 473.803C1006.34 473.803 1006.33 479.048 1010.01 479.048Z" fill="#EB67A5"/>
<path d="M246.476 561.086C246.476 562.66 247.905 564.197 250.004 564.197C252.102 564.197 253.532 562.66 253.532 561.086C253.532 559.512 252.102 557.976 250.004 557.976C247.905 557.976 246.476 559.512 246.476 561.086Z" stroke="#E82F3E" stroke-width="3.9515"/>
<path d="M515.094 59.3584C516.59 59.3584 517.712 59.7048 519.207 61.0904C521.825 57.28 522.573 54.5087 524.068 50.3519C521.825 48.6198 520.329 48.2734 519.207 48.2734C518.834 52.7767 517.338 55.548 515.094 59.3584Z" fill="#16A34A"/>
</svg>
