<svg width="91" height="36" viewBox="0 0 91 36" fill="none" xmlns="http://www.w3.org/2000/svg">
<path fill-rule="evenodd" clip-rule="evenodd" d="M54.6123 24.2354C50.3368 27.6391 44.1396 29.4551 38.804 29.4551C31.3226 29.4551 24.5874 26.4665 19.4919 21.4959C19.0916 21.105 19.4503 20.5723 19.9307 20.8767C25.4297 24.3323 32.2289 26.4112 39.2524 26.4112C43.9891 26.4112 49.1998 25.3527 53.991 23.1562C54.7148 22.8242 55.3201 23.6682 54.6123 24.2354Z" fill="#FF9900"/>
<path fill-rule="evenodd" clip-rule="evenodd" d="M55.3904 22.1557C54.8517 21.4361 51.8158 21.8157 50.4531 21.9841C50.038 22.0369 49.9746 21.6606 50.3485 21.3899C52.7665 19.6173 56.7341 20.1289 57.1967 20.7231C57.6594 21.3206 57.0763 25.4633 54.8041 27.4406C54.4556 27.7443 54.1228 27.5825 54.2781 27.1798C54.7883 25.8528 55.9323 22.8786 55.3904 22.1557Z" fill="#FF9900"/>
<path fill-rule="evenodd" clip-rule="evenodd" d="M50.5591 9.28645V7.59282C50.5591 7.33651 50.7655 7.16455 51.0132 7.16455H59.0528C59.3108 7.16455 59.5172 7.33975 59.5172 7.59282V9.04312C59.5138 9.28645 59.2971 9.60441 58.9118 10.1073L54.7458 15.7171C56.2938 15.6814 57.9279 15.8987 59.3315 16.645C59.648 16.8137 59.734 17.0603 59.7581 17.3036V19.1108C59.7581 19.3574 59.4691 19.6461 59.1664 19.4969C56.6929 18.2737 53.4075 18.1407 50.6726 19.5099C50.394 19.6526 50.1016 19.3671 50.1016 19.1205V17.4042C50.1016 17.1284 50.105 16.658 50.3974 16.2394L55.2239 9.71148H51.0235C50.7655 9.71148 50.5591 9.53953 50.5591 9.28645Z" fill="white"/>
<path fill-rule="evenodd" clip-rule="evenodd" d="M23.1666 18.9294H20.9265C20.7123 18.9139 20.5421 18.7551 20.5264 18.5528V7.19341C20.5264 6.96616 20.7186 6.7856 20.958 6.7856H23.0469C23.2643 6.79493 23.4376 6.95993 23.4534 7.16539V8.65029H23.4943C24.0394 7.21519 25.0634 6.5459 26.4434 6.5459C27.8454 6.5459 28.7213 7.21519 29.3515 8.65029C29.8934 7.21519 31.1253 6.5459 32.4454 6.5459C33.3843 6.5459 34.4115 6.9288 35.0385 7.78799C35.7474 8.74368 35.6024 10.1321 35.6024 11.3493L35.5993 18.5185C35.5993 18.7458 35.4071 18.9294 35.1676 18.9294H32.9306C32.707 18.9139 32.5274 18.7364 32.5274 18.5185V12.498C32.5274 12.0186 32.5715 10.8232 32.4643 10.3687C32.2974 9.60599 31.7964 9.39119 31.1474 9.39119C30.6054 9.39119 30.0383 9.74918 29.8083 10.322C29.5783 10.8948 29.6004 11.8536 29.6004 12.498V18.5185C29.6004 18.7458 29.4082 18.9294 29.1687 18.9294H26.9317C26.7049 18.9139 26.5284 18.7364 26.5284 18.5185L26.5253 12.498C26.5253 11.231 26.7364 9.36628 25.1453 9.36628C23.5353 9.36628 23.5983 11.1843 23.5983 12.498V18.5185C23.5983 18.7458 23.4061 18.9294 23.1666 18.9294Z" fill="white"/>
<path fill-rule="evenodd" clip-rule="evenodd" d="M66.0496 6.54639C69.7997 6.54639 71.8294 9.45227 71.8294 13.1472C71.8294 16.717 69.5865 19.5491 66.0496 19.5491C62.3671 19.5491 60.3623 16.6432 60.3623 13.0221C60.3623 9.3785 62.392 6.54639 66.0496 6.54639ZM66.0703 8.93545C64.2077 8.93545 64.0904 11.2255 64.0904 12.6528C64.0904 14.0833 64.0656 17.1367 66.049 17.1367C68.0076 17.1367 68.1 14.6735 68.1 13.1724C68.1 12.1845 68.0538 11.0042 67.7232 10.0677C67.4389 9.25298 66.8737 8.93545 66.0703 8.93545Z" fill="white"/>
<path fill-rule="evenodd" clip-rule="evenodd" d="M75.3706 18.9294H72.8838C72.6344 18.9139 72.4342 18.7364 72.4342 18.5185L72.4307 7.15605C72.4517 6.94748 72.659 6.7856 72.9119 6.7856H75.2266C75.4444 6.79493 75.6235 6.92569 75.6727 7.10313V8.84018H75.7184C76.4174 7.28679 77.3973 6.5459 79.122 6.5459C80.2425 6.5459 81.3349 6.90389 82.0374 7.88449C82.6907 8.79349 82.6907 10.322 82.6907 11.4209V18.5714C82.6626 18.7707 82.4554 18.9294 82.2095 18.9294H79.7051C79.4767 18.9139 79.2871 18.7645 79.2625 18.5714V12.4015C79.2625 11.1594 79.4241 9.34138 77.6994 9.34138C77.0918 9.34138 76.5333 9.70249 76.2558 10.2504C75.9045 10.9446 75.8589 11.6357 75.8589 12.4015V18.5185C75.8554 18.7458 75.6376 18.9294 75.3706 18.9294" fill="white"/>
<path fill-rule="evenodd" clip-rule="evenodd" d="M45.0991 13.8111C45.0991 14.6976 45.1227 15.4368 44.6503 16.2241C44.269 16.8642 43.6616 17.2578 42.9901 17.2578C42.0688 17.2578 41.5289 16.5921 41.5289 15.6097C41.5289 13.6703 43.3613 13.3183 45.0991 13.3183V13.8111ZM47.5203 19.3571C47.3617 19.4915 47.1323 19.5011 46.9534 19.4115C46.157 18.7842 46.0119 18.493 45.5766 17.8946C44.2606 19.1683 43.3258 19.5491 41.6217 19.5491C39.6004 19.5491 38.0312 18.3682 38.0312 16.0032C38.0312 14.1566 39.0841 12.8989 40.5891 12.2845C41.8917 11.7404 43.7105 11.6444 45.1008 11.494V11.1996C45.1008 10.6587 45.1447 10.0187 44.8072 9.55145C44.517 9.13221 43.9569 8.95939 43.4608 8.95939C42.5463 8.95939 41.7331 9.40423 41.534 10.3259C41.4935 10.5307 41.3349 10.7323 41.1155 10.7419L38.7905 10.5051C38.5948 10.4635 38.3754 10.3131 38.4328 10.0283C38.966 7.35286 41.5171 6.54639 43.7983 6.54639C44.9658 6.54639 46.4911 6.84081 47.4123 7.67928C48.5799 8.71297 48.4685 10.0923 48.4685 11.5932V15.1391C48.4685 16.2048 48.9342 16.6721 49.3729 17.2481C49.5248 17.4529 49.5585 17.6993 49.3628 17.853C48.8735 18.2402 48.0029 18.9603 47.5237 19.3635L47.5203 19.3571" fill="white"/>
<path fill-rule="evenodd" clip-rule="evenodd" d="M14.9235 13.8111C14.9235 14.6976 14.9471 15.4368 14.4748 16.2241C14.0936 16.8642 13.4897 17.2578 12.815 17.2578C11.894 17.2578 11.3576 16.5921 11.3576 15.6097C11.3576 13.6703 13.1895 13.3183 14.9235 13.3183V13.8111ZM17.3411 19.3571C17.1825 19.4915 16.9531 19.5011 16.7743 19.4115C15.9781 18.7842 15.8365 18.493 15.3979 17.8946C14.0822 19.1683 13.1511 19.5491 11.444 19.5491C9.42659 19.5491 7.85449 18.3682 7.85449 16.0032C7.85449 14.1566 8.91043 12.8989 10.4117 12.2845C11.7139 11.7404 13.5323 11.6444 14.9222 11.494V11.1996C14.9222 10.6587 14.9661 10.0187 14.6321 9.55145C14.3386 9.13221 13.7786 8.95939 13.286 8.95939C12.3718 8.95939 11.5553 9.40423 11.3563 10.3259C11.3158 10.5307 11.1573 10.7323 10.9413 10.7419L8.61355 10.5051C8.41788 10.4635 8.20197 10.3131 8.25595 10.0283C8.79236 7.35286 11.3394 6.54639 13.62 6.54639C14.7873 6.54639 16.3121 6.84081 17.2331 7.67928C18.4004 8.71297 18.2891 10.0923 18.2891 11.5932V15.1391C18.2891 16.2048 18.7546 16.6721 19.1932 17.2481C19.3484 17.4529 19.3821 17.6993 19.1864 17.853C18.6973 18.2402 17.8269 18.9603 17.3478 19.3635L17.3411 19.3571" fill="white"/>
</svg>
