<svg width="32" height="36" viewBox="0 0 32 36" fill="none" xmlns="http://www.w3.org/2000/svg">
<g clip-path="url(#clip0_2165_14531)">
<path d="M24.3955 13.8407C24.2601 13.9442 21.8699 15.2713 21.8699 18.2222C21.8699 21.6354 24.9113 22.8429 25.0023 22.8728C24.9883 22.9464 24.5192 24.5265 23.3988 26.1365C22.3998 27.5533 21.3564 28.9678 19.7692 28.9678C18.1819 28.9678 17.7735 28.0593 15.9412 28.0593C14.1555 28.0593 13.5206 28.9977 12.0688 28.9977C10.617 28.9977 9.60393 27.6867 8.43919 26.0767C7.09005 24.1861 6 21.249 6 18.4614C6 13.9902 8.95037 11.6189 11.8541 11.6189C13.3969 11.6189 14.683 12.6171 15.6517 12.6171C16.5737 12.6171 18.0115 11.5591 19.7668 11.5591C20.4321 11.5591 22.8222 11.6189 24.3955 13.8407ZM18.9335 9.6662C19.6595 8.8175 20.173 7.6399 20.173 6.4623C20.173 6.299 20.159 6.1334 20.1286 6C18.9475 6.0437 17.5424 6.7751 16.6951 7.7434C16.0299 8.4886 15.409 9.6662 15.409 10.8599C15.409 11.0393 15.4393 11.2187 15.4533 11.2762C15.528 11.29 15.6494 11.3061 15.7708 11.3061C16.8305 11.3061 18.1633 10.6069 18.9335 9.6662Z" fill="white"/>
</g>
<defs>
<clipPath id="clip0_2165_14531">
<rect width="19" height="23" fill="white" transform="translate(6 6)"/>
</clipPath>
</defs>
</svg>
