<svg width="88" height="36" viewBox="0 0 88 36" fill="none" xmlns="http://www.w3.org/2000/svg">
<g clip-path="url(#clip0_1184_1347)">
<g clip-path="url(#clip1_1184_1347)">
<mask id="mask0_1184_1347" style="mask-type:luminance" maskUnits="userSpaceOnUse" x="4" y="10" width="79" height="15">
<path d="M4.16602 10.9037H82.8501V24.2544H4.16602V10.9037Z" fill="white"/>
</mask>
<g mask="url(#mask0_1184_1347)">
<mask id="mask1_1184_1347" style="mask-type:luminance" maskUnits="userSpaceOnUse" x="4" y="10" width="79" height="15">
<path d="M4.16602 24.2544H82.8502V10.9037H4.16602V24.2544Z" fill="white"/>
</mask>
<g mask="url(#mask1_1184_1347)">
<path d="M35.0215 12.365C35.0215 11.7023 35.5564 11.1663 36.2148 11.1663C36.8755 11.1663 37.4125 11.7023 37.4125 12.365C37.4125 13.0269 36.8755 13.5635 36.2148 13.5635C35.5564 13.5635 35.0215 13.0269 35.0215 12.365Z" fill="white"/>
<path d="M53.8867 20.3382C53.8867 19.6752 54.4213 19.1386 55.0798 19.1386C55.7402 19.1386 56.2771 19.6752 56.2771 20.3382C56.2771 20.9995 55.7402 21.5366 55.0798 21.5366C54.4213 21.5366 53.8867 20.9995 53.8867 20.3382Z" fill="white"/>
<path d="M15.3992 19.8203C14.3694 19.8203 13.6538 19.0025 13.6538 17.8338C13.6538 16.6655 14.3694 15.8483 15.3992 15.8483C16.4348 15.8483 17.1582 16.6655 17.1582 17.8338C17.1582 19.0209 16.4499 19.8203 15.3992 19.8203ZM15.3992 14.1025C13.2207 14.1025 11.6396 15.6722 11.6396 17.8338C11.6396 19.9955 13.2207 21.5649 15.3992 21.5649C17.5858 21.5649 19.1734 19.9955 19.1734 17.8338C19.1734 15.6722 17.5858 14.1025 15.3992 14.1025Z" fill="white"/>
<path d="M32.7061 18.0205C32.6214 17.8612 32.5243 17.7262 32.4209 17.6192L32.355 17.5493L32.4243 17.4828C32.5243 17.3774 32.6265 17.2524 32.7251 17.1076L34.6476 14.2497H32.3138L30.8693 16.4852C30.7876 16.6051 30.6225 16.6656 30.3754 16.6656H30.0462V12.4391C30.0462 11.5937 29.5195 11.4787 28.9506 11.4787H27.9766L27.9782 21.4551H30.0462V18.4625H30.2399C30.4756 18.4625 30.6362 18.4898 30.7098 18.6179L31.8505 20.7711C32.1692 21.3554 32.4868 21.4551 33.0842 21.4551H34.6689L33.4886 19.5027L32.7061 18.0205Z" fill="white"/>
<path d="M42.745 14.0867C41.6931 14.0867 41.022 14.554 40.6459 14.9491L40.5203 15.0761L40.476 14.9034C40.3655 14.4801 39.9931 14.2472 39.4327 14.2472H38.5059L38.5117 21.4526H40.5655V18.1317C40.5655 17.807 40.6078 17.5253 40.6936 17.2682C40.9222 16.4901 41.56 16.0064 42.357 16.0064C42.9982 16.0064 43.2487 16.3447 43.2487 17.219V20.3573C43.2487 21.1035 43.5938 21.4526 44.3406 21.4526H45.318L45.3147 16.8699C45.3147 15.0491 44.4261 14.0867 42.745 14.0867Z" fill="white"/>
<path d="M36.2421 14.2502H35.2686L35.2752 19.8214L35.2746 21.4542H36.3137C36.3267 21.4542 36.3372 21.4556 36.3503 21.4556L36.8343 21.4542H37.3161V21.4513H37.3194L37.3236 15.3441C37.3236 14.6072 36.9706 14.2502 36.2421 14.2502Z" fill="white"/>
<path d="M23.4671 19.8203C22.4374 19.8203 21.7204 19.0025 21.7204 17.8338C21.7204 16.6655 22.4374 15.8483 23.4671 15.8483C24.5005 15.8483 25.226 16.6655 25.226 17.8338C25.226 19.0209 24.5179 19.8203 23.4671 19.8203ZM23.4671 14.1025C21.2864 14.1025 19.7051 15.6722 19.7051 17.8338C19.7051 19.9955 21.2864 21.5649 23.4671 21.5649C25.6515 21.5649 27.2417 19.9955 27.2417 17.8338C27.2417 15.6722 25.6515 14.1025 23.4671 14.1025Z" fill="white"/>
</g>
</g>
<mask id="mask2_1184_1347" style="mask-type:luminance" maskUnits="userSpaceOnUse" x="4" y="10" width="79" height="15">
<path d="M4.16602 10.9037H82.8501V24.2544H4.16602V10.9037Z" fill="white"/>
</mask>
<g mask="url(#mask2_1184_1347)">
<mask id="mask3_1184_1347" style="mask-type:luminance" maskUnits="userSpaceOnUse" x="4" y="11" width="79" height="14">
<path d="M4.16602 11.1664H82.8334V24.2373H4.16602V11.1664Z" fill="white"/>
</mask>
<g mask="url(#mask3_1184_1347)">
<mask id="mask4_1184_1347" style="mask-type:luminance" maskUnits="userSpaceOnUse" x="4" y="10" width="79" height="15">
<path d="M4.16602 24.2544H82.8502V10.9037H4.16602V24.2544Z" fill="white"/>
</mask>
<g mask="url(#mask4_1184_1347)">
<path d="M67.492 19.8203C66.4628 19.8203 65.7453 19.0025 65.7453 17.8338C65.7453 16.6655 66.4628 15.8483 67.492 15.8483C68.5256 15.8483 69.2514 16.6655 69.2514 17.8338C69.2514 19.0209 68.543 19.8203 67.492 19.8203ZM67.492 14.1025C65.3118 14.1025 63.7305 15.6722 63.7305 17.8338C63.7305 19.9955 65.3118 21.5649 67.492 21.5649C69.6767 21.5649 71.2665 19.9955 71.2665 17.8338C71.2665 15.6722 69.6767 14.1025 67.492 14.1025Z" fill="white"/>
<path d="M49.6462 19.503C48.5233 19.503 48.1236 18.5233 48.1236 17.6052C48.1236 17.2007 48.2259 15.8824 49.5383 15.8824C50.1905 15.8824 51.0597 16.0693 51.0597 17.6731C51.0597 19.1857 50.2904 19.503 49.6462 19.503ZM52.126 14.2306C51.7363 14.2306 51.4363 14.386 51.286 14.6698L51.2292 14.78L51.1341 14.6973C50.8025 14.4104 50.2081 14.0701 49.2428 14.0701C47.3223 14.0701 46.0293 15.5126 46.0293 17.6592C46.0293 19.8033 47.3672 21.3017 49.2815 21.3017C49.9353 21.3017 50.4521 21.1491 50.8617 20.839L51.0202 20.7199V20.9202C51.0202 21.8826 50.3978 22.4135 49.2696 22.4135C48.7213 22.4135 48.2222 22.28 47.8885 22.159C47.4527 22.0275 47.1973 22.1363 47.0206 22.5734L46.8576 22.9768L46.6269 23.5659L46.7698 23.642C47.4919 24.0252 48.4318 24.2539 49.2815 24.2539C51.0307 24.2539 53.073 23.3586 53.073 20.839L53.0805 14.2306H52.126Z" fill="white"/>
</g>
</g>
</g>
<mask id="mask5_1184_1347" style="mask-type:luminance" maskUnits="userSpaceOnUse" x="4" y="10" width="79" height="15">
<path d="M4.16602 10.9037H82.8501V24.2544H4.16602V10.9037Z" fill="white"/>
</mask>
<g mask="url(#mask5_1184_1347)">
<mask id="mask6_1184_1347" style="mask-type:luminance" maskUnits="userSpaceOnUse" x="4" y="10" width="79" height="15">
<path d="M4.16602 24.2544H82.8502V10.9037H4.16602V24.2544Z" fill="white"/>
</mask>
<g mask="url(#mask6_1184_1347)">
<path d="M7.7505 19.7373L6.07857 19.7357V17.7367C6.07857 17.3095 6.24419 17.0874 6.6103 17.0363H7.7505C8.56432 17.0363 9.09014 17.5496 9.09072 18.3798C9.09014 19.232 8.57739 19.7368 7.7505 19.7373ZM6.07857 14.345V13.819C6.07857 13.3585 6.27341 13.1395 6.70097 13.1114H7.55647C8.29019 13.1114 8.72965 13.5505 8.72965 14.2851C8.72965 14.8453 8.42883 15.4989 7.58345 15.4989H6.07857V14.345ZM9.8858 16.34L9.58352 16.1701L9.84738 15.9446C10.1542 15.6807 10.6686 15.0876 10.6686 14.0627C10.6686 12.4947 9.45234 11.4826 7.56983 11.4826H5.42152L5.17693 11.482C4.61881 11.5025 4.17226 11.9564 4.16602 12.518V21.4184H5.15192C5.15442 21.4189 5.15526 21.4184 5.15609 21.4189L7.61227 21.4184C9.70493 21.4184 11.0556 20.2793 11.0556 18.515C11.0556 17.5651 10.6195 16.753 9.8858 16.34Z" fill="white"/>
<path d="M80.442 14.1097C79.5898 14.1097 78.766 14.5088 78.2371 15.178L78.0882 15.3666L77.9715 15.1556C77.5911 14.4619 76.9364 14.1097 76.0259 14.1097C75.0713 14.1097 74.4309 14.6423 74.1335 14.959L73.9389 15.1698L73.864 14.8926C73.7554 14.4935 73.4001 14.2736 72.8618 14.2736H71.9986L71.9902 21.4512H73.9517V18.2828C73.9517 18.0053 73.9861 17.7306 74.0556 17.4434C74.2431 16.6779 74.7576 15.8544 75.6225 15.9368C76.156 15.9879 76.4164 16.4001 76.4164 17.1963V21.4512H78.3918V18.2828C78.3918 17.936 78.4242 17.6763 78.5024 17.4158C78.6614 16.685 79.1985 15.9356 80.0331 15.9356C80.637 15.9356 80.8603 16.2776 80.8603 17.1963V20.4019C80.8603 21.1271 81.1838 21.4512 81.9084 21.4512H82.8317L82.8333 16.869C82.8333 15.0386 82.0278 14.1097 80.442 14.1097Z" fill="white"/>
<path d="M62.595 18.9592C62.5892 18.9663 61.7451 19.8563 60.6339 19.8563C59.6215 19.8563 58.5986 19.235 58.5986 17.8483C58.5986 16.651 59.3917 15.8141 60.5268 15.8141C60.8955 15.8141 61.3148 15.9462 61.3804 16.1683L61.3901 16.2058C61.5412 16.7095 61.9989 16.7365 62.0889 16.7365L63.1635 16.7376V15.7983C63.1635 14.5592 61.5874 14.1098 60.5268 14.1098C58.2589 14.1098 56.6133 15.6889 56.6133 17.8634C56.6133 20.037 58.241 21.6138 60.4854 21.6138C62.4326 21.6138 63.4915 20.3338 63.5014 20.321L63.558 20.2517L62.707 18.8399L62.595 18.9592Z" fill="white"/>
</g>
</g>
</g>
</g>
<defs>
<clipPath id="clip0_1184_1347">
<rect width="87.7088" height="36" fill="white"/>
</clipPath>
<clipPath id="clip1_1184_1347">
<rect width="79" height="13.404" fill="white" transform="translate(4 11)"/>
</clipPath>
</defs>
</svg>
