<svg width="98" height="36" viewBox="0 0 98 36" fill="none" xmlns="http://www.w3.org/2000/svg">
<g clip-path="url(#clip0_953_1843)">
<mask id="mask0_953_1843" style="mask-type:luminance" maskUnits="userSpaceOnUse" x="3" y="7" width="22" height="22">
<path d="M3 7H24.8283V28.9992H3V7Z" fill="white"/>
</mask>
<g mask="url(#mask0_953_1843)">
<path d="M5.11636 28.9992C4.55559 28.9996 4.01761 28.7752 3.62074 28.3753C3.22387 27.9755 3.00059 27.4329 3 26.867L3 9.13291C3.00019 8.85262 3.05509 8.57511 3.16155 8.31623C3.26801 8.05734 3.42396 7.82216 3.62048 7.6241C3.817 7.42604 4.05025 7.26899 4.30692 7.1619C4.56358 7.05482 4.83863 6.9998 5.11636 7H22.7119C22.9896 6.9998 23.2647 7.05482 23.5214 7.1619C23.778 7.26899 24.0113 7.42604 24.2078 7.6241C24.4043 7.82216 24.5603 8.05734 24.6667 8.31623C24.7732 8.57511 24.8281 8.85262 24.8283 9.13291V26.867C24.8281 27.1473 24.7732 27.4248 24.6667 27.6837C24.5603 27.9426 24.4043 28.1778 24.2078 28.3758C24.0113 28.5739 23.778 28.7309 23.5214 28.838C23.2647 28.9451 22.9896 29.0001 22.7119 28.9999L5.11636 28.9992Z" fill="#EEEEEF"/>
</g>
<path d="M5.07729 28.2966C4.71258 28.2968 4.36272 28.1508 4.10466 27.8907C3.8466 27.6306 3.70147 27.2777 3.70117 26.9096V9.09289C3.70127 8.91061 3.73694 8.73013 3.80615 8.56176C3.87536 8.39339 3.97675 8.24042 4.10453 8.1116C4.23232 7.98277 4.38399 7.88061 4.5509 7.81094C4.7178 7.74128 4.89667 7.70547 5.07729 7.70557H22.7555C22.9361 7.70547 23.1149 7.74128 23.2818 7.81094C23.4488 7.88061 23.6004 7.98277 23.7282 8.1116C23.856 8.24042 23.9574 8.39339 24.0266 8.56176C24.0958 8.73013 24.1315 8.91061 24.1316 9.09289V26.9096C24.1313 27.2777 23.9861 27.6306 23.7281 27.8907C23.47 28.1508 23.1202 28.2968 22.7555 28.2966H5.07729Z" fill="#EEEEEF"/>
<path d="M17.1414 23.6747L12.8998 24.9087C12.7271 24.9588 12.5417 24.9377 12.3845 24.8499C12.2272 24.7622 12.1109 24.615 12.0611 24.4408L8.85259 13.2365C8.82801 13.1503 8.82048 13.0601 8.83043 12.971C8.84039 12.8819 8.86764 12.7957 8.91062 12.7172C8.95361 12.6387 9.01148 12.5696 9.08095 12.5137C9.15041 12.4578 9.23011 12.4163 9.31548 12.3915L13.7042 11.1147C14.2004 10.9665 14.7278 10.9624 15.2262 11.1029C15.7245 11.2434 16.1735 11.5228 16.5217 11.9091C16.8068 12.2068 17.0288 12.56 17.174 12.9473C17.3192 13.3345 17.3847 13.7475 17.3664 14.1611C17.3481 14.5747 17.2464 14.9802 17.0676 15.3529C16.8887 15.7255 16.6365 16.0574 16.3263 16.3283C17.202 16.3788 18.0318 16.7404 18.6687 17.3491C19.3056 17.9578 19.7085 18.7743 19.8061 19.6541C19.9037 20.5338 19.6897 21.4201 19.202 22.1559C18.7143 22.8917 17.9844 23.43 17.1414 23.6747Z" fill="#4B205A"/>
<path d="M12.6153 25.7941C12.3219 25.793 12.0366 25.6963 11.8021 25.5184C11.5675 25.3404 11.3962 25.0907 11.3137 24.8065L8.02666 13.329C7.97738 13.1567 7.96224 12.9762 7.98211 12.798C8.00197 12.6197 8.05645 12.4472 8.14243 12.2902C8.2284 12.1332 8.3442 11.9949 8.48318 11.8831C8.62217 11.7713 8.78162 11.6882 8.95243 11.6387L13.4607 10.3269C13.7428 10.2472 14.0345 10.2079 14.3274 10.21C14.889 10.2064 15.4448 10.3244 15.9573 10.556C16.4698 10.7876 16.9271 11.1275 17.2984 11.5527C17.7936 12.1745 18.0973 12.9291 18.1722 13.7232C18.2323 14.4437 18.0884 15.1666 17.7572 15.8077C18.669 16.1677 19.442 16.8138 19.9625 17.6507C20.524 18.5774 20.7581 19.6688 20.6264 20.7469C20.5076 21.5895 20.1435 22.3774 19.5804 23.0109C19.0434 23.67 18.3298 24.1591 17.5249 24.4198L12.9893 25.7401C12.8677 25.7756 12.7419 25.7938 12.6153 25.7941ZM14.4894 11.0014C14.226 11.0017 13.9641 11.0393 13.7111 11.1131L9.315 12.3913C9.22954 12.4162 9.14976 12.4577 9.08022 12.5136C9.01068 12.5696 8.95275 12.6388 8.90972 12.7173C8.8667 12.7959 8.83944 12.8822 8.82949 12.9714C8.81954 13.0606 8.8271 13.1508 8.85174 13.2371L12.0606 24.4414C12.1106 24.6154 12.227 24.7623 12.3843 24.8498C12.5415 24.9374 12.7268 24.9583 12.8993 24.9082L17.1409 23.6738C17.9839 23.4291 18.7138 22.8912 19.2015 22.1555C19.6893 21.4197 19.9033 20.5335 19.8057 19.6537C19.7081 18.774 19.3053 17.9575 18.6684 17.3487C18.0316 16.74 17.2019 16.3783 16.3261 16.3277C16.6267 16.0666 16.873 15.748 17.0507 15.3901C17.2284 15.0323 17.334 14.6425 17.3615 14.2432C17.3832 13.816 17.3196 13.3887 17.1745 12.9868C17.0294 12.5848 16.8058 12.2164 16.5168 11.9033C16.2606 11.6178 15.9476 11.3898 15.5983 11.2344C15.249 11.079 14.8711 10.9996 14.4894 11.0014Z" fill="#813588"/>
<path d="M18.462 20.6868C18.4612 19.7758 18.1045 18.9019 17.4692 18.2547C16.8339 17.6076 15.9713 17.2394 15.0687 17.2302C15.3652 16.9709 15.6067 16.6539 15.779 16.2982C15.9513 15.9425 16.0508 15.5554 16.0714 15.16C16.0921 14.7646 16.0335 14.3691 15.8993 13.9971C15.765 13.6251 15.5578 13.2842 15.29 12.9949C14.9537 12.608 14.5148 12.3263 14.0251 12.1828C13.5354 12.0393 13.0153 12.04 12.526 12.1849L8.85645 13.2525L12.0605 24.44C12.1105 24.6141 12.227 24.761 12.3842 24.8484C12.5415 24.9359 12.7267 24.9567 12.8992 24.9065L15.9107 24.0302L15.9543 24.0164C16.6752 23.8138 17.3106 23.3786 17.7635 22.7773C18.2164 22.176 18.4618 21.4417 18.4623 20.6864" fill="#813588"/>
<mask id="mask1_953_1843" style="mask-type:luminance" maskUnits="userSpaceOnUse" x="29" y="9" width="66" height="18">
<path d="M29.1787 9.79199H94.9937V26.2143H29.1787V9.79199Z" fill="white"/>
</mask>
<g mask="url(#mask1_953_1843)">
<path d="M89.8064 26.2137C88.7484 26.227 87.7013 25.9963 86.7451 25.5392C85.955 25.1551 85.2579 24.601 84.7028 23.9158C84.3672 23.5446 84.1679 23.0685 84.1382 22.5669C84.1224 22.3715 84.1479 22.1749 84.213 21.9902C84.2781 21.8055 84.3813 21.6369 84.5157 21.4954C84.6502 21.3539 84.8129 21.2429 84.993 21.1696C85.1732 21.0962 85.3667 21.0623 85.5608 21.0701C86.1413 21.0701 86.6385 21.5756 86.9623 21.9556C87.9102 22.8862 88.7545 23.2838 89.7857 23.2838C91.1814 23.2838 91.9818 22.6614 91.9818 21.5763C91.9762 21.2512 91.8889 20.9327 91.728 20.6509C91.5671 20.3691 91.3379 20.1332 91.0619 19.9653C90.3947 19.5312 89.6824 19.1721 88.9378 18.8944C86.9136 18.0405 84.6191 17.0726 84.6191 14.2615C84.6074 13.5699 84.7451 12.884 85.0226 12.2514C85.2677 11.7141 85.6329 11.2415 86.0897 10.8708C87.0278 10.1588 88.1727 9.77928 89.3465 9.79133C90.4876 9.76415 91.6149 10.0482 92.6095 10.6136C93.5456 11.1586 94.6381 12.1867 94.6381 13.2911C94.6386 13.4664 94.6004 13.6397 94.5263 13.7983C94.4521 13.9569 94.3439 14.0968 94.2095 14.2079C93.9289 14.4377 93.5772 14.5607 93.2159 14.5556C92.5737 14.5556 92.1832 14.1428 91.8047 13.7437C91.6655 13.5886 91.515 13.4443 91.3544 13.3119C90.7837 12.8791 90.0804 12.6626 89.3675 12.7004C88.9092 12.6751 88.4569 12.8152 88.0917 13.0957C87.9377 13.237 87.8165 13.4109 87.7369 13.605C87.6573 13.7991 87.6213 14.0085 87.6314 14.2183C87.6314 14.6747 87.8748 15.0566 88.3978 15.4203C88.978 15.7805 89.5898 16.0863 90.2254 16.3338C92.3502 17.2513 94.9944 18.3933 94.9944 21.7442C95.0108 22.3782 94.8806 23.0073 94.6142 23.5816C94.3477 24.156 93.9523 24.6598 93.4593 25.053C92.4048 25.8418 91.1185 26.2505 89.8064 26.2137ZM34.9904 26.1091H34.8473L30.6847 26.0663C30.4846 26.0731 30.2851 26.0396 30.098 25.9679C29.9108 25.8962 29.7396 25.7877 29.5944 25.6486C29.4567 25.5062 29.3489 25.3371 29.2774 25.1517C29.206 24.9662 29.1724 24.768 29.1787 24.5691V11.2881C29.1715 11.0879 29.2046 10.8883 29.276 10.7014C29.3475 10.5145 29.4558 10.3442 29.5944 10.2008C29.7405 10.0636 29.912 9.95675 30.0991 9.88649C30.2862 9.81623 30.4852 9.78389 30.6847 9.79133H34.8683C35.6843 9.77991 36.4975 9.89144 37.2809 10.1223C37.9102 10.3083 38.4951 10.6226 38.9993 11.0458C39.4496 11.4456 39.8062 11.9415 40.0432 12.4975C40.2802 13.0536 40.3916 13.6559 40.3695 14.2608C40.3695 15.5964 39.7111 16.7335 38.4656 17.5491C38.4598 17.5529 38.4551 17.558 38.4518 17.564C38.4486 17.5701 38.4468 17.5768 38.4468 17.5837C38.447 17.5898 38.4489 17.5956 38.4522 17.6007C38.4555 17.6057 38.4602 17.6098 38.4656 17.6124C39.2643 17.926 39.9569 18.4648 40.4606 19.1646C40.9409 19.8664 41.194 20.7011 41.185 21.554C41.2154 22.1583 41.1097 22.7616 40.8757 23.3187C40.6418 23.8757 40.2857 24.372 39.8343 24.7701C38.7949 25.659 37.1651 26.1091 34.9904 26.1091ZM32.17 12.5742V23.241H35.2445C35.9878 23.2868 36.7288 23.1217 37.3838 22.7641C37.6151 22.6203 37.8043 22.4169 37.932 22.1748C38.0598 21.9328 38.1215 21.6609 38.1107 21.3869C38.1107 20.0513 37.4926 19.4859 35.8306 19.2997C35.3997 19.2666 34.9912 19.0927 34.667 18.8043C34.5227 18.6561 34.4103 18.4795 34.337 18.2853C34.2637 18.0912 34.231 17.8839 34.2409 17.6764C34.2296 17.4788 34.263 17.2811 34.3387 17.0984C34.4144 16.9158 34.5303 16.7529 34.6776 16.6222C35.0213 16.3619 35.4256 16.1952 35.8516 16.1383C36.8648 15.9571 37.3786 15.3968 37.3786 14.4729C37.4044 13.9697 37.2357 13.4759 36.908 13.0957C36.7213 12.9148 36.4994 12.7751 36.2563 12.6854C36.0132 12.5956 35.7544 12.5579 35.4961 12.5745L32.17 12.5742ZM48.4687 26.0663C48.2726 26.0671 48.0786 26.0263 47.8992 25.9464C47.7199 25.8665 47.5593 25.7493 47.4278 25.6024C47.1243 25.2456 46.9656 24.7863 46.9834 24.3164V19.6362L42.6533 12.6382C42.3976 12.2736 42.2592 11.8386 42.2568 11.3919C42.2567 11.2065 42.2962 11.0232 42.3725 10.8545C42.4489 10.6859 42.5604 10.5358 42.6994 10.4145C43.0018 10.155 43.3877 10.0159 43.7845 10.0232C44.4362 10.0232 44.791 10.3858 45.1234 10.9296L48.4912 16.5798L51.8579 10.9296C52.1902 10.3869 52.5447 10.0232 53.1964 10.0232C53.5934 10.0163 53.9793 10.1559 54.2815 10.4159C54.4205 10.5372 54.532 10.6873 54.6083 10.856C54.6847 11.0247 54.7242 11.208 54.7241 11.3934C54.7209 11.8395 54.5818 12.2738 54.3258 12.6375L49.996 19.6355V24.3164C49.9964 25.3795 49.397 26.0663 48.4687 26.0663ZM58.1742 26.003C56.2275 26.003 55.0808 25.1591 54.4615 24.4507C53.8077 23.7237 53.4266 22.7887 53.3841 21.8079C53.3763 21.5929 53.4141 21.3788 53.4949 21.1798C53.5758 20.9808 53.6978 20.8015 53.8529 20.6539C54.137 20.3985 54.5052 20.2593 54.8856 20.2635C54.9284 20.2635 54.9716 20.2635 55.014 20.2687C55.8284 20.3353 56.0508 20.9238 56.2861 21.5466C56.5697 22.297 56.863 23.0727 58.1978 23.0727H58.256C58.5633 23.0946 58.8712 23.0413 59.1537 22.9175C59.4362 22.7937 59.685 22.6029 59.8789 22.3614C60.2219 21.8987 60.3886 21.2004 60.3886 20.227V11.7731C60.3886 10.6776 60.9515 10.0236 61.8946 10.0236C62.0975 10.0176 62.2993 10.0559 62.4861 10.136C62.673 10.216 62.8405 10.3359 62.9771 10.4874C63.271 10.8485 63.4218 11.3067 63.4005 11.7735V20.1633C63.4005 22.0465 62.9579 23.5023 62.0878 24.4902C61.2071 25.4941 59.8892 26.003 58.1749 26.003H58.1742ZM72.2721 25.9818C70.4165 25.9818 68.974 25.4189 67.984 24.3067C66.9708 23.1699 66.457 21.4844 66.457 19.2971V11.7731C66.4349 11.3074 66.5831 10.8497 66.8735 10.487C67.0145 10.3401 67.1833 10.2232 67.3699 10.1434C67.5565 10.0636 67.7572 10.0225 67.9599 10.0225C68.1625 10.0225 68.3632 10.0636 68.5498 10.1434C68.7364 10.2232 68.9053 10.3401 69.0463 10.487C69.3403 10.8481 69.4913 11.3063 69.47 11.7731V19.069C69.47 20.5292 69.7028 21.541 70.1812 22.1626C70.6267 22.7414 71.2913 23.0109 72.2728 23.0109C73.2543 23.0109 73.9189 22.7414 74.3648 22.1626C74.8443 21.541 75.0759 20.5292 75.0759 19.069V11.7731C75.0547 11.3063 75.2057 10.8481 75.4997 10.487C75.6407 10.3401 75.8095 10.2232 75.9962 10.1434C76.1828 10.0636 76.3834 10.0225 76.5861 10.0225C76.7888 10.0225 76.9894 10.0636 77.1761 10.1434C77.3627 10.2232 77.5315 10.3401 77.6725 10.487C77.9626 10.8498 78.1105 11.3075 78.0882 11.7731V19.299C78.0882 21.4863 77.5744 23.1703 76.5612 24.3086C75.5713 25.4189 74.1284 25.9836 72.2728 25.9836L72.2721 25.9818ZM81.3524 15.6098C80.5177 15.6098 80.0766 14.8005 80.0766 13.2699V12.0679C80.0766 10.6847 80.5749 10.0206 81.6449 9.9808C81.8616 9.9644 82.0792 9.99545 82.2829 10.0718C82.4867 10.1482 82.6716 10.2682 82.8251 10.4234C83.0897 10.7648 83.2202 11.1928 83.1914 11.6253C83.1017 12.7438 82.8332 13.8402 82.3962 14.872C82.3123 15.0841 82.169 15.2669 81.9837 15.3979C81.7984 15.529 81.5793 15.6026 81.3531 15.6098H81.3524Z" fill="#EEEEEF"/>
</g>
<path d="M67.9663 10.3052C68.8448 10.3052 69.4726 10.9589 69.4726 12.0548V11.7715C69.4726 10.6752 68.8456 10.022 67.9663 10.022C67.0667 10.022 66.46 10.6756 66.46 11.7715V12.0548C66.46 10.9585 67.0667 10.3052 67.9663 10.3052Z" fill="#FEFEFE"/>
<path d="M69.4736 19.3487C69.4736 22.3411 70.4355 23.2907 72.2768 23.2907C74.118 23.2907 75.0799 22.3411 75.0799 19.3487V19.0654C75.0799 22.059 74.118 23.0078 72.2768 23.0078C70.4355 23.0078 69.4736 22.059 69.4736 19.0654V19.3487Z" fill="#FEFEFE"/>
<mask id="mask2_953_1843" style="mask-type:luminance" maskUnits="userSpaceOnUse" x="87" y="14" width="9" height="8">
<path d="M87.6387 14.3418H95.0013V21.8695H87.6387V14.3418Z" fill="white"/>
</mask>
<g mask="url(#mask2_953_1843)">
<path d="M87.6453 14.3418C87.6413 14.3935 87.6387 14.446 87.6387 14.5007C87.6387 16.9646 94.8601 16.4513 94.998 21.871C94.998 21.829 95.0013 21.7876 95.0013 21.7452C95.0013 16.2521 87.8876 16.6869 87.6453 14.3418Z" fill="#FEFEFE"/>
</g>
<path d="M43.7877 10.305C44.4369 10.305 44.7917 10.6635 45.1262 11.2129L48.494 16.8612L51.8618 11.2129C52.1964 10.6635 52.5512 10.305 53.2003 10.305C53.5637 10.2812 53.9225 10.3971 54.2046 10.6294C54.4868 10.8617 54.6713 11.1932 54.721 11.5572C54.7247 11.504 54.7273 11.4489 54.7273 11.3923C54.7187 11.2003 54.672 11.012 54.5901 10.8384C54.5082 10.6649 54.3927 10.5097 54.2503 10.3819C54.108 10.2542 53.9418 10.1565 53.7614 10.0946C53.5811 10.0328 53.3903 10.008 53.2003 10.0218C52.5512 10.0218 52.1964 10.3802 51.8618 10.9282L48.494 16.5783L45.1262 10.9282C44.7917 10.3802 44.4369 10.0218 43.7877 10.0218C43.5978 10.008 43.407 10.0328 43.2267 10.0946C43.0464 10.1564 42.8801 10.2541 42.7378 10.3818C42.5955 10.5095 42.48 10.6647 42.398 10.8382C42.3161 11.0117 42.2694 11.2 42.2607 11.392C42.2607 11.4485 42.2633 11.5036 42.267 11.5569C42.3168 11.1929 42.5013 10.8614 42.7834 10.6291C43.0656 10.3969 43.4244 10.2811 43.7877 10.305Z" fill="#FEFEFE"/>
<path d="M85.5625 21.3512C86.1065 21.3512 86.5875 21.7938 86.9641 22.2368C87.7799 23.0378 88.6164 23.5649 89.7878 23.5649C91.1057 23.5649 91.9842 22.9958 91.9842 21.8575C91.9842 21.805 91.982 21.7536 91.978 21.7034C91.9127 22.7549 91.0559 23.282 89.7882 23.282C88.6168 23.282 87.7803 22.7549 86.9644 21.9539C86.5875 21.5106 86.1065 21.068 85.5625 21.068C85.3684 21.0603 85.175 21.0942 84.9949 21.1675C84.8148 21.2409 84.6521 21.352 84.5177 21.4934C84.3833 21.6349 84.2801 21.8035 84.2151 21.9882C84.15 22.1729 84.1245 22.3694 84.1403 22.5647C84.1403 22.6049 84.1436 22.647 84.1473 22.6891C84.1514 22.5069 84.1915 22.3274 84.2652 22.161C84.339 21.9947 84.4448 21.8449 84.5766 21.7203C84.7083 21.5957 84.8634 21.4989 85.0327 21.4355C85.202 21.3722 85.3821 21.3435 85.5625 21.3512Z" fill="#FEFEFE"/>
<path d="M89.3494 10.0732C90.4906 10.046 91.6179 10.3301 92.6125 10.8954C93.5139 11.4203 94.5466 12.3896 94.6333 13.4333C94.6388 13.3857 94.6416 13.3377 94.6418 13.2897C94.6418 12.1934 93.5541 11.1605 92.6132 10.6122C91.6185 10.0466 90.4908 9.76247 89.3494 9.7899C86.9649 9.83196 84.6221 11.1389 84.6221 14.2593C84.6221 14.3081 84.6239 14.355 84.6254 14.4027C84.6958 11.3842 87.001 10.1145 89.3494 10.0732Z" fill="#FEFEFE"/>
<path d="M53.3872 21.8068C53.3872 21.8604 53.3894 21.9159 53.3927 21.9725C53.3991 21.7686 53.4472 21.5683 53.5341 21.3841C53.621 21.2 53.7447 21.036 53.8974 20.9024C54.0502 20.7689 54.2287 20.6687 54.4217 20.6082C54.6147 20.5477 54.818 20.5282 55.0189 20.5509C56.8177 20.6998 55.73 23.397 58.2609 23.355C59.7459 23.3338 60.395 22.4274 60.395 20.5089V20.2256C60.395 22.1441 59.7462 23.0505 58.2613 23.0717C55.73 23.1138 56.8173 20.4154 55.0189 20.2676C54.808 20.2438 54.5944 20.2663 54.3929 20.3337C54.1915 20.4011 54.0068 20.5117 53.8518 20.658C53.6967 20.8043 53.5749 20.9827 53.4947 21.181C53.4145 21.3793 53.3778 21.5928 53.3872 21.8068Z" fill="#FEFEFE"/>
<path d="M76.5844 10.022C75.7051 10.022 75.0781 10.6756 75.0781 11.7715V12.0544C75.0781 10.9585 75.7051 10.3052 76.5844 10.3052C77.484 10.3052 78.0908 10.9585 78.0908 12.0548V11.7715C78.0904 10.6756 77.4837 10.022 76.5844 10.022Z" fill="#FEFEFE"/>
<path d="M81.6491 9.979C80.5404 10.0211 80.0801 10.738 80.0801 12.0661V12.3494C80.0801 11.0213 80.5404 10.3043 81.6491 10.2623C82.6818 10.2623 83.1495 10.8351 83.1927 11.762C83.1952 11.7133 83.1967 11.6667 83.1967 11.6235C83.1967 10.6118 82.7357 9.979 81.6491 9.979Z" fill="#FEFEFE"/>
<path d="M61.9008 10.022C60.9596 10.022 60.3945 10.6756 60.3945 11.7715V12.0544C60.3945 10.9585 60.9596 10.3052 61.9008 10.3052C62.7794 10.3052 63.4072 10.9585 63.4072 12.0548V11.7715C63.4072 10.6752 62.7801 10.022 61.9008 10.022Z" fill="#FEFEFE"/>
<path d="M30.6891 10.0729H34.8724C38.4755 10.0729 40.2942 11.8507 40.3698 14.377C40.3698 14.3376 40.3735 14.2989 40.3735 14.259C40.3735 11.6448 38.5537 9.7896 34.8724 9.7896H30.6891C30.4896 9.77553 30.2895 9.80441 30.102 9.87433C29.9145 9.94425 29.7439 10.0536 29.6014 10.1951C29.459 10.3367 29.348 10.5072 29.2758 10.6953C29.2036 10.8834 29.1719 11.0849 29.1827 11.2864V11.5696C29.1719 11.3682 29.2036 11.1667 29.2758 10.9786C29.348 10.7905 29.459 10.62 29.6014 10.4784C29.7439 10.3369 29.9145 10.2275 30.102 10.1576C30.2895 10.0877 30.4896 10.0588 30.6891 10.0729Z" fill="#FEFEFE"/>
<path d="M35.8539 16.1357C34.8702 16.3255 34.2432 16.7261 34.2432 17.6749C34.2432 17.7252 34.2457 17.7732 34.2491 17.8208C34.3081 16.9706 34.92 16.5991 35.8539 16.419C36.7951 16.2504 37.3808 15.7445 37.3808 14.7536C37.3808 14.7037 37.3782 14.6553 37.3757 14.6069C37.3233 15.5074 36.7512 15.9753 35.8539 16.1357Z" fill="#FEFEFE"/>
<path d="M35.2488 23.5243C37.1298 23.5243 38.1143 22.8707 38.1143 21.6691C38.1143 21.6065 38.1117 21.547 38.1091 21.4878C38.0538 22.6235 37.0764 23.241 35.2488 23.241H32.1738V23.5243H35.2488Z" fill="#FEFEFE"/>
<path d="M38.4697 17.6104C38.4642 17.6079 38.4596 17.604 38.4562 17.599C38.4528 17.594 38.4508 17.5882 38.4505 17.5821C38.4506 17.5752 38.4524 17.5684 38.4557 17.5624C38.4591 17.5563 38.4639 17.5512 38.4697 17.5475L38.473 17.5449C38.4343 17.5743 38.3649 17.6283 38.3041 17.6756C38.2919 17.685 38.2823 17.6975 38.2764 17.7119C38.2705 17.7262 38.2683 17.7418 38.2702 17.7572C38.272 17.7726 38.2778 17.7872 38.287 17.7997C38.2962 17.8121 38.3084 17.822 38.3225 17.8282L38.47 17.8933C39.2555 18.1796 39.936 18.7006 40.4207 19.387C40.9055 20.0733 41.1716 20.8924 41.1835 21.7352C41.1854 21.6745 41.1872 21.6142 41.1872 21.5528C41.1864 21.0935 41.1152 20.6371 40.9763 20.1997C40.7738 19.6081 40.444 19.0692 40.0106 18.6215C39.5772 18.1738 39.051 17.8285 38.4697 17.6104Z" fill="#FEFEFE"/>
</g>
<defs>
<clipPath id="clip0_953_1843">
<rect width="98" height="36" fill="white"/>
</clipPath>
</defs>
</svg>
