<svg width="88" height="36" viewBox="0 0 88 36" fill="none" xmlns="http://www.w3.org/2000/svg">
<g clip-path="url(#clip0_1184_1353)">
<g clip-path="url(#clip1_1184_1353)">
<path d="M33.9673 22.2842H31.5557V31.8412H33.9673V22.2842Z" fill="white"/>
<path d="M53.4133 25.0229C53.3162 24.9725 52.5409 24.5126 51.3874 24.5126C49.8253 24.5126 48.7444 25.5981 48.7444 27.0617C48.7444 28.4818 49.7802 29.6131 51.3874 29.6131C52.521 29.6131 53.3094 29.1631 53.4133 29.1059V31.671C53.1138 31.7558 52.2911 32.0109 51.214 32.0109C48.503 32.0109 46.125 30.1409 46.125 27.0617C46.125 24.2078 48.2792 22.1147 51.214 22.1147C52.3492 22.1147 53.1864 22.3905 53.4133 22.4577V25.0229Z" fill="white"/>
<path d="M28.2404 25.0229C28.1434 24.9725 27.3681 24.5126 26.2146 24.5126C24.6524 24.5126 23.5715 25.5981 23.5715 27.0617C23.5715 28.4818 24.6074 29.6131 26.2146 29.6131C27.3482 29.6131 28.1365 29.1631 28.2404 29.1059V31.671C27.941 31.7558 27.1183 32.0109 26.0412 32.0109C23.3301 32.0109 20.9521 30.1409 20.9521 27.0617C20.9521 24.2078 23.1063 22.1147 26.0412 22.1147C27.1763 22.1147 28.0135 22.3905 28.2404 22.4577V25.0229Z" fill="white"/>
<path d="M60.9992 24.5485C59.5684 24.5485 58.5058 25.6745 58.5058 27.0617C58.5058 28.452 59.5684 29.5772 60.9992 29.5772C62.4284 29.5772 63.494 28.452 63.494 27.0617C63.494 25.6745 62.4284 24.5485 60.9992 24.5485ZM66.0492 27.0617C66.0492 29.7956 63.9386 32.0109 60.9992 32.0109C58.0597 32.0109 55.9521 29.7956 55.9521 27.0617C55.9521 24.3323 58.0597 22.1147 60.9992 22.1147C63.9386 22.1147 66.0492 24.3323 66.0492 27.0617Z" fill="white"/>
<path d="M43.1129 24.4567C43.077 24.4452 42.0618 24.1649 41.2276 24.1649C40.2613 24.1649 39.7358 24.4888 39.7358 24.9479C39.7358 25.5299 40.4446 25.7331 40.8411 25.8584L41.5064 26.07C43.0717 26.5681 43.7851 27.6398 43.7851 28.804C43.7851 31.2049 41.6737 32.0115 39.8282 32.0115C38.5456 32.0115 37.344 31.7755 37.2256 31.7503V29.5511C37.438 29.6045 38.4494 29.9063 39.5028 29.9063C40.7028 29.9063 41.2544 29.5556 41.2544 29.014C41.2544 28.5297 40.7769 28.2502 40.1788 28.0622C40.0329 28.0133 39.8137 27.9446 39.6639 27.8957C38.321 27.471 37.2012 26.6819 37.2012 25.0999C37.2012 23.3124 38.5395 22.1123 40.7624 22.1123C41.9365 22.1123 43.0411 22.3972 43.1129 22.4163V24.4567Z" fill="white"/>
<path d="M18.3948 12.0132C18.3948 11.3548 17.857 10.8208 17.1978 10.8208C16.5385 10.8208 16 11.3548 16 12.0132V14.5218C16 15.1841 16.5385 15.7189 17.1978 15.7189C17.857 15.7189 18.3948 15.1841 18.3948 14.5218V12.0132Z" fill="white"/>
<path d="M24.971 8.72081C24.971 8.06234 24.4332 7.52686 23.774 7.52686C23.114 7.52686 22.5762 8.06234 22.5762 8.72081V14.5226C22.5762 15.1848 23.114 15.7188 23.774 15.7188C24.4332 15.7188 24.971 15.1848 24.971 14.5226V8.72081Z" fill="white"/>
<path d="M31.5481 4.21566C31.5481 3.55718 31.0103 3.02246 30.3511 3.02246C29.6911 3.02246 29.1533 3.55718 29.1533 4.21566V16.9061C29.1533 17.5684 29.6911 18.1032 30.3511 18.1032C31.0103 18.1032 31.5481 17.5684 31.5481 16.9061V4.21566Z" fill="white"/>
<path d="M38.1243 8.72081C38.1243 8.06234 37.5865 7.52686 36.9273 7.52686C36.2673 7.52686 35.7295 8.06234 35.7295 8.72081V14.5226C35.7295 15.1848 36.2673 15.7188 36.9273 15.7188C37.5865 15.7188 38.1243 15.1848 38.1243 14.5226V8.72081Z" fill="white"/>
<path d="M44.6938 12.0132C44.6938 11.3548 44.1598 10.8208 43.5037 10.8208C42.8444 10.8208 42.3066 11.3548 42.3066 12.0132V14.5218C42.3066 15.1841 42.8444 15.7189 43.5037 15.7189C44.1598 15.7189 44.6938 15.1841 44.6938 14.5218V12.0132Z" fill="white"/>
<path d="M44.6965 12.0132C44.6965 11.3548 44.1588 10.8208 43.4995 10.8208C42.8403 10.8208 42.3018 11.3548 42.3018 12.0132V14.5218C42.3018 15.1841 42.8403 15.7189 43.4995 15.7189C44.1588 15.7189 44.6965 15.1841 44.6965 14.5218V12.0132Z" fill="white"/>
<path d="M51.2727 8.72081C51.2727 8.06234 50.7349 7.52686 50.0757 7.52686C49.4157 7.52686 48.8779 8.06234 48.8779 8.72081V14.5226C48.8779 15.1848 49.4157 15.7188 50.0757 15.7188C50.7349 15.7188 51.2727 15.1848 51.2727 14.5226V8.72081Z" fill="white"/>
<path d="M57.8499 4.21566C57.8499 3.55718 57.3121 3.02246 56.6529 3.02246C55.9929 3.02246 55.4551 3.55718 55.4551 4.21566V16.9061C55.4551 17.5684 55.9929 18.1032 56.6529 18.1032C57.3121 18.1032 57.8499 17.5684 57.8499 16.9061V4.21566Z" fill="white"/>
<path d="M64.426 8.72081C64.426 8.06234 63.8883 7.52686 63.229 7.52686C62.569 7.52686 62.0312 8.06234 62.0312 8.72081V14.5226C62.0312 15.1848 62.569 15.7188 63.229 15.7188C63.8883 15.7188 64.426 15.1848 64.426 14.5226V8.72081Z" fill="white"/>
<path d="M70.9956 12.0132C70.9956 11.3548 70.4616 10.8208 69.8054 10.8208C69.1462 10.8208 68.6084 11.3548 68.6084 12.0132V14.5218C68.6084 15.1841 69.1462 15.7189 69.8054 15.7189C70.4616 15.7189 70.9956 15.1841 70.9956 14.5218V12.0132Z" fill="white"/>
<path d="M69.6205 30.5825V30.7322H69.1943V31.8406H69.0194V30.7322H68.5908V30.5825H69.6205Z" fill="white"/>
<path d="M69.71 30.5825H69.9842L70.3608 31.6145H70.3669L70.7313 30.5825H71.0002V31.8406H70.8207V30.8094H70.8145L70.4326 31.8406H70.2668L69.8941 30.8094H69.8857V31.8406H69.71V30.5825Z" fill="white"/>
</g>
</g>
<defs>
<clipPath id="clip0_1184_1353">
<rect width="87.7088" height="36" fill="white"/>
</clipPath>
<clipPath id="clip1_1184_1353">
<rect width="55" height="29.0278" fill="white" transform="translate(16 3)"/>
</clipPath>
</defs>
</svg>
