<svg width="88" height="36" viewBox="0 0 88 36" fill="none" xmlns="http://www.w3.org/2000/svg">
<g clip-path="url(#clip0_953_1733)">
<path d="M44.6627 13.9628V23.6235C44.6627 24.3907 44.0634 24.978 43.3083 24.978C42.5532 24.978 41.9419 24.3787 41.9419 23.6235L41.9539 13.9628H35.3735C33.1081 13.9148 31.2743 15.7367 31.2743 18.0021C31.2743 20.2674 33.1081 22.0534 35.4095 22.1133H37.9385C38.6697 22.1013 39.269 22.7126 39.269 23.4677C39.269 24.2228 38.6697 24.8222 37.9146 24.8341H35.3975C31.6938 24.7622 28.6973 21.7178 28.6973 18.0141C28.6973 14.3104 31.6938 11.3138 35.3855 11.2539H47.5274C48.3065 11.2539 48.8818 11.8532 48.8818 12.6083C48.8818 13.3635 48.2825 13.9628 47.5274 13.9747" fill="#009FE8"/>
<path d="M10.7167 23.6355C10.7167 24.4026 10.1054 24.9899 9.37423 24.9899C8.64307 24.9899 8.00781 24.3906 8.00781 23.6235V12.5963C8.00781 11.8412 8.6191 11.2299 9.35025 11.2419H15.7269C16.47 11.2299 17.1052 11.8412 17.1052 12.5963C17.1052 13.3274 16.47 13.9507 15.7388 13.9627H10.7167M12.5865 16.5157C11.8913 16.5038 11.3759 17.0312 11.3759 17.7024C11.3759 18.3856 11.9153 18.901 12.5745 18.901H15.583C16.2542 18.889 16.7696 18.3856 16.7816 17.7024C16.7936 17.0431 16.2662 16.5157 15.595 16.5157H12.5865Z" fill="#009FE8"/>
<path d="M23.0991 20.2431C23.7583 20.2431 24.3217 20.7705 24.3217 21.4297C24.3217 22.1129 23.7583 22.6163 23.0991 22.6163H21.469C20.8097 22.6163 20.2464 22.1009 20.2464 21.4297C20.2464 20.7705 20.8097 20.2311 21.469 20.2431M19.8389 14.3459L15.6198 23.0239C15.2961 23.7071 15.5718 24.5221 16.243 24.8457C16.9262 25.1694 17.7413 24.8937 18.0649 24.2105L22.284 15.5326L26.5031 24.2225C26.8387 24.9057 27.6538 25.1813 28.325 24.8577C29.0082 24.5341 29.2839 23.719 28.9483 23.0358L24.7292 14.3459L23.4347 11.697C23.4347 11.697 23.159 11.0737 22.272 11.0737C21.3851 11.0737 21.1094 11.697 21.1094 11.697L19.8389 14.3459Z" fill="#009FE8"/>
<path d="M58.566 21.4178C58.566 23.2996 57.0438 24.8339 55.162 24.8339H50.4035C49.6484 24.8339 49.0371 24.2226 49.0371 23.4675C49.0371 22.7123 49.6484 22.149 50.4035 22.113H54.9103C55.3418 22.149 55.6894 21.8493 55.6894 21.4178C55.6894 21.1541 55.5575 20.9264 55.3658 20.7826L50.1638 17.2706C49.8522 16.995 49.0371 16.4796 49.0371 14.8734C49.0371 12.8837 50.6552 11.2656 52.6449 11.2656H56.5644C57.3195 11.2656 57.9308 11.8649 57.9308 12.6201C57.9308 13.3752 57.3195 13.9745 56.5644 13.9625H52.561C52.1175 13.9745 51.758 14.3341 51.758 14.7775C51.758 15.0412 51.8419 15.1491 52.0097 15.3169L57.3075 18.9966C58.0986 19.512 58.566 20.2552 58.566 21.4178Z" fill="#009FE8"/>
<path d="M67.4242 16.5035C68.0834 16.4915 68.6108 17.0189 68.6108 17.6901C68.5988 18.3733 68.0954 18.8767 67.4122 18.8887H64.4037C63.7445 18.8887 63.2051 18.3733 63.2051 17.6901C63.2051 17.0309 63.7085 16.5035 64.4157 16.5035M59.813 12.596C59.813 11.8409 60.4243 11.2416 61.1555 11.2536H78.5593C79.3264 11.2536 79.9137 11.8529 79.9137 12.62C79.9137 13.3751 79.3264 13.9744 78.5593 13.9864H75.7305V23.6472C75.7305 24.4143 75.1312 25.0016 74.3761 25.0016C73.621 25.0016 73.0097 24.4023 73.0097 23.6472L73.0217 13.9864L62.5219 13.9744L62.5339 22.113H67.5321C68.2872 22.113 68.8985 22.7243 68.8985 23.4794C68.8985 24.2345 68.2872 24.8458 67.5321 24.8458H61.1555C60.4004 24.8458 59.7891 24.2345 59.7891 23.4794L59.813 12.596Z" fill="#009FE8"/>
</g>
<defs>
<clipPath id="clip0_953_1733">
<rect width="87.7091" height="36" fill="white"/>
</clipPath>
</defs>
</svg>
