<svg width="88" height="36" viewBox="0 0 88 36" fill="none" xmlns="http://www.w3.org/2000/svg">
<g clip-path="url(#clip0_953_1778)">
<g clip-path="url(#clip1_953_1778)">
<path fill-rule="evenodd" clip-rule="evenodd" d="M26.7918 11.3133L22.0681 14.5999L17.4284 11.3656L12.7822 14.6048L8.06348 11.3153L17.4284 4.78662L26.7918 11.3133Z" fill="#FF555F"/>
<path fill-rule="evenodd" clip-rule="evenodd" d="M12.8866 20.9211V14.5614L8.06348 11.332V24.1501L17.6357 30.5593V24.1006L12.8866 20.9211ZM17.6357 24.423H22.2137V17.8775H17.6357V24.423Z" fill="#25A5BD"/>
<path fill-rule="evenodd" clip-rule="evenodd" d="M17.6357 30.5592L27.208 24.2183V17.8774L17.6357 24.1693V30.5592Z" fill="#1E2C4C"/>
<path fill-rule="evenodd" clip-rule="evenodd" d="M22.4002 21.1504L17.6357 17.8683L22.3777 14.605L27.208 17.8728L22.4002 21.1504Z" fill="#FF555F"/>
<path fill-rule="evenodd" clip-rule="evenodd" d="M36.8222 19.761C37.8161 19.761 38.6409 18.9256 38.6409 17.8788C38.6409 16.8315 37.8161 15.9966 36.8222 15.9966C35.8434 15.9966 35.0181 16.8315 35.0181 17.8784C35.0181 18.9256 35.8429 19.761 36.8222 19.761ZM35.2282 21.2587C35.5217 21.815 36.1093 22.1996 36.7806 22.1996C37.7599 22.1996 38.5431 21.3912 38.5431 20.3972V20.3308L38.5153 20.3185C37.9701 20.8351 37.2701 21.1534 36.4868 21.1534C34.8084 21.1534 33.4512 19.6823 33.4512 17.8794C33.4512 16.0635 34.8084 14.6055 36.4868 14.6055C37.2701 14.6055 37.9697 14.9238 38.5153 15.454L38.5431 15.44V14.7773H40.1101V20.3974C40.1101 22.1737 38.725 23.6051 36.8505 23.6051C35.5916 23.6051 34.5003 22.969 33.9131 22.0015L35.2282 21.2587ZM45.5101 17.0164L45.5242 16.9898C45.178 16.3803 44.5691 15.9696 43.8632 15.9696C43.1295 15.9696 42.5618 16.3541 42.1881 16.9898L42.2023 17.0164H45.5101ZM45.3299 19.1494L46.4099 20.1697C45.7868 20.7792 44.9149 21.1503 43.9594 21.1503C42.0495 21.1503 40.5263 19.6927 40.5263 17.8776C40.5263 16.0624 42.0079 14.6048 43.8628 14.6048C44.2999 14.6041 44.7328 14.6884 45.1367 14.8527C45.5406 15.017 45.9075 15.2581 46.2162 15.5622C46.525 15.8664 46.7695 16.2275 46.9358 16.6249C47.1021 17.0222 47.1869 17.4479 47.1852 17.8776C47.1852 18.1692 47.1574 18.2486 47.1574 18.2486H42.077C42.077 18.9375 42.9214 19.7459 43.8903 19.7459C44.458 19.7459 44.9557 19.5074 45.3299 19.1494ZM49.5342 17.9659V21.1503H48.0176V14.7816H49.5342V15.5572L49.5617 15.5711C50.0761 14.9317 50.767 14.6048 51.4845 14.6048C54.1926 14.6048 54.2604 17.0815 54.2604 17.8436V21.1503H52.7438V17.9659C52.7438 17.2038 52.7297 16.0334 51.1594 16.0334C50.2659 16.0334 49.5342 16.8908 49.5342 17.9659ZM58.3873 16.0235C57.3822 16.0235 56.5727 16.8753 56.5727 17.9291C56.5727 18.9968 57.3822 19.8477 58.3873 19.8477C59.3645 19.8477 60.1881 18.9968 60.1881 17.9291C60.1881 16.8753 59.3645 16.0235 58.3873 16.0235ZM58.7223 21.2804C57.9266 21.2804 57.2428 20.9695 56.6843 20.4156L56.656 20.4295V23.6052H55.0928V14.7812H56.656V15.4431L56.6843 15.457C57.2428 14.9301 57.9266 14.6057 58.7223 14.6057C60.3975 14.6057 61.7517 16.0923 61.7517 17.9438C61.7517 19.795 60.3975 21.2804 58.7223 21.2804ZM65.539 19.7455C66.5329 19.7455 67.344 18.924 67.344 17.8776C67.344 16.8307 66.5325 15.9957 65.5394 15.9957C64.5602 15.9957 63.7349 16.8307 63.7349 17.8776C63.7349 18.924 64.5598 19.7455 65.539 19.7455ZM65.204 14.6048C65.9872 14.6048 66.6869 14.9231 67.2325 15.4529L67.2603 15.439V14.7762H68.8268V20.9781H67.2599V20.3419L67.2321 20.3153C66.6869 20.832 65.9868 21.1503 65.2036 21.1503C63.5251 21.1503 62.1679 19.6927 62.1679 17.8776C62.1679 16.0624 63.5251 14.6048 65.204 14.6048ZM75.4858 20.1697C75.1672 20.4824 74.7887 20.73 74.3723 20.8983C73.9559 21.0666 73.5097 21.1522 73.0595 21.1503C71.1675 21.1503 69.6593 19.6927 69.6593 17.8776C69.6593 16.0624 71.1675 14.6048 73.0595 14.6048C74.0051 14.6048 74.869 14.9759 75.4858 15.5854L74.4029 16.5656C74.2314 16.3843 74.0234 16.2401 73.7921 16.142C73.5608 16.044 73.3113 15.9943 73.0595 15.9962C72.0174 15.9962 71.195 16.8438 71.195 17.8776C71.195 18.9109 72.0174 19.7455 73.0595 19.7455C73.3163 19.745 73.5703 19.693 73.806 19.5928C74.0417 19.4926 74.2542 19.3462 74.4304 19.1625L75.4858 20.1697ZM78.5598 15.9626V20.7412H76.9899V15.9626H75.902V14.5287H76.9899V11.7412H78.5598V14.5287H79.6477V15.9626H78.5598Z" fill="#25A5BD"/>
</g>
</g>
<defs>
<clipPath id="clip0_953_1778">
<rect width="87.7091" height="36" fill="white"/>
</clipPath>
<clipPath id="clip1_953_1778">
<rect width="72" height="26.1818" fill="white" transform="translate(7.85449 4.58203)"/>
</clipPath>
</defs>
</svg>
