<svg width="160" height="36" viewBox="0 0 160 36" fill="none" xmlns="http://www.w3.org/2000/svg">
<g clip-path="url(#clip0_2165_14403)">
<path d="M11.6966 23.722L14.046 26.0714L16.3955 23.722H19.7231V20.3944L22.0725 18.0449L19.7231 15.6955V12.3679H16.3955L14.046 10.0184L11.6966 12.3679H8.36897V15.6955L6.01953 18.0449L8.36897 20.3944V23.722H11.6966Z" fill="#FBBC05"/>
<path d="M14.3033 15.531L14.2942 15.5676L13.2063 20.367L13.1697 20.5498H13.8462L13.8554 20.5133L14.9432 15.7138L14.9798 15.531H14.3033ZM12.5755 16.1892L12.4841 16.2532L10.5186 17.7799L10.3906 17.8804V18.1913L10.5186 18.2918L12.4841 19.8185L12.5755 19.8825V19.0597L11.25 18.045L12.5755 17.012V16.1892ZM15.5192 16.1892V17.012L16.8447 18.045L15.5192 19.078V19.9008L15.6106 19.8368L17.5761 18.3101L17.7041 18.2096V17.8987L17.5761 17.7982L15.6014 16.2623L15.5192 16.1892Z" fill="white"/>
<path d="M14.0459 23.4112C17.0096 23.4112 19.4121 21.0086 19.4121 18.0449C19.4121 15.0813 17.0096 12.6787 14.0459 12.6787C11.0822 12.6787 8.67969 15.0813 8.67969 18.0449C8.67969 21.0086 11.0822 23.4112 14.0459 23.4112Z" stroke="white" stroke-width="0.731343"/>
<path d="M70.4436 18.7761C69.5203 18.511 68.8438 18.1819 68.4232 17.7979C68.0027 17.414 67.7925 16.9295 67.7925 16.3627C67.7925 15.7136 68.0484 15.1834 68.5695 14.7629C69.0906 14.3423 69.7579 14.1321 70.5807 14.1321C71.1475 14.1321 71.6412 14.2418 72.0891 14.4612C72.5279 14.6806 72.8753 14.9823 73.113 15.3571C73.3507 15.7319 73.4786 16.1616 73.4786 16.6095H72.3725C72.3725 16.1158 72.2171 15.7228 71.8971 15.4394C71.5863 15.156 71.1384 15.0097 70.5624 15.0097C70.0322 15.0097 69.6117 15.1285 69.3191 15.3662C69.0266 15.6039 68.8712 15.9239 68.8712 16.3444C68.8712 16.6826 69.0083 16.966 69.2917 17.1946C69.5751 17.4231 70.0596 17.6334 70.7361 17.8254C71.4126 18.0173 71.952 18.2276 72.3359 18.4561C72.7199 18.6847 73.0033 18.9589 73.1953 19.2606C73.3781 19.5714 73.4695 19.928 73.4695 20.3485C73.4695 21.0158 73.2135 21.5461 72.6925 21.9392C72.1714 22.3323 71.4857 22.5425 70.6173 22.5425C70.0505 22.5425 69.5294 22.4328 69.0449 22.2226C68.5604 22.0123 68.1856 21.7106 67.9204 21.3358C67.6553 20.961 67.5273 20.5313 67.5273 20.056H68.6152C68.6152 20.5496 68.7981 20.9427 69.1637 21.2261C69.5294 21.5095 70.0139 21.6558 70.6264 21.6558C71.1932 21.6558 71.632 21.5369 71.9337 21.3084C72.2354 21.0798 72.3908 20.7599 72.3908 20.3576C72.3908 19.9554 72.2536 19.6446 71.9703 19.4252C71.6869 19.2058 71.1749 18.9955 70.4436 18.7761Z" fill="white"/>
<path d="M78.4513 21.8296C78.0491 22.3049 77.4549 22.5426 76.6687 22.5426C76.0196 22.5426 75.526 22.3506 75.1877 21.9758C74.8495 21.601 74.6758 21.0434 74.6758 20.3029V16.3445H75.7179V20.2755C75.7179 21.1988 76.0928 21.6559 76.8424 21.6559C77.6377 21.6559 78.1679 21.3633 78.4239 20.7691V16.3445H79.4661V22.4329H78.4788L78.4513 21.8296Z" fill="white"/>
<path d="M82.0238 16.3444L82.0512 17.0209C82.4992 16.4998 83.1025 16.2347 83.8522 16.2347C84.7023 16.2347 85.2783 16.5638 85.5891 17.2129C85.7902 16.9204 86.0553 16.6827 86.3753 16.4998C86.6953 16.317 87.0792 16.2256 87.5272 16.2256C88.8619 16.2256 89.5383 16.9295 89.5658 18.3465V22.4329H88.5236V18.4105C88.5236 17.9717 88.4231 17.6517 88.2219 17.4323C88.0208 17.2129 87.6917 17.1123 87.2163 17.1123C86.8324 17.1123 86.5124 17.2312 86.2564 17.4597C86.0005 17.6883 85.8542 17.9991 85.8085 18.3922V22.4329H84.7663V18.447C84.7663 17.5603 84.3367 17.1215 83.4682 17.1215C82.7826 17.1215 82.3163 17.414 82.0695 17.99V22.4329H81.0273V16.3444H82.0238Z" fill="white"/>
<path d="M92.1176 16.3444L92.145 17.0209C92.5929 16.4998 93.1963 16.2347 93.9459 16.2347C94.7961 16.2347 95.372 16.5638 95.6828 17.2129C95.884 16.9204 96.1491 16.6827 96.469 16.4998C96.789 16.317 97.173 16.2256 97.6209 16.2256C98.9556 16.2256 99.6321 16.9295 99.6595 18.3465V22.4329H98.6174V18.4105C98.6174 17.9717 98.5168 17.6517 98.3157 17.4323C98.1146 17.2129 97.7855 17.1123 97.3101 17.1123C96.9261 17.1123 96.6062 17.2312 96.3502 17.4597C96.0942 17.6883 95.948 17.9991 95.9023 18.3922V22.4329H94.8601V18.447C94.8601 17.5603 94.4304 17.1215 93.562 17.1215C92.8763 17.1215 92.4101 17.414 92.1633 17.99V22.4329H91.1211V16.3444H92.1176Z" fill="white"/>
<path d="M103.765 22.5426C102.942 22.5426 102.266 22.2683 101.754 21.7289C101.233 21.1896 100.977 20.4582 100.977 19.5532V19.3612C100.977 18.7579 101.095 18.2185 101.324 17.7431C101.552 17.2678 101.872 16.9021 102.293 16.6278C102.704 16.3627 103.152 16.2256 103.637 16.2256C104.432 16.2256 105.045 16.4907 105.483 17.0118C105.922 17.5329 106.142 18.2825 106.142 19.2515V19.6812H102.019C102.037 20.2845 102.211 20.7691 102.549 21.1347C102.887 21.5004 103.308 21.6924 103.829 21.6924C104.194 21.6924 104.505 21.6192 104.761 21.4638C105.017 21.3176 105.237 21.1164 105.429 20.8696L106.069 21.3633C105.547 22.1495 104.78 22.5426 103.765 22.5426ZM103.637 17.0849C103.216 17.0849 102.869 17.2403 102.576 17.542C102.293 17.8437 102.119 18.2733 102.046 18.831H105.09V18.7487C105.063 18.2185 104.917 17.8071 104.661 17.5237C104.414 17.2312 104.066 17.0849 103.637 17.0849Z" fill="white"/>
<path d="M110.283 17.2769C110.128 17.2495 109.954 17.2403 109.772 17.2403C109.086 17.2403 108.629 17.5329 108.382 18.1088V22.4329H107.34V16.3444H108.355L108.373 17.0484C108.711 16.509 109.196 16.2347 109.826 16.2347C110.028 16.2347 110.183 16.2622 110.283 16.317V17.2769Z" fill="white"/>
<path d="M113.812 19.3338C113.812 18.7396 113.931 18.2002 114.16 17.7249C114.398 17.2495 114.718 16.8838 115.138 16.6187C115.559 16.3536 116.034 16.2347 116.573 16.2347C117.405 16.2347 118.073 16.5181 118.585 17.0941C119.096 17.67 119.352 18.4288 119.352 19.3795V19.4527C119.352 20.0469 119.243 20.5771 119.014 21.0433C118.786 21.5096 118.466 21.8844 118.045 22.1403C117.625 22.4055 117.14 22.5334 116.592 22.5334C115.769 22.5334 115.101 22.25 114.59 21.6741C114.078 21.0982 113.822 20.3394 113.822 19.3978V19.3338H113.812ZM114.864 19.4527C114.864 20.1291 115.019 20.6685 115.33 21.0799C115.641 21.4913 116.061 21.6924 116.592 21.6924C117.122 21.6924 117.542 21.4821 117.853 21.0707C118.164 20.6594 118.319 20.0743 118.319 19.3338C118.319 18.6665 118.164 18.1271 117.844 17.7157C117.524 17.3043 117.104 17.0941 116.582 17.0941C116.071 17.0941 115.65 17.2952 115.339 17.7066C115.019 18.1088 114.864 18.6939 114.864 19.4527Z" fill="white"/>
<path d="M121.171 22.4329V17.1489H120.211V16.3445H121.171V15.7228C121.171 15.0738 121.345 14.5618 121.692 14.2144C122.039 13.8579 122.533 13.6842 123.173 13.6842C123.411 13.6842 123.648 13.7116 123.886 13.7756L123.831 14.6167C123.657 14.5801 123.465 14.5618 123.264 14.5618C122.926 14.5618 122.67 14.6624 122.478 14.8544C122.286 15.0463 122.204 15.3389 122.204 15.7045V16.3445H123.502V17.1489H122.204V22.4329H121.171Z" fill="white"/>
<path d="M133.695 19.8275C133.594 20.696 133.274 21.3633 132.735 21.8295C132.195 22.2958 131.482 22.5335 130.586 22.5335C129.617 22.5335 128.84 22.1861 128.264 21.4913C127.679 20.7965 127.387 19.8732 127.387 18.7031V17.9169C127.387 17.1581 127.524 16.4907 127.798 15.9057C128.072 15.3297 128.456 14.8818 128.95 14.571C129.444 14.2601 130.029 14.1047 130.678 14.1047C131.546 14.1047 132.241 14.3516 132.771 14.8361C133.292 15.3206 133.603 15.9971 133.685 16.8564H132.598C132.506 16.1982 132.296 15.732 131.985 15.4303C131.674 15.1286 131.235 14.9915 130.669 14.9915C129.983 14.9915 129.434 15.2475 129.051 15.7594C128.657 16.2713 128.465 16.9935 128.465 17.9351V18.7305C128.465 19.6172 128.648 20.3303 129.023 20.8514C129.398 21.3725 129.91 21.6376 130.577 21.6376C131.181 21.6376 131.638 21.5004 131.958 21.2262C132.278 20.9519 132.488 20.4766 132.598 19.8092H133.695V19.8275Z" fill="white"/>
<path d="M134.727 19.3338C134.727 18.7396 134.845 18.2002 135.074 17.7249C135.312 17.2495 135.632 16.8838 136.052 16.6187C136.473 16.3536 136.948 16.2347 137.487 16.2347C138.319 16.2347 138.987 16.5181 139.499 17.0941C140.011 17.67 140.266 18.4288 140.266 19.3795V19.4527C140.266 20.0469 140.157 20.5771 139.928 21.0433C139.7 21.5096 139.38 21.8844 138.959 22.1403C138.539 22.4055 138.054 22.5334 137.506 22.5334C136.683 22.5334 136.016 22.25 135.504 21.6741C134.992 21.0982 134.736 20.3394 134.736 19.3978V19.3338H134.727ZM135.778 19.4527C135.778 20.1291 135.933 20.6685 136.244 21.0799C136.555 21.4913 136.975 21.6924 137.506 21.6924C138.036 21.6924 138.456 21.4821 138.767 21.0707C139.078 20.6594 139.233 20.0743 139.233 19.3338C139.233 18.6665 139.078 18.1271 138.758 17.7157C138.438 17.3043 138.018 17.0941 137.497 17.0941C136.985 17.0941 136.564 17.2952 136.253 17.7066C135.933 18.1088 135.778 18.6939 135.778 19.4527Z" fill="white"/>
<path d="M141.318 19.3339C141.318 18.4014 141.537 17.6518 141.985 17.085C142.433 16.5182 143.009 16.2348 143.722 16.2348C144.435 16.2348 145.002 16.4816 145.413 16.9661V13.7939H146.455V22.4329H145.496L145.441 21.7839C145.02 22.2958 144.444 22.5518 143.704 22.5518C143 22.5518 142.424 22.2592 141.976 21.6833C141.528 21.1074 141.309 20.3486 141.309 19.4253V19.3339H141.318ZM142.36 19.4527C142.36 20.1383 142.506 20.6869 142.79 21.0708C143.073 21.4639 143.466 21.6559 143.969 21.6559C144.627 21.6559 145.112 21.3633 145.413 20.7691V17.9717C145.102 17.3958 144.627 17.1124 143.978 17.1124C143.466 17.1124 143.073 17.3135 142.79 17.7066C142.506 18.0997 142.36 18.6848 142.36 19.4527Z" fill="white"/>
<path d="M150.597 22.5426C149.774 22.5426 149.098 22.2683 148.586 21.7289C148.065 21.1896 147.809 20.4582 147.809 19.5532V19.3612C147.809 18.7579 147.927 18.2185 148.156 17.7431C148.385 17.2678 148.704 16.9021 149.125 16.6278C149.536 16.3627 149.984 16.2256 150.469 16.2256C151.264 16.2256 151.877 16.4907 152.316 17.0118C152.754 17.5329 152.974 18.2825 152.974 19.2515V19.6812H148.851C148.869 20.2845 149.043 20.7691 149.381 21.1347C149.719 21.5004 150.14 21.6924 150.661 21.6924C151.027 21.6924 151.337 21.6192 151.593 21.4638C151.849 21.3176 152.069 21.1164 152.261 20.8696L152.901 21.3633C152.379 22.1495 151.612 22.5426 150.597 22.5426ZM150.469 17.0849C150.048 17.0849 149.701 17.2403 149.408 17.542C149.125 17.8437 148.951 18.2733 148.878 18.831H151.922V18.7487C151.895 18.2185 151.749 17.8071 151.493 17.5237C151.246 17.2312 150.899 17.0849 150.469 17.0849Z" fill="white"/>
<path d="M34.9017 14.3792C35.7163 14.807 36.2147 15.5566 36.397 16.6279H35.2978C35.1639 16.029 34.8868 15.5928 34.4664 15.3194C34.0461 15.046 33.516 14.9093 32.8762 14.9093C32.1174 14.9093 31.4785 15.1939 30.9596 15.763C30.4407 16.3321 30.1812 17.1802 30.1812 18.3074C30.1812 19.2819 30.3951 20.0752 30.8229 20.6871C31.2507 21.299 31.9481 21.605 32.9153 21.605C33.6555 21.605 34.2684 21.3901 34.7538 20.9605C35.2392 20.5309 35.4875 19.8362 35.4987 18.8765H32.932V17.9558H36.5309V22.3415H35.8167L35.5489 21.2869C35.1732 21.6998 34.8403 21.9862 34.5501 22.1462C34.0628 22.4215 33.4435 22.5591 32.6921 22.5591C31.7212 22.5591 30.8861 22.2448 30.1868 21.6161C29.4242 20.8275 29.043 19.7451 29.043 18.3687C29.043 16.9961 29.4149 15.9044 30.1589 15.0934C30.8657 14.3197 31.7807 13.9329 32.9041 13.9329C33.6741 13.9329 34.34 14.0817 34.9017 14.3792ZM41.8568 20.9382C42.1041 20.4341 42.2278 19.8734 42.2278 19.2559C42.2278 18.6979 42.1385 18.2441 41.96 17.8945C41.6773 17.3439 41.19 17.0687 40.4981 17.0687C39.8843 17.0687 39.438 17.303 39.159 17.7717C38.88 18.2404 38.7405 18.8058 38.7405 19.4679C38.7405 20.104 38.88 20.6341 39.159 21.0581C39.438 21.4822 39.8806 21.6942 40.4869 21.6942C41.1528 21.6942 41.6094 21.4422 41.8568 20.9382ZM42.4789 16.9626C43.0108 17.476 43.2768 18.2311 43.2768 19.228C43.2768 20.1914 43.0425 20.9875 42.5738 21.6161C42.1051 22.2448 41.3778 22.5591 40.3921 22.5591C39.57 22.5591 38.9172 22.281 38.4336 21.7249C37.95 21.1688 37.7083 20.4221 37.7083 19.4847C37.7083 18.4803 37.9631 17.6806 38.4727 17.0854C38.9823 16.4902 39.6667 16.1926 40.526 16.1926C41.296 16.1926 41.947 16.4493 42.4789 16.9626ZM48.212 20.9382C48.4594 20.4341 48.5831 19.8734 48.5831 19.2559C48.5831 18.6979 48.4938 18.2441 48.3153 17.8945C48.0326 17.3439 47.5453 17.0687 46.8534 17.0687C46.2396 17.0687 45.7932 17.303 45.5143 17.7717C45.2353 18.2404 45.0958 18.8058 45.0958 19.4679C45.0958 20.104 45.2353 20.6341 45.5143 21.0581C45.7932 21.4822 46.2359 21.6942 46.8422 21.6942C47.5081 21.6942 47.9647 21.4422 48.212 20.9382ZM48.8342 16.9626C49.3661 17.476 49.6321 18.2311 49.6321 19.228C49.6321 20.1914 49.3977 20.9875 48.929 21.6161C48.4603 22.2448 47.7331 22.5591 46.7474 22.5591C45.9253 22.5591 45.2725 22.281 44.7889 21.7249C44.3053 21.1688 44.0635 20.4221 44.0635 19.4847C44.0635 18.4803 44.3183 17.6806 44.828 17.0854C45.3376 16.4902 46.022 16.1926 46.8813 16.1926C47.6513 16.1926 48.3023 16.4493 48.8342 16.9626ZM54.1628 16.6055C54.3525 16.7357 54.5459 16.9254 54.7431 17.1747V16.4214H55.6693V21.856C55.6693 22.6149 55.5577 23.2138 55.3345 23.6527C54.9179 24.4636 54.1312 24.8691 52.9743 24.8691C52.3308 24.8691 51.7896 24.7249 51.3506 24.4367C50.9117 24.1484 50.6662 23.6974 50.6141 23.0836H51.6352C51.6836 23.3514 51.7803 23.5579 51.9253 23.7029C52.1523 23.9261 52.5094 24.0377 52.9966 24.0377C53.7667 24.0377 54.2707 23.7662 54.5087 23.2231C54.6501 22.9032 54.7152 22.3322 54.704 21.5101C54.5032 21.8151 54.2614 22.042 53.9787 22.1908C53.696 22.3396 53.3221 22.414 52.8572 22.414C52.2099 22.414 51.6436 22.1843 51.1581 21.7249C50.6727 21.2655 50.43 20.5058 50.43 19.4456C50.43 18.445 50.6746 17.6638 51.1637 17.1021C51.6529 16.5404 52.2434 16.2596 52.9353 16.2596C53.404 16.2596 53.8131 16.3749 54.1628 16.6055ZM54.2856 17.6824C53.9805 17.3253 53.5918 17.1468 53.1194 17.1468C52.4126 17.1468 51.9291 17.4778 51.6687 18.14C51.531 18.4933 51.4622 18.9565 51.4622 19.5293C51.4622 20.2026 51.5989 20.715 51.8723 21.0665C52.1457 21.418 52.5131 21.5938 52.9743 21.5938C53.696 21.5938 54.2037 21.2683 54.4976 20.6174C54.6613 20.2491 54.7431 19.8195 54.7431 19.3284C54.7431 18.5882 54.5906 18.0395 54.2856 17.6824ZM57.2093 14.1449H58.2137V22.3415H57.2093V14.1449ZM63.4419 16.5302C63.8399 16.7292 64.143 16.9868 64.3513 17.303C64.5522 17.6043 64.6861 17.9558 64.7531 18.3576C64.8126 18.6328 64.8424 19.0718 64.8424 19.6744H60.4623C60.4809 20.2807 60.6241 20.7671 60.8919 21.1335C61.1598 21.4999 61.5745 21.6831 62.1362 21.6831C62.6607 21.6831 63.0792 21.5101 63.3916 21.1642C63.5702 20.9633 63.6967 20.7308 63.7711 20.4667H64.7587C64.7326 20.6862 64.6461 20.9307 64.4992 21.2004C64.3523 21.4701 64.1877 21.6905 64.0054 21.8616C63.7004 22.1592 63.3228 22.3601 62.8727 22.4642C62.6309 22.5238 62.3575 22.5535 62.0525 22.5535C61.3085 22.5535 60.678 22.2829 60.161 21.7417C59.6439 21.2004 59.3854 20.4425 59.3854 19.4679C59.3854 18.5082 59.6458 17.7289 60.1666 17.13C60.6873 16.5311 61.3681 16.2317 62.2087 16.2317C62.6328 16.2317 63.0438 16.3312 63.4419 16.5302ZM63.8101 18.8765C63.7692 18.4413 63.6743 18.0935 63.5256 17.8331C63.2503 17.3495 62.7909 17.1077 62.1474 17.1077C61.6861 17.1077 61.2993 17.2742 60.9868 17.6071C60.6743 17.94 60.5088 18.3631 60.4902 18.8765H63.8101Z" fill="white"/>
</g>
<defs>
<clipPath id="clip0_2165_14403">
<rect width="147" height="16.0896" fill="white" transform="translate(6 10)"/>
</clipPath>
</defs>
</svg>
