<svg width="88" height="36" viewBox="0 0 88 36" fill="none" xmlns="http://www.w3.org/2000/svg">
<g clip-path="url(#clip0_953_1725)">
<g clip-path="url(#clip1_953_1725)">
<path d="M64.708 12.504V4.00049H66.4493V11.3103C65.9671 11.5517 65.3107 12.0077 64.708 12.504ZM61.6808 15.0658C62.2166 14.422 62.7658 13.7782 63.4221 13.2283V4.00049H61.6808V15.0658ZM41.5086 21.8256C41.5086 24.0923 42.406 26.2517 44.0536 27.9015C45.6877 29.5378 47.8442 30.4498 50.1213 30.4498C51.0857 30.4498 52.0769 30.2487 52.7734 29.8999V28.1563C51.9564 28.505 50.9652 28.7062 50.1213 28.7062C46.3976 28.7062 43.2633 25.5677 43.2633 21.839V20.2698C43.2633 16.5411 46.411 13.4026 50.1213 13.4026C51.9698 13.4026 53.6977 14.1135 54.9835 15.4011C56.2694 16.6887 56.9793 18.4189 56.9793 20.2698V30.4633H58.7206V19.9345C58.6135 17.708 57.6625 15.6291 56.0551 14.0732C54.4344 12.5174 52.3314 11.659 50.1213 11.659C47.8576 11.659 45.7011 12.5576 44.0536 14.2074C42.4194 15.8437 41.5086 18.0031 41.5086 20.2832V21.8256ZM67.5744 17.641C68.3647 16.8496 69.3827 16.407 70.3873 16.407C72.5438 16.407 74.2181 18.097 74.2181 20.243V21.8122C74.2181 23.9716 72.5304 25.6482 70.3873 25.6482C69.3425 25.6482 68.3379 25.0714 67.5476 24.0387C66.8511 23.1266 66.3957 21.8793 66.3287 20.7661L64.9223 22.5097C65.2036 23.8241 65.8867 25.0983 66.8645 25.9835C67.8691 26.8955 69.1282 27.4052 70.3873 27.4052C73.468 27.4052 75.9728 24.8971 75.9728 21.8256V20.2564C75.9728 18.7944 75.3835 17.3995 74.3119 16.3399C73.2403 15.2669 71.8473 14.6768 70.3873 14.6768C69.4631 14.6768 68.0031 15.0121 66.2618 16.5814C65.793 17.0508 64.6946 18.1506 64.0249 18.9285C62.8997 20.1625 61.279 22 59.8859 23.8643V26.5871C61.4263 24.602 62.3104 23.4888 63.7704 21.8122C65.0563 20.2832 66.6636 18.4457 67.5744 17.641ZM26.4263 14.3549V12.2894C24.8458 11.4444 23.1313 11.0688 20.8542 11.0688C18.5235 11.0688 16.3134 11.9272 14.6391 13.4697C12.9514 15.0255 12.0272 17.0642 12.0272 19.237V19.8004C12.0272 24.3069 15.6303 27.9685 20.0773 27.9685C23.6804 27.9685 25.1672 26.7882 25.5423 26.4127V21.1684H19.6487V22.912H23.9082V25.5409H23.8948C23.3456 25.7555 22.207 26.2115 20.0773 26.2115C18.3896 26.2115 16.7956 25.5543 15.6169 24.3472C14.4248 23.1401 13.7819 21.5306 13.7819 19.7869V19.2236C13.7819 15.7498 17.0233 12.7991 20.8676 12.7991C23.5063 12.8125 25.0869 13.2551 26.4263 14.3549ZM39.1244 16.407C39.7807 16.407 40.3433 16.5143 40.7987 16.7289C41.013 16.1924 41.2407 15.7364 41.5622 15.1999C41.0934 14.8646 39.9548 14.65 39.1244 14.65C35.9499 14.65 33.5522 17.0508 33.5522 20.243V30.4364H35.2935V20.243C35.2935 17.9897 36.8607 16.407 39.1244 16.407ZM9 19.237V19.8004C9 22.8316 10.1519 25.6482 12.2281 27.7539C14.3042 29.8463 17.0903 30.9998 20.0639 30.9998C22.4615 30.9998 24.5779 30.4633 26.3727 29.3903C27.8462 28.505 28.5025 27.6198 28.5561 27.5393V18.1506H19.6487V19.8942H26.8148V27.0163C25.9709 27.8612 23.9751 29.2695 20.0773 29.2695C17.5323 29.2695 15.1749 28.2904 13.4336 26.52C11.7057 24.763 10.7547 22.3755 10.7547 19.8138V19.2504C10.7547 16.8228 11.8396 14.4086 13.7417 12.6247C15.6839 10.8006 18.2155 9.79467 20.8676 9.79467C23.3456 9.79467 25.0601 10.1702 26.4397 11.0152V9.04357C24.9931 8.4266 23.2652 8.15835 20.8542 8.15835C14.4248 8.15835 9 13.2283 9 19.237ZM55.6801 30.4364V20.243C55.6801 17.1045 53.2289 14.65 50.0945 14.65C48.6345 14.65 47.2415 15.2401 46.1699 16.3131C45.0984 17.3861 44.509 18.781 44.509 20.2296V21.7988C44.509 24.83 47.0674 27.3784 50.0811 27.3784C50.9116 27.3784 52.0367 27.1772 52.7333 26.6005V24.7898C52.0501 25.3397 51.0723 25.6616 50.0811 25.6616C47.938 25.6616 46.2503 23.9716 46.2503 21.8256V20.2564C46.2503 18.097 47.938 16.4204 50.0811 16.4204C52.2377 16.4204 53.912 18.1104 53.912 20.2564V30.4498H55.6801V30.4364ZM39.1244 13.3758C40.3031 13.3758 41.3345 13.6306 42.2587 14.1537C42.6873 13.6038 43.1293 13.1746 43.4642 12.8393C42.4864 12.0882 40.8255 11.6322 39.1378 11.6322C36.7134 11.6322 34.5166 12.504 32.9495 14.1001C31.3957 15.6693 30.5385 17.8555 30.5385 20.2564V30.4498H32.2798V20.2564C32.2664 16.2058 35.0792 13.3758 39.1244 13.3758ZM76.455 14.1805C74.8209 12.5442 72.6644 11.6322 70.3873 11.6322C68.7264 11.6322 67.0654 12.2491 66.1412 12.8661C64.2392 14.1269 62.6854 15.5084 59.8726 19.1431V21.7586C62.2568 18.6469 64.5071 16.2058 66.2216 14.8512C67.3467 13.9525 68.9407 13.3892 70.3873 13.3892C74.111 13.3892 77.2453 16.5411 77.2453 20.2564V21.8256C77.2453 23.6631 76.522 25.3933 75.2093 26.6944C73.9101 27.9819 72.1956 28.6928 70.3873 28.6928C67.3333 28.6928 64.641 26.5871 63.9177 23.7302L62.6854 25.219C63.5828 28.2234 66.8243 30.4364 70.3873 30.4364C72.6644 30.4364 74.8075 29.5244 76.455 27.8881C78.0892 26.2383 79 24.0923 79 21.8122V20.243C79 17.9763 78.0892 15.8169 76.455 14.1805Z" fill="#00B45E"/>
</g>
</g>
<defs>
<clipPath id="clip0_953_1725">
<rect width="87.7091" height="36" fill="white"/>
</clipPath>
<clipPath id="clip1_953_1725">
<rect width="70" height="27" fill="white" transform="translate(9 4)"/>
</clipPath>
</defs>
</svg>
