<svg width="167" height="80" viewBox="0 0 167 80" fill="none" xmlns="http://www.w3.org/2000/svg">
<g clip-path="url(#clip0_905_1606)">
<path d="M8 65.8223H37.165V69.9853H8V65.8223Z" fill="white"/>
<path d="M8 57.8369H37.165V62.0146H8V57.8369Z" fill="white"/>
<path d="M16.3203 49.8667H28.8302V54.0445H16.3203V49.8667Z" fill="white"/>
<path d="M16.3203 41.8965H28.8302V46.0743H16.3203V41.8965Z" fill="white"/>
<path d="M16.3203 33.9258H28.8302V38.1036H16.3203V33.9258Z" fill="white"/>
<path d="M16.3203 25.9409H28.8302V30.1187H16.3203V25.9409Z" fill="white"/>
<path d="M37.165 17.9702H8V22.148H37.165V17.9702Z" fill="white"/>
<path d="M37.165 10H8V14.1778H37.165V10Z" fill="white"/>
<path d="M41.3252 62.0147H86.1795C86.9372 60.7259 87.5018 59.3184 87.8436 57.8369H41.3252V62.0147Z" fill="white"/>
<path d="M82.6881 41.8965H49.6602V46.0743H86.1796C85.2286 44.4742 84.0549 43.0669 82.6881 41.8965Z" fill="white"/>
<path d="M49.6602 33.9258V38.1036H82.6881C84.0847 36.9332 85.2583 35.5257 86.1796 33.9258H49.6602Z" fill="white"/>
<path d="M86.1797 17.9702H41.3252V22.148H87.8436C87.4574 20.6665 86.8928 19.2592 86.1797 17.9702Z" fill="white"/>
<path d="M72.392 10H41.3252V14.1778H83.1041C80.3109 11.6 76.5224 10 72.392 10Z" fill="white"/>
<path d="M62.1552 25.9409H49.6602V30.1187H62.1552V25.9409Z" fill="white"/>
<path d="M74.665 30.1187H87.7395C88.1109 28.7854 88.3041 27.378 88.3041 25.9409H74.665V30.1187Z" fill="white"/>
<path d="M49.6602 49.8667H62.1552V54.0445H49.6602V49.8667Z" fill="white"/>
<path d="M74.665 49.8667V54.0445H88.3041C88.3041 52.6074 88.1109 51.2001 87.7395 49.8667H74.665Z" fill="white"/>
<path d="M41.3252 69.9556L72.392 70.0001C76.5521 70.0001 80.3109 68.4001 83.1189 65.8223H41.3252V69.9556Z" fill="white"/>
<path d="M91.335 65.8223H112.165V69.9853H91.335V65.8223Z" fill="white"/>
<path d="M91.335 57.8369H112.165V62.0146H91.335V57.8369Z" fill="white"/>
<path d="M99.6553 49.8667H112.165V54.0445H99.6553V49.8667Z" fill="white"/>
<path d="M99.6553 41.8965H112.165V46.0743H99.6553V41.8965Z" fill="white"/>
<path d="M117.959 17.9702H91.335V22.148H119.4L117.959 17.9702Z" fill="white"/>
<path d="M115.196 10H91.335V14.1778H116.637L115.196 10Z" fill="white"/>
<path d="M137.155 65.8223H158V69.9853H137.155V65.8223Z" fill="white"/>
<path d="M137.155 57.8369H158V62.0146H137.155V57.8369Z" fill="white"/>
<path d="M137.155 49.8667H149.665V54.0445H137.155V49.8667Z" fill="white"/>
<path d="M137.155 41.8965H149.665V46.0743H137.155V41.8965Z" fill="white"/>
<path d="M137.155 38.1036H149.665V33.9258H137.155H125.834L124.66 37.3037L123.487 33.9258H112.165H99.6553V38.1036H112.165V34.2665L113.488 38.1036H135.833L137.155 34.2665V38.1036Z" fill="white"/>
<path d="M149.665 25.9409H128.597L127.156 30.1187H149.665V25.9409Z" fill="white"/>
<path d="M134.138 10L132.697 14.1778H157.999V10H134.138Z" fill="white"/>
<path d="M124.66 69.9556L126.101 65.8223H123.219L124.66 69.9556Z" fill="white"/>
<path d="M121.897 62.0146H127.424L128.909 57.8369H120.426L121.897 62.0146Z" fill="white"/>
<path d="M119.088 54.0445H130.231L131.702 49.8667H117.617L119.088 54.0445Z" fill="white"/>
<path d="M116.296 46.0743H133.04L134.466 41.8965H114.854L116.296 46.0743Z" fill="white"/>
<path d="M99.6553 30.1187H122.164L120.723 25.9409H99.6553V30.1187Z" fill="white"/>
<path d="M129.935 22.148H158V17.9702H131.361L129.935 22.148Z" fill="white"/>
</g>
<defs>
<clipPath id="clip0_905_1606">
<rect width="150" height="60" fill="white" transform="translate(8 10)"/>
</clipPath>
</defs>
</svg>
