<svg width="114" height="36" viewBox="0 0 114 36" fill="none" xmlns="http://www.w3.org/2000/svg">
<g clip-path="url(#clip0_1251_1420)">
<path d="M38.5361 23.0856V12.9468H39.9179V21.8381H44.3288V23.0856H38.5361Z" fill="white"/>
<path d="M49.4053 23.0856V12.9468H50.787V23.0856H49.4053Z" fill="white"/>
<path d="M58.5448 18.7326V23.0323H57.1631V12.8936H62.2915V14.141H58.5183V17.4852H62.2915V18.7326H58.5448Z" fill="white"/>
<path d="M71.0608 14.1942V23.0856H69.679V14.1942H67.1016V12.9468H73.6117V14.1942C73.6383 14.1942 71.0608 14.1942 71.0608 14.1942Z" fill="white"/>
<path d="M83.3114 23.2711C80.3885 23.2711 78.1299 20.9355 78.1299 18.0159C78.1299 15.0964 80.3885 12.7607 83.3114 12.7607C86.2343 12.7607 88.493 15.0964 88.493 18.0159C88.493 20.9355 86.2343 23.2711 83.3114 23.2711ZM83.3114 14.0347C81.1591 14.0347 79.5382 15.7599 79.5382 18.0159C79.5382 20.2719 81.0794 21.9971 83.3114 21.9971C85.4638 21.9971 87.0847 20.2719 87.0847 18.0159C87.0847 15.7599 85.4638 14.0347 83.3114 14.0347Z" fill="white"/>
<path d="M95.7733 18.7326V23.0323H94.3916V12.8936H99.52V14.141H95.7468V17.4852H99.52V18.7326C99.5466 18.7326 95.7733 18.7326 95.7733 18.7326Z" fill="white"/>
<path d="M106.508 18.7326V23.0323H105.126V12.8936H110.281V14.141H106.508V17.4852H110.281V18.7326H106.508Z" fill="white"/>
<path d="M11.1944 28.0492L6.01283 22.8471C3.32906 20.1664 3.32906 15.8667 6.01283 13.1861L11.1944 8.01051C13.8781 5.32983 18.1828 5.32983 20.8666 8.01051L26.0481 13.1861C28.7319 15.8667 28.7319 20.1664 26.0481 22.8471L20.8666 28.0492C18.1828 30.6503 13.8781 30.6503 11.1944 28.0492Z" fill="#FED232"/>
<path d="M11.4869 27.9167L8.03251 24.4664C5.53474 21.9715 5.53474 17.9107 8.03251 15.4158L11.4869 11.9654C13.9846 9.47052 18.0502 9.47052 20.5479 11.9654L24.0023 15.4158C26.5001 17.9107 26.5001 21.9715 24.0023 24.4664L20.5479 27.9167C18.0767 30.4116 14.0112 30.4116 11.4869 27.9167Z" fill="#FAA229"/>
<path d="M11.9642 27.6778L9.46643 25.1829C7.20781 22.9269 7.20781 19.2907 9.46643 17.0878L11.9642 14.5929C14.2228 12.3369 17.8632 12.3369 20.0687 14.5929L22.5664 17.0878C24.8251 19.3438 24.8251 22.98 22.5664 25.1829L20.0687 27.6778C17.8898 29.9338 14.2494 29.9338 11.9642 27.6778Z" fill="#F37225"/>
<path d="M12.5767 27.3854L10.9027 25.7133C8.98948 23.8023 8.98948 20.6969 10.9027 18.8656L12.5767 17.1935C14.4899 15.2825 17.5988 15.2825 19.4323 17.1935L21.1063 18.8656C23.0195 20.7766 23.0195 23.8819 21.1063 25.7133L19.4323 27.3854C17.5988 29.2963 14.4899 29.2963 12.5767 27.3854Z" fill="#DB1F26"/>
<path d="M13.4001 26.7755L12.6826 26.0589C11.2477 24.6257 11.2477 22.2901 12.6826 20.8037L13.4001 20.0871C14.8349 18.6539 17.1733 18.6539 18.6613 20.0871L19.3788 20.8037C20.8137 22.237 20.8137 24.5726 19.3788 26.0589L18.6613 26.7755C17.2264 28.2088 14.9147 28.2088 13.4001 26.7755Z" fill="#90191C"/>
<path d="M15.313 24.2805C14.8879 23.8559 14.8879 23.272 15.313 22.8473C15.7382 22.4226 16.3227 22.4226 16.7479 22.8473C17.173 23.272 17.173 23.8559 16.7479 24.2805C16.3227 24.7052 15.7382 24.7052 15.313 24.2805Z" fill="white"/>
</g>
<defs>
<clipPath id="clip0_1251_1420">
<rect width="114" height="36" fill="white"/>
</clipPath>
</defs>
</svg>
