<svg width="41" height="41" viewBox="0 0 41 41" fill="none" xmlns="http://www.w3.org/2000/svg">
<path d="M6.08398 8.84251C6.08398 7.73181 6.98439 6.83141 8.09509 6.83141H32.4062C33.5169 6.83141 34.4173 7.73181 34.4173 8.84251V33.1536C34.4173 34.2643 33.5169 35.1647 32.4062 35.1647H8.09509C6.98439 35.1647 6.08398 34.2643 6.08398 33.1536V8.84251Z" fill="#0A66C2"/>
<path d="M12.4423 15.6305C13.7998 15.6305 14.9002 14.5301 14.9002 13.1726C14.9002 11.8152 13.7998 10.7147 12.4423 10.7147C11.0848 10.7147 9.98438 11.8152 9.98438 13.1726C9.98438 14.5301 11.0848 15.6305 12.4423 15.6305Z" fill="white"/>
<path d="M17.1512 17.447H21.2248V19.3131C21.2248 19.3131 22.3302 17.1023 25.3379 17.1023C28.0208 17.1023 30.2434 18.424 30.2434 22.4526V30.9479H26.022V23.482C26.022 21.1055 24.7533 20.8441 23.7864 20.8441C21.78 20.8441 21.4365 22.5748 21.4365 23.792V30.9479H17.1512V17.447Z" fill="white"/>
<path d="M10.2997 17.447H14.5849V30.9479H10.2997V17.447Z" fill="white"/>
</svg>
