<svg width="88" height="37" viewBox="0 0 88 37" fill="none" xmlns="http://www.w3.org/2000/svg">
<g clip-path="url(#clip0_948_1609)">
<g clip-path="url(#clip1_948_1609)">
<path d="M43.6373 21.031L41.411 19.7145L41.252 19.9739C40.7551 20.7717 40.0594 21.1707 39.2046 21.1707C37.7337 21.1707 36.6405 20.0537 36.6405 18.5975C36.6405 17.1214 37.7536 16.0244 39.2046 16.0244C40.0793 16.0244 40.7153 16.4033 41.252 17.2212L41.411 17.4805L43.6373 16.164L43.4385 15.8847C42.3652 14.3289 40.9936 13.5908 39.1848 13.5908C35.7857 13.5908 33.957 16.1839 33.957 18.6175C33.957 21.051 35.7857 23.6441 39.1848 23.6441C40.9141 23.6441 42.544 22.7664 43.4385 21.3303L43.6373 21.031Z" fill="#C01818"/>
<path d="M43.5176 23.6049H46.5787L47.493 21.331H52.0847L52.9991 23.6049H56.0801L50.5939 10.3003H47.8508L48.5863 12.0756L43.5176 23.6049ZM49.8187 15.5463L51.0511 18.678H48.5465L49.8187 15.5463Z" fill="#C01818"/>
<path d="M57.3528 23.624H60.0362V17.6399H61.7854V15.1266H60.0362V13.9497C60.0362 13.4311 60.3742 12.8925 61.0102 12.8925C61.3481 12.8925 61.5668 12.9524 61.7656 13.0321L62.0637 13.1518L63.1768 10.6983L62.8787 10.5986C62.3818 10.3991 61.6861 10.3193 61.1891 10.3193C59.9766 10.3193 58.9629 10.7183 58.287 11.4763C57.6907 12.1345 57.3528 13.0521 57.3528 14.0694V15.1465H56.1602V17.6598H57.3528V23.624Z" fill="#C01818"/>
<path d="M29.8819 15.945V23.6046H32.8039V10.2202L27.0593 14.5687L21.2949 10.2202V23.5847L24.2169 23.6046V15.945L27.0593 18.0594L29.8819 15.945Z" fill="#C01818"/>
<path d="M67.8485 13.5908C64.4693 13.5908 62.6406 16.164 62.6406 18.5975C62.6406 21.0311 64.4693 23.6042 67.8485 23.6042C69.3989 23.5842 70.85 22.8861 71.983 21.5896L69.7965 20.3927C69.2399 20.9712 68.5442 21.2704 67.7889 21.2704C66.6757 21.2704 65.7017 20.5324 65.4433 19.555H72.7582V18.8967C72.7781 15.2464 69.8959 13.6108 67.8485 13.5908ZM65.503 17.3807C65.8608 16.4632 66.6161 15.9446 67.5901 15.9446C68.5839 15.9446 69.3592 16.4632 69.7567 17.4007L65.503 17.3807Z" fill="#C01818"/>
<path d="M78.8407 13.6113C75.4615 13.6113 73.6328 16.1845 73.6328 18.618C73.6328 21.0516 75.4615 23.6247 78.8407 23.6247C80.3911 23.6047 81.8421 22.9066 82.9752 21.6101L80.7886 20.4133C80.2321 20.9917 79.5364 21.2909 78.781 21.2909C77.6679 21.2909 76.6939 20.5529 76.4355 19.5755H83.7504V18.9172C83.7703 15.2669 80.888 13.6113 78.8407 13.6113ZM76.4951 17.3813C76.8529 16.4638 77.6083 15.9252 78.5823 15.9451C79.5761 15.9451 80.3513 16.4638 80.7489 17.4013L76.4951 17.3813Z" fill="#C01818"/>
<path d="M83.4121 13.1514H84.5451V13.3708H84.0879V14.5676H83.8494V13.3708H83.4121V13.1514Z" fill="#C01818"/>
<path d="M84.725 13.1514H85.0629L85.4604 14.2484L85.8381 13.1514H86.176V14.5676H85.9375V13.4705L85.5399 14.5676H85.3411L84.9436 13.4705V14.5676H84.7051V13.1514H84.725Z" fill="#C01818"/>
<path d="M8.41469 13.5508L1.19922 10.1997V23.5243L8.41469 26.8754V23.6041L4.16094 21.6293V14.8474L8.41469 16.8221V13.5508Z" fill="#C01818"/>
<path d="M8.41602 13.5508L15.6514 10.1997V23.5243L8.41602 26.8754V23.6041L12.6896 21.6293V14.8474L8.41602 16.8221V13.5508Z" fill="#75160D"/>
</g>
</g>
<defs>
<clipPath id="clip0_948_1609">
<rect width="87.7091" height="36" fill="white" transform="translate(0 0.879883)"/>
</clipPath>
<clipPath id="clip1_948_1609">
<rect width="85.3731" height="17.0746" fill="white" transform="translate(1 10.0005)"/>
</clipPath>
</defs>
</svg>
