<svg width="258" height="80" viewBox="0 0 258 80" fill="none" xmlns="http://www.w3.org/2000/svg">
<g clip-path="url(#clip0_905_3303)">
<path d="M101.374 19.1919H110.752L126.699 47.2655L142.646 19.1919H151.821V65.3221H144.17V29.9668L130.187 54.4488H123.009L109.026 29.9668V65.3221H101.374V19.1919Z" fill="white"/>
<path d="M176.502 66.1461C172.958 66.1461 169.843 65.3827 167.157 63.856C164.471 62.3293 162.377 60.215 160.877 57.5131C159.375 54.8111 158.625 51.7138 158.625 48.2212C158.625 44.6847 159.359 41.5544 160.826 38.8303C162.293 36.1069 164.33 33.976 166.937 32.4378C169.544 30.9006 172.54 30.1318 175.926 30.1313C179.289 30.1313 182.184 30.9056 184.611 32.4542C187.037 34.0032 188.904 36.1725 190.214 38.9621C191.523 41.752 192.177 45.0251 192.178 48.7813V50.8239H166.209C166.683 53.6362 167.851 55.8493 169.713 57.4634C171.576 59.0781 173.929 59.8854 176.772 59.8852C179.052 59.8852 181.016 59.5557 182.664 58.8967C184.311 58.2377 185.857 57.2383 187.302 55.8984L191.365 60.742C187.324 64.345 182.37 66.1464 176.502 66.1461ZM182.088 38.7807C180.485 37.1883 178.386 36.392 175.791 36.3917C173.263 36.3917 171.146 37.2046 169.442 38.8303C167.738 40.4559 166.66 42.6416 166.209 45.3874H184.831C184.605 42.5756 183.691 40.3733 182.088 38.7807Z" fill="white"/>
<path d="M201.457 37.0501H194.414V30.9542H201.457V20.8716H208.837V30.9542H219.536V37.0501H208.837V52.5036C208.837 55.0735 209.289 56.9076 210.192 58.0061C211.094 59.1049 212.64 59.654 214.83 59.6536C215.8 59.6536 216.624 59.6151 217.302 59.5383C217.979 59.4617 218.724 59.3573 219.536 59.2252V65.255C218.609 65.516 217.664 65.7143 216.709 65.8484C215.616 66.0049 214.513 66.0819 213.408 66.079C205.44 66.079 201.456 61.8394 201.457 53.3603V37.0501Z" fill="white"/>
<path d="M258 65.3221H250.755V60.5114C249.468 62.3129 247.832 63.7022 245.846 64.6795C243.859 65.6566 241.602 66.1455 239.074 66.1461C235.959 66.1461 233.2 65.3716 230.796 63.8228C228.392 62.2742 226.502 60.1435 225.125 57.4307C223.748 54.7177 223.06 51.6149 223.06 48.1223C223.06 44.6077 223.759 41.4993 225.159 38.7971C226.558 36.0955 228.494 33.9757 230.965 32.4378C233.437 30.9006 236.275 30.1318 239.48 30.1313C241.895 30.1313 244.062 30.5872 245.981 31.499C247.874 32.39 249.513 33.7193 250.755 35.3704V30.9553H258V65.3221ZM250.62 42.982C249.829 41.0269 248.582 39.4837 246.878 38.3523C245.174 37.2211 243.204 36.6556 240.97 36.6556C237.81 36.6556 235.293 37.688 233.42 39.7527C231.546 41.8177 230.61 44.6075 230.61 48.1222C230.61 51.6592 231.513 54.46 233.318 56.5246C235.124 58.5896 237.573 59.6219 240.666 59.6218C242.945 59.6218 244.976 59.0506 246.76 57.9083C248.543 56.7666 249.829 55.2289 250.62 53.2953L250.62 42.982Z" fill="white"/>
<path d="M18.6638 49.6538C18.6638 52.4429 19.2928 54.5843 20.115 55.8799C21.193 57.5767 22.8009 58.2956 24.44 58.2956C26.5542 58.2956 28.4884 57.785 32.2157 52.7681C35.2017 48.7469 38.7202 43.1026 41.0876 39.564L45.0968 33.5691C47.8818 29.4057 51.1053 24.7774 54.8013 21.6403C57.8187 19.0798 61.0735 17.6572 64.3492 17.6572C69.8488 17.6572 75.0874 20.7588 79.0966 26.5759C83.4843 32.9468 85.6142 40.9713 85.6142 49.2524C85.6142 54.1754 84.6171 57.7926 82.9205 60.6504C81.2813 63.4141 78.0865 66.1754 72.7122 66.1754V58.2956C77.3139 58.2956 78.4623 54.1804 78.4623 49.4709C78.4623 42.7596 76.8545 35.3117 73.3125 29.99C70.7989 26.2152 67.5415 23.9087 63.9577 23.9087C60.0817 23.9087 56.9625 26.7537 53.4571 31.8265C51.5934 34.5217 49.6802 37.8062 47.532 41.5124L45.1672 45.5894C40.4168 53.7867 39.2135 55.6538 36.8383 58.735C32.6751 64.1305 29.12 66.1754 24.44 66.1754C18.8882 66.1754 15.3776 63.8358 13.2033 60.31C11.4284 57.437 10.5566 53.6673 10.5566 49.3718L18.6638 49.6538Z" fill="#0081FB"/>
<path d="M16.9492 27.1322C20.6661 21.5564 26.0299 17.6572 32.182 17.6572C35.7449 17.6572 39.2869 18.6835 42.9855 21.6225C47.0312 24.8359 51.3432 30.1272 56.7227 38.8477L58.6516 41.9773C63.3081 49.5268 65.9574 53.4108 67.5079 55.2423C69.502 57.5945 70.8984 58.2956 72.7125 58.2956C77.3142 58.2956 78.4627 54.1804 78.4627 49.4709L85.6145 49.2524C85.6145 54.1754 84.6174 57.7926 82.9208 60.6504C81.2816 63.4141 78.0868 66.1754 72.7125 66.1754C69.3715 66.1754 66.4116 65.4692 63.1385 62.4641C60.6223 60.1576 57.6806 56.0602 55.4176 52.3769L48.6861 41.4336C45.3085 35.9417 42.2103 31.8469 40.4171 29.9925C38.4882 27.9984 36.0086 25.5903 32.0516 25.5903C28.8489 25.5903 26.1291 27.7774 23.8531 31.1229L16.9492 27.1322Z" fill="url(#paint0_linear_905_3303)"/>
<path d="M32.0512 25.5903C28.8486 25.5903 26.1288 27.7774 23.8527 31.1229C20.6344 35.8503 18.6638 42.8917 18.6638 49.6538C18.6638 52.4429 19.2928 54.5843 20.115 55.8799L13.2033 60.31C11.4284 57.437 10.5566 53.6673 10.5566 49.3718C10.5566 41.5607 12.7596 33.4192 16.9489 27.1322C20.6657 21.5564 26.0296 17.6572 32.1817 17.6572L32.0512 25.5903Z" fill="url(#paint1_linear_905_3303)"/>
</g>
<defs>
<linearGradient id="paint0_linear_905_3303" x1="26.4789" y1="47.3778" x2="78.1525" y2="50.0594" gradientUnits="userSpaceOnUse">
<stop stop-color="#0064E1"/>
<stop offset="0.4" stop-color="#0064E1"/>
<stop offset="0.83" stop-color="#0073EE"/>
<stop offset="1" stop-color="#0082FB"/>
</linearGradient>
<linearGradient id="paint1_linear_905_3303" x1="22.3023" y1="52.9662" x2="22.3023" y2="34.4227" gradientUnits="userSpaceOnUse">
<stop stop-color="#0082FB"/>
<stop offset="1" stop-color="#0064E0"/>
</linearGradient>
<clipPath id="clip0_905_3303">
<rect width="258" height="80" fill="white"/>
</clipPath>
</defs>
</svg>
