<svg width="103" height="36" viewBox="0 0 103 36" fill="none" xmlns="http://www.w3.org/2000/svg">
<path fill-rule="evenodd" clip-rule="evenodd" d="M94.9121 15.9209V17.4294H92.9923V21.1231C92.9923 21.6025 93.0789 21.9267 93.2522 22.1241C93.4398 22.3356 93.6996 22.4202 94.0749 22.4202C94.176 22.4202 94.3059 22.4061 94.4502 22.3638C94.6234 22.3215 94.7245 22.2651 94.8399 22.1946L94.9121 22.1382V23.6467L94.8977 23.6608C94.7822 23.7172 94.5801 23.7877 94.3059 23.8441C94.046 23.8864 93.7718 23.9287 93.512 23.9287C91.9242 23.9287 91.1303 23.0969 91.1303 21.4474V17.4294H88.3012V23.7313H86.4103V17.4153H85.0968V15.9209H86.4103V14.8354C86.4103 14.2855 86.5402 13.8062 86.7856 13.3833C87.031 12.9462 87.363 12.622 87.8105 12.3823C88.2579 12.1708 88.7487 12.0439 89.3116 12.0439C89.7591 12.0439 90.1055 12.1003 90.3653 12.1849L90.4086 12.199V13.7921L90.3364 13.7498C90.0333 13.6229 89.7591 13.5665 89.4993 13.5665C89.124 13.5665 88.8209 13.6793 88.6188 13.9049C88.4167 14.1305 88.3012 14.4829 88.3012 14.9341V15.9209H91.1303V14.1587L91.1736 14.1446L92.9635 13.6229L93.0212 13.6088V15.9209H94.9121ZM45.979 12.932C46.1955 12.7346 46.4553 12.6218 46.7729 12.6218C47.1049 12.6218 47.3791 12.7346 47.5668 12.932C47.7833 13.1434 47.8988 13.3972 47.8988 13.6933C47.8988 13.9893 47.7833 14.2431 47.5668 14.4405C47.3647 14.6237 47.0904 14.7365 46.7729 14.7365C46.4553 14.7365 46.1955 14.6378 45.979 14.4405C45.7625 14.2431 45.647 13.9893 45.647 13.6933C45.647 13.3831 45.7625 13.1293 45.979 12.932ZM38.5166 19.6857L37.9969 21.1237H37.9536C37.867 20.7994 37.7083 20.306 37.4484 19.7139L34.6626 12.8763H31.9346V23.7741H33.7388V17.0493C33.7388 16.6264 33.7388 16.147 33.7244 15.5549C33.7142 15.3446 33.6966 15.1699 33.6822 15.0257L33.6822 15.0257L33.6822 15.0257C33.6763 14.9668 33.6709 14.9131 33.6667 14.8641H33.71C33.7966 15.2871 33.8976 15.5972 33.9698 15.7946L37.3185 23.7459H38.5887L41.9086 15.7241C41.9638 15.5839 42.019 15.3366 42.0742 15.0893C42.0912 15.0132 42.1082 14.9371 42.1251 14.8641H42.1684C42.1251 15.6677 42.0963 16.3867 42.0818 16.8238V23.7318H44.0016V12.8481H41.3746L38.5166 19.6857ZM45.8209 15.9201H47.6973V23.7305H45.8209V15.9201ZM54.3516 15.8501C54.0052 15.7796 53.6443 15.7373 53.2979 15.7373C52.4463 15.7373 51.6668 15.9206 51.0173 16.2872C50.3678 16.6537 49.8481 17.1612 49.5161 17.7957C49.1697 18.4442 48.9965 19.1914 48.9965 20.0514C48.9965 20.7986 49.1697 21.4612 49.5017 22.0674C49.8337 22.6595 50.2956 23.1389 50.9163 23.4631C51.5081 23.7874 52.2009 23.9565 52.9804 23.9565C53.8753 23.9565 54.6403 23.7733 55.2465 23.4349L55.261 23.4208V21.729L55.1888 21.7854C54.9145 21.9828 54.597 22.152 54.2794 22.2507C53.9474 22.3635 53.6443 22.4198 53.3845 22.4198C52.6339 22.4198 52.0421 22.2084 51.6235 21.7431C51.1905 21.292 50.974 20.6717 50.974 19.8963C50.974 19.0927 51.1905 18.4583 51.638 17.993C52.0854 17.5278 52.6772 17.2881 53.3989 17.2881C54.0052 17.2881 54.6259 17.4855 55.1888 17.8802L55.261 17.9366V16.1462L55.2465 16.1321L55.2251 16.1235C54.9851 16.0269 54.716 15.9186 54.3516 15.8501ZM59.272 16.2306C59.6473 15.9346 60.0803 15.7936 60.5422 15.7936C60.8598 15.7936 61.1196 15.8359 61.2495 15.9205L61.2928 15.9346V17.7673L61.2206 17.7109C61.1196 17.6404 60.9752 17.584 60.7732 17.5277C60.701 17.5183 60.6337 17.5073 60.5696 17.4969L60.5696 17.4969L60.5696 17.4969L60.5695 17.4969L60.5695 17.4969L60.5695 17.4968L60.5695 17.4968C60.4412 17.476 60.3257 17.4572 60.2102 17.4572C59.7195 17.4572 59.3153 17.6686 58.9978 18.0916C58.6802 18.5004 58.5359 19.0644 58.5359 19.7411V23.7308H56.6594V15.9205H58.5359V17.288H58.5503C58.7379 16.8509 58.9545 16.4844 59.272 16.2306ZM65.653 15.7514C64.3395 15.7514 63.2858 16.132 62.5496 16.8792C61.799 17.6264 61.4382 18.6556 61.4382 19.9526C61.4382 21.1651 61.8135 22.1519 62.5352 22.871C63.2569 23.5759 64.2384 23.9424 65.4653 23.9424C66.75 23.9424 67.7748 23.5618 68.511 22.8005C69.2615 22.0392 69.6224 21.0241 69.6224 19.7694C69.6224 18.5287 69.276 17.5419 68.5687 16.8229C67.8903 16.1038 66.8943 15.7514 65.653 15.7514ZM65.5805 22.4058C66.2589 22.4058 66.8074 22.1943 67.1539 21.7572C67.5147 21.3202 67.6735 20.6576 67.7024 19.8117C67.7024 18.9799 67.5003 18.3455 67.125 17.9085C66.7497 17.4714 66.2301 17.2599 65.5661 17.2599C64.8877 17.2599 64.3536 17.4855 63.9639 17.9367C63.5886 18.3878 63.3865 19.0222 63.3865 19.854C63.3865 20.6576 63.5742 21.292 63.9639 21.7291C64.3536 22.1943 64.9021 22.4058 65.5805 22.4058ZM73.8071 19.1632C73.2153 18.9235 72.84 18.7402 72.6668 18.5852C72.5225 18.4442 72.4503 18.2468 72.4503 17.993C72.4503 17.7816 72.5369 17.5701 72.7534 17.4291C72.9699 17.2881 73.2153 17.2176 73.5762 17.2176C73.8937 17.2176 74.2257 17.274 74.5433 17.3586C74.8608 17.4432 75.1495 17.5701 75.3805 17.7393L75.4526 17.7957V16.0757L75.4093 16.0616C75.1928 15.977 74.9041 15.8924 74.5577 15.8219C74.2113 15.7655 73.8937 15.7373 73.6339 15.7373C72.739 15.7373 72.0028 15.9488 71.4255 16.414C70.8481 16.8511 70.5739 17.4432 70.5739 18.134C70.5739 18.5006 70.6316 18.8248 70.7615 19.0927C70.8914 19.3606 71.0791 19.6143 71.3389 19.8258C71.5987 20.0232 71.974 20.2487 72.4936 20.4602C72.9266 20.6435 73.2586 20.7845 73.4607 20.8973C73.6628 21.01 73.7927 21.1369 73.8937 21.2356C73.9659 21.3484 74.0092 21.4894 74.0092 21.6726C74.0092 22.1943 73.605 22.448 72.7823 22.448C72.4647 22.448 72.1327 22.3917 71.743 22.2648C71.3533 22.1379 70.9924 21.9546 70.6893 21.7431L70.6172 21.6867V23.4772L70.6605 23.4913C70.9347 23.6182 71.2667 23.7028 71.6709 23.8015C72.075 23.872 72.4359 23.9283 72.7534 23.9283C73.7205 23.9283 74.5144 23.7169 75.0773 23.2516C75.6547 22.8005 75.9578 22.2225 75.9578 21.4753C75.9578 20.9536 75.8135 20.4884 75.4959 20.136C75.0773 19.7976 74.5577 19.4451 73.8071 19.1632ZM77.8064 16.8792C78.5426 16.132 79.5963 15.7514 80.9098 15.7514C82.1511 15.7514 83.1471 16.1038 83.8255 16.8229C84.5328 17.5419 84.8792 18.5287 84.8792 19.7694C84.8792 21.0241 84.5183 22.0392 83.7677 22.8005C83.0316 23.5618 82.0068 23.9424 80.7221 23.9424C79.4952 23.9424 78.5137 23.5759 77.792 22.871C77.0703 22.1519 76.695 21.1651 76.695 19.9526C76.695 18.6556 77.0703 17.6264 77.8064 16.8792ZM82.3979 21.7572C82.0514 22.1943 81.5029 22.4058 80.8245 22.4058C80.1317 22.4058 79.5976 22.1943 79.2079 21.7291C78.8182 21.292 78.6305 20.6576 78.6305 19.854C78.6305 19.0222 78.8326 18.3878 79.2079 17.9367C79.5976 17.4855 80.1317 17.2599 80.8101 17.2599C81.4596 17.2599 81.9937 17.4714 82.369 17.9085C82.7443 18.3455 82.9464 18.9799 82.9464 19.8117C82.9464 20.6576 82.7587 21.3202 82.3979 21.7572Z" fill="white"/>
<path d="M7.85449 8.83643H16.6527V17.542H7.85449V8.83643Z" fill="#F25022"/>
<path d="M17.5811 8.83643H26.3792V17.542H17.5811V8.83643Z" fill="#7FBA00"/>
<path d="M7.85449 18.458H16.6527V27.1636H7.85449V18.458Z" fill="#00A4EF"/>
<path d="M17.5781 18.458H26.3763V27.1636H17.5781V18.458Z" fill="#FFB900"/>
</svg>
