<svg width="88" height="36" viewBox="0 0 88 36" fill="none" xmlns="http://www.w3.org/2000/svg">
<g clip-path="url(#clip0_948_1627)">
<g clip-path="url(#clip1_948_1627)">
<path d="M74.6556 15.6634C75.9435 15.2282 77.3763 14.9462 78.7125 15.3733C79.4772 15.6311 79.8877 16.445 79.8796 17.2185C79.8957 18.8059 79.9118 20.3933 79.8555 21.9807C79.3967 21.9807 78.9379 21.9807 78.4871 21.9727C78.4307 21.7229 78.3824 21.4731 78.3261 21.2233C77.4729 21.9002 76.3379 22.3836 75.2432 21.9807C74.0036 21.4892 73.8506 19.6278 74.7844 18.7657C75.7261 17.8954 77.0784 17.8873 78.2617 17.6214C78.1893 17.2185 78.1249 16.7028 77.65 16.59C76.7001 16.308 75.7422 16.7351 74.8327 16.9929C74.7602 16.5578 74.7039 16.1146 74.6556 15.6634ZM76.1689 19.3458C75.7261 19.7004 75.702 20.5626 76.2816 20.7882C76.9818 21.0541 77.658 20.5787 78.2054 20.2C78.2054 19.6843 78.2054 19.1685 78.1973 18.6528C77.5051 18.7737 76.7243 18.8543 76.1689 19.3458Z" fill="white"/>
<path d="M38.9474 12.4886C39.7121 12.4403 40.4848 12.4403 41.2576 12.4564C42.1671 14.769 42.7547 17.2106 43.7368 19.499C44.5498 17.1622 45.2984 14.8093 46.0953 12.4725C46.8599 12.4484 47.6246 12.4484 48.3893 12.4725C48.6147 15.6473 48.9367 18.8221 49.0735 21.9969C48.4779 21.9969 47.8903 21.9969 47.3027 21.9969C47.0934 19.7327 46.9968 17.4523 46.7714 15.188C45.8618 17.412 45.2179 19.7488 44.3888 22.005C43.8334 22.0292 43.278 22.0211 42.7225 21.9969C41.9257 19.7407 41.2817 17.4201 40.3319 15.2203C40.1387 17.4765 40.0501 19.7488 39.8409 22.005C39.3096 22.005 38.7783 22.005 38.2471 21.9969C38.4 18.8141 38.73 15.6554 38.9474 12.4886Z" fill="white"/>
<path d="M65.2457 13.2054C65.777 13.0925 66.3244 13.02 66.8637 12.9717C66.8798 13.7372 66.8798 14.5027 66.8798 15.2762C67.3225 15.2843 67.7732 15.3085 68.224 15.3165C68.3126 15.7516 68.385 16.1948 68.4494 16.638C67.9262 16.6622 67.411 16.6864 66.8959 16.6944C66.9039 17.8547 66.8154 19.0231 66.9361 20.1835C67.1051 20.7475 67.8376 20.5864 68.2804 20.6911C68.3689 21.1343 68.4333 21.5855 68.4816 22.0368C67.6364 22.1254 66.6866 22.2382 65.9299 21.7548C65.4309 21.4244 65.2779 20.8039 65.2538 20.2479C65.1894 19.0715 65.2699 17.895 65.2216 16.7186C64.9157 16.6864 64.6018 16.6541 64.2959 16.6219C64.3039 16.1948 64.32 15.7758 64.3361 15.3488C64.634 15.3246 64.9318 15.2923 65.2377 15.2682C65.2216 14.5752 65.2296 13.8903 65.2457 13.2054Z" fill="white"/>
<path d="M50.0811 15.4532C50.6526 15.3403 51.2321 15.2759 51.8117 15.2437C52.3349 16.7746 52.7937 18.3298 53.333 19.8528C53.8804 18.3701 54.307 16.8391 54.79 15.3323C55.3454 15.3001 55.8927 15.2839 56.4481 15.292C55.8283 17.3226 55.0234 19.2887 54.3392 21.3032C53.977 22.2298 53.7516 23.2773 52.9949 23.9784C52.3751 24.5424 51.4817 24.5666 50.7009 24.4296C50.6284 23.9864 50.556 23.5433 50.4835 23.1081C50.8699 23.1001 51.2563 23.1242 51.6346 23.0598C52.1498 22.8825 52.6005 22.2621 52.3671 21.7141C51.6185 19.6191 50.7975 17.5563 50.0811 15.4532Z" fill="white"/>
<path d="M57.5247 15.3001C57.9915 15.3001 58.4584 15.3081 58.9172 15.3162C58.9816 15.6063 59.0379 15.8964 59.1023 16.1864C59.8187 15.5982 60.672 15.0261 61.654 15.1873C62.5072 15.2195 63.1834 15.9931 63.1995 16.823C63.2397 18.5393 63.2156 20.2637 63.2075 21.9801C62.6763 21.9881 62.145 21.9962 61.6218 22.0042C61.4689 20.441 61.654 18.8697 61.5413 17.3145C61.4689 16.6699 60.672 16.5088 60.1729 16.7666C59.7463 16.9761 59.1748 17.2743 59.207 17.8303C59.1748 19.2162 59.2231 20.6022 59.1989 21.9881C58.6355 21.9962 58.0801 21.9962 57.5166 21.9801C57.5247 19.748 57.5166 17.5241 57.5247 15.3001Z" fill="white"/>
<path d="M69.7285 15.3008C70.2034 15.3008 70.6783 15.3008 71.1533 15.3089C71.2096 15.6956 71.274 16.0824 71.3384 16.4773C71.926 15.8649 72.57 15.2283 73.4715 15.1558C73.6164 15.6876 73.6969 16.2355 73.713 16.7835C72.8275 16.9849 71.8214 17.3556 71.4269 18.2339C71.3465 19.4828 71.443 20.7399 71.3947 21.9888C70.8393 21.9969 70.2839 21.9969 69.7285 21.9808C69.7285 19.7487 69.7285 17.5248 69.7285 15.3008Z" fill="white"/>
<path d="M13.0044 9.87797C13.5678 9.20111 14.1796 8.4759 15.0489 8.20193C16.0229 7.94408 16.852 8.70958 17.4637 9.36227C19.0656 11.1995 20.2327 13.367 21.3194 15.5427C21.907 14.2212 22.6395 12.9641 23.3962 11.7393C24.1206 10.6274 24.8692 9.49925 25.9156 8.65317C26.3986 8.28251 27.0667 7.92797 27.6704 8.24222C28.5236 8.69346 29.1676 9.44284 29.7713 10.1761C31.0512 11.828 32.0573 13.6732 32.9669 15.5507C34.1019 17.9681 35.0839 20.4902 35.4944 23.1412C35.6152 24.366 35.7279 25.7439 34.9873 26.8156C34.4158 27.6536 33.3291 27.9437 32.3632 27.7745C31.5261 27.4764 30.7936 26.9284 30.2462 26.2354C28.9422 24.6239 28.1695 22.6739 27.4531 20.748C27.3484 20.4096 27.2196 20.0792 27.1069 19.7489C27.0345 20.0873 26.9379 20.4257 26.8252 20.7561C26.0927 22.7061 25.3119 24.6964 23.9677 26.316C23.4284 26.9768 22.72 27.4844 21.9151 27.7745C20.756 28.0162 19.6371 27.4119 18.8885 26.5578C17.4235 24.9623 16.6105 22.8995 15.8619 20.8931C15.717 20.4821 15.5721 20.0712 15.4675 19.6441C15.3467 20.0712 15.2019 20.4982 15.0489 20.9092C14.3728 22.7544 13.6 24.6158 12.3765 26.171C11.7084 26.9687 10.8391 27.7503 9.7524 27.8067C8.74622 27.8954 7.77224 27.2427 7.38587 26.3241C6.83851 25.0509 6.9995 23.6166 7.24098 22.2871C7.76419 19.7489 8.73012 17.3234 9.87314 15.0108C10.7505 13.2139 11.7487 11.4573 13.0044 9.87797ZM13.5759 10.442C12.3363 12.0214 11.3462 13.7941 10.4607 15.591C9.35798 17.9197 8.35985 20.3451 7.93323 22.8995C7.78029 23.6086 7.78029 24.3418 7.85274 25.059C7.94128 25.7359 8.20691 26.4611 8.82672 26.8076C9.42237 27.154 10.1871 27.0171 10.7264 26.6303C11.6923 25.9534 12.3363 24.922 12.8917 23.8987C14.083 21.6183 14.8638 19.1445 15.4514 16.6546C16.0792 19.209 16.8681 21.7553 18.1238 24.084C18.6229 24.9462 19.1461 25.8406 19.9591 26.4369C20.3696 26.8076 20.9089 27.0654 21.4724 27.0009C22.1002 26.9365 22.6234 26.5336 23.0661 26.1065C23.8147 25.333 24.3621 24.3821 24.8451 23.4313C25.8754 21.3201 26.5837 19.0639 27.1391 16.7916C27.8314 19.5474 28.6927 22.3113 30.1738 24.7609C30.7292 25.615 31.3812 26.5014 32.3552 26.9042C33.0394 27.1863 33.9087 26.9365 34.3031 26.2999C34.778 25.5344 34.8183 24.5836 34.7458 23.7133C34.6492 22.3032 34.2387 20.9334 33.788 19.5958C32.8864 17.0172 31.7032 14.5354 30.2623 12.2228C29.5942 11.1914 28.902 10.1519 27.9682 9.33003C27.6382 9.03995 27.1472 8.75793 26.7286 9.04801C25.9237 9.53954 25.3683 10.3212 24.8048 11.0625C23.4364 13.0125 22.3095 15.1398 21.3838 17.3315C21.3597 17.3637 21.2953 17.4282 21.2711 17.4604C21.1906 17.2106 21.1101 16.9689 21.0055 16.7272C20.0557 14.6724 19.0012 12.6499 17.6569 10.8288C17.1981 10.2245 16.7232 9.61206 16.1034 9.16888C15.8378 8.98355 15.4836 8.81433 15.1697 8.97549C14.5016 9.28169 14.0347 9.88603 13.5759 10.442Z" fill="#FEFEFE"/>
<path d="M13.576 10.4424C14.0348 9.88642 14.5097 9.29014 15.1778 8.98394C15.4918 8.82278 15.8459 8.98394 16.1116 9.17733C16.7314 9.62051 17.2063 10.241 17.6651 10.8372C19.0013 12.6664 20.0638 14.6809 21.0137 16.7356C21.1264 16.9693 21.2068 17.2191 21.2793 17.4689C20.0397 15.3658 18.9128 13.1821 17.3673 11.2804C16.9165 10.7486 16.4416 10.1846 15.7896 9.90253C15.4193 9.74138 15.041 9.95088 14.7351 10.1523C13.6243 11.087 12.8033 12.3038 12.0305 13.5125C10.2113 16.4133 8.84294 19.5962 7.94141 22.8999C8.36803 20.3455 9.3581 17.9201 10.4689 15.5914C11.3463 13.7945 12.3364 12.0218 13.576 10.4424Z" fill="#9E242E"/>
<path d="M26.7276 9.04079C27.1462 8.75071 27.6372 9.03273 27.9672 9.32282C28.901 10.1367 29.5932 11.1761 30.2613 12.2156C31.7022 14.5363 32.8935 17.01 33.787 19.5885C34.2377 20.9262 34.6483 22.2879 34.7448 23.7061C34.5919 22.7231 34.3343 21.7561 34.0043 20.8214C33.1511 18.2509 31.9678 15.7852 30.535 13.4887C29.9071 12.5057 29.239 11.5307 28.4341 10.6927C28.1121 10.3703 27.766 10.0319 27.3233 9.88687C26.9772 9.78212 26.6632 10.0239 26.3815 10.1931C25.6329 10.7813 25.0533 11.5387 24.4979 12.3042C23.5159 13.6982 22.6385 15.1648 21.8497 16.6716C21.7209 16.9133 21.5599 17.139 21.3828 17.3404C22.3085 15.1406 23.4354 13.0214 24.8038 11.0714C25.3673 10.322 25.9307 9.53232 26.7276 9.04079Z" fill="#9E242E"/>
<path d="M14.7343 10.1523C15.0401 9.95085 15.4185 9.74134 15.7887 9.9025C16.4407 10.1845 16.9157 10.7486 17.3664 11.2804C18.9119 13.1821 20.0388 15.3657 21.2704 17.4688C20.4977 19.6686 19.58 21.8765 19.5237 24.2375C19.4834 24.9949 19.6847 25.7362 19.9664 26.4373C19.1534 25.841 18.6221 24.9465 18.1311 24.0844C16.8835 21.7556 16.0866 19.2174 15.4587 16.655C15.0079 14.5277 14.5894 12.3521 14.7343 10.1523Z" fill="#FF912E"/>
<path d="M26.3916 10.1837C26.6734 10.0145 26.9873 9.77274 27.3334 9.87749C27.7761 10.0225 28.1222 10.361 28.4442 10.6833C29.2492 11.5294 29.9173 12.4963 30.5451 13.4794C31.9779 15.7759 33.1612 18.2416 34.0144 20.812C34.3525 21.7467 34.602 22.7137 34.755 23.6967C34.8274 24.567 34.7872 25.5178 34.3123 26.2833C33.9178 26.9279 33.0565 27.1697 32.3643 26.8877C31.3903 26.4928 30.7383 25.5984 30.1829 24.7443C28.7018 22.3027 27.8405 19.5389 27.1483 16.775C26.6814 14.6236 26.2467 12.4157 26.3916 10.1837Z" fill="#F41CB2"/>
<path d="M12.0314 13.512C12.8041 12.3033 13.6252 11.0866 14.736 10.1519C14.5911 12.3436 15.0097 14.5273 15.4685 16.6546C14.8809 19.1525 14.092 21.6182 12.9088 23.8986C12.3534 24.9219 11.7094 25.9533 10.7435 26.6302C10.2042 27.017 9.43946 27.154 8.8438 26.8075C8.224 26.461 7.95837 25.7277 7.86982 25.0589C7.78933 24.3418 7.79738 23.6085 7.95032 22.8994C8.83575 19.5957 10.2122 16.4128 12.0314 13.512Z" fill="#F41CB2"/>
<path d="M24.507 12.2957C25.0624 11.5302 25.642 10.7728 26.3906 10.1846C26.2457 12.4085 26.6804 14.6245 27.1553 16.784C26.5999 19.0643 25.8835 21.3125 24.8612 23.4236C24.3782 24.3825 23.8309 25.3253 23.0823 26.0989C22.6476 26.5259 22.1163 26.9288 21.4885 26.9933C20.925 27.0577 20.3857 26.7999 19.9752 26.4292C19.6935 25.7282 19.4922 24.9869 19.5325 24.2294C19.5888 21.8685 20.5065 19.6526 21.2792 17.4608C21.3033 17.4286 21.3677 17.3641 21.3919 17.3319C21.569 17.1224 21.73 16.9048 21.8588 16.6631C22.6556 15.1563 23.525 13.6897 24.507 12.2957Z" fill="#F25511"/>
</g>
</g>
<defs>
<clipPath id="clip0_948_1627">
<rect width="87.7091" height="36" fill="white"/>
</clipPath>
<clipPath id="clip1_948_1627">
<rect width="72.8955" height="19.7015" fill="white" transform="translate(7 8.12061)"/>
</clipPath>
</defs>
</svg>
