<svg width="88" height="36" viewBox="0 0 88 36" fill="none" xmlns="http://www.w3.org/2000/svg">
<g clip-path="url(#clip0_953_1756)">
<g clip-path="url(#clip1_953_1756)">
<mask id="mask0_953_1756" style="mask-type:luminance" maskUnits="userSpaceOnUse" x="-3" y="-28" width="94" height="92">
<path d="M-2.79004 63.2773H90.4947V-27.9339H-2.79004V63.2773Z" fill="white"/>
</mask>
<g mask="url(#mask0_953_1756)">
<path d="M51.9864 18.9729C51.9864 18.9729 51.8361 18.4356 51.8361 18.0378V11.8116H54.3877V23.8042L46.2219 17.1939C45.785 16.8297 45.5285 16.4246 45.5285 16.4246C45.5285 16.4246 45.6562 16.8706 45.6562 17.2579L45.6541 23.5334H43.1035V11.587L51.1931 18.0661C51.6257 18.4261 51.9864 18.9729 51.9864 18.9729Z" fill="white"/>
<path d="M75.0823 11.8119C79.1218 11.8119 80.1577 13.3705 80.1577 15.6104C80.1577 17.2351 78.935 18.8231 76.4703 19.0121L76.2009 19.0247C76.2009 19.0247 76.4381 19.0666 76.6872 19.3018L81.1624 23.5337H77.7037L71.4573 17.3317H74.5692C77.3548 17.3317 77.4343 15.8969 77.4547 15.5327C77.5073 14.6038 77.2024 13.8575 75.077 13.8575H71.5206V23.5337H68.8691V11.8119H75.0823Z" fill="white"/>
<path d="M55.5352 17.8409C55.5352 12.9299 59.7399 11.641 63.2727 11.641C64.6875 11.641 65.9413 11.7638 67.2584 12.0367L67.2627 14.5263C66.5038 14.2996 64.9805 13.8 63.2727 13.8C59.9235 13.8 58.2972 15.0721 58.2972 17.8409C58.2972 20.108 60.0491 21.5533 63.2727 21.5533C64.9805 21.5533 66.6927 21.1566 67.5203 20.8564L67.5161 23.2726C66.1989 23.5454 64.6875 23.7134 63.2727 23.7134C59.4994 23.7134 55.5352 21.9196 55.5352 17.8409Z" fill="white"/>
<path d="M26.835 12.1127L29.3222 14.404C29.2557 14.4323 29.1773 14.469 29.085 14.5152C28.9422 14.5876 28.7694 14.6863 28.5644 14.8249C28.1543 15.1019 27.6187 15.5407 26.9349 16.2628L22.0753 21.2924C21.2412 22.1531 20.3943 22.8353 19.6063 23.1953L17.1191 20.9051C17.1868 20.8747 17.2662 20.839 17.3553 20.7918C17.4991 20.7214 17.672 20.6217 17.877 20.4821C18.286 20.2061 18.8227 19.7684 19.5054 19.0463L24.365 14.024C25.1991 13.1634 26.0471 12.4738 26.835 12.1127Z" fill="#54B948"/>
<path d="M17.2057 24.2731C18.306 24.2731 19.3161 24.059 20.002 23.7116C20.3144 23.552 20.762 23.276 21.1474 22.9842C21.5306 22.6914 22.0727 22.2358 22.5332 21.7583L27.4003 16.7434C28.6262 15.4786 29.3647 15.0892 29.8113 14.936L32.3082 17.2461C31.7865 17.7919 25.5754 24.2605 25.5754 24.2605C25.1503 24.7076 24.7048 25.138 24.4021 25.4108C24.1112 25.6743 23.6121 26.0647 23.3544 26.2495C21.8935 27.2959 19.9419 28.145 17.313 28.145C11.3596 28.145 6.54297 23.4051 6.54297 17.9493C6.54297 11.1795 11.9521 7.25195 16.8804 7.25195C18.3897 7.20786 19.6016 7.45556 20.5581 7.77464C21.4447 8.06852 22.1135 8.42433 22.5976 8.66679C22.0255 9.02679 21.4705 9.51485 20.5549 10.471L19.5576 11.5196C19.3279 11.4335 18.3081 11.0871 16.9985 11.1249C13.8382 11.2162 10.3806 13.7226 10.5051 17.8318C10.621 21.6754 13.8618 24.2731 17.2057 24.2731Z" fill="#54B948"/>
<path d="M26.4068 11.633C26.0923 11.7926 25.6447 12.0676 25.2593 12.3604C24.8761 12.6522 24.334 13.1077 23.8735 13.5853L19.0085 18.6012C17.7805 19.8649 17.043 20.2543 16.5965 20.4086L14.0996 18.0985C14.6213 17.5527 20.8324 11.0841 20.8324 11.0841C21.2574 10.638 21.7029 10.2077 22.0056 9.9327C22.2966 9.6703 22.7957 9.27985 23.0544 9.09513C24.5133 8.04869 26.468 7.19957 29.0959 7.19957C35.0503 7.19957 39.8648 11.9374 39.8648 17.3942C39.8648 24.1651 34.4556 28.0916 29.5274 28.0916C28.0181 28.1357 26.8062 27.8869 25.8486 27.5689C24.9609 27.274 24.291 26.9171 23.8058 26.6747C24.4113 26.2758 24.9308 25.836 25.8529 24.8736L26.8502 23.825C27.0799 23.91 28.0997 24.2575 29.4082 24.2207C32.5696 24.1284 36.0272 21.6209 35.9027 17.5118C35.7857 13.6692 32.5438 11.0715 29.2011 11.0715C28.0997 11.0715 27.0928 11.2846 26.4068 11.633Z" fill="#54B948"/>
</g>
</g>
</g>
<defs>
<clipPath id="clip0_953_1756">
<rect width="87.7091" height="36" fill="white"/>
</clipPath>
<clipPath id="clip1_953_1756">
<rect width="74.6182" height="20.9455" fill="white" transform="translate(6.5459 7.2002)"/>
</clipPath>
</defs>
</svg>
