<svg width="88" height="36" viewBox="0 0 88 36" fill="none" xmlns="http://www.w3.org/2000/svg">
<g clip-path="url(#clip0_1184_1350)">
<g clip-path="url(#clip1_1184_1350)">
<path fill-rule="evenodd" clip-rule="evenodd" d="M76.925 15.6794C76.925 16.7222 76.0797 17.5677 75.0368 17.5677C73.9938 17.5677 73.1484 16.7222 73.1484 15.6794C73.1484 14.6365 73.9938 13.791 75.0368 13.791C76.0797 13.791 76.925 14.6365 76.925 15.6794Z" fill="#7887E6"/>
<path fill-rule="evenodd" clip-rule="evenodd" d="M76.925 21.589C76.925 22.6319 76.0797 23.4774 75.0368 23.4774C73.9938 23.4774 73.1484 22.6319 73.1484 21.589C73.1484 20.5462 73.9938 19.7007 75.0368 19.7007C76.0797 19.7007 76.925 20.5462 76.925 21.589Z" fill="#FF5073"/>
<path fill-rule="evenodd" clip-rule="evenodd" d="M15.4797 16.5114H13.9748V12.9208H15.4797C16.5506 12.9208 17.1487 13.6637 17.1487 14.7345C17.1487 15.8777 16.4775 16.5114 15.4797 16.5114ZM15.8069 10.7437H11V23.2598H13.9748V18.6885H15.8069C18.2188 18.6885 20.0334 17.1834 20.0334 14.6252C20.0334 12.4127 18.6723 10.7437 15.8069 10.7437ZM35.6758 14.0088L33.68 19.5366L31.3886 14.0088H28.4176L32.3304 22.8244L31.1099 25.8553H33.8716L38.5593 14.0088H35.6758ZM57.1136 13.6277V14.0088H55.5716V15.9859H57.1136V23.2598H59.9976V15.9859H61.993V14.0088H59.9976V13.519C59.9976 12.7027 60.3241 12.1222 61.2129 12.1222C61.4851 12.1222 61.8298 12.1767 62.0655 12.2492V10.1813C61.6663 10.0725 61.2129 10 60.6869 10C58.347 10 57.1136 11.4329 57.1136 13.6277ZM51.8381 21.2282C51.5661 21.4278 51.1489 21.5911 50.6954 21.5911C49.9699 21.5911 49.4801 21.1739 49.4801 20.5026C49.4801 19.7408 50.0804 18.9956 51.8381 19.2873V21.2282ZM51.2758 13.7912C49.4801 13.7912 48.0652 14.3535 47.1945 14.8977L47.9927 16.5484C48.5187 16.3126 49.6252 15.8953 50.5685 15.8953C51.2395 15.8953 51.8381 16.1311 51.8381 16.8386V17.4553C47.8377 17.1707 46.6878 18.9307 46.6878 20.556C46.6878 22.1442 48.0325 23.4775 49.8023 23.4775C50.5007 23.4775 51.2584 23.2136 51.8381 22.8497V23.2598H54.7404V16.8204C54.7404 14.7345 53.4162 13.7912 51.2758 13.7912ZM25.4456 21.2282C25.1736 21.4278 24.7564 21.5911 24.3029 21.5911C23.5773 21.5911 23.0875 21.1739 23.0875 20.5026C23.0875 19.7408 23.6878 18.9956 25.4456 19.2873V21.2282ZM24.775 13.7912C22.9792 13.7912 21.5644 14.3535 20.6936 14.8977L21.4918 16.5484C22.0178 16.3126 23.1244 15.8953 24.0676 15.8953C24.7388 15.8953 25.3374 16.1311 25.3374 16.8386V17.4553C21.3368 17.1707 20.1871 18.9307 20.1871 20.556C20.1871 22.1442 21.5316 23.4775 23.3014 23.4775C23.9999 23.4775 24.7575 23.2136 25.3374 22.8497V23.2598H28.2396V16.8204C28.2396 14.7345 26.9155 13.7912 24.775 13.7912ZM41.5452 16.6209C41.5452 16.1856 41.9805 15.9134 42.7061 15.9134C43.4679 15.9134 44.2659 16.1856 44.8465 16.4395L45.6627 14.5349C44.9009 14.154 43.7399 13.7912 42.561 13.7912C40.4024 13.7912 38.6611 14.7707 38.6611 16.7297C38.6611 19.8134 43.0144 19.2511 43.0144 20.6115C43.0144 21.1194 42.5065 21.3733 41.654 21.3733C40.7833 21.3733 39.9489 21.0831 39.2959 20.7566L38.3708 22.625C39.4591 23.2053 40.7289 23.4775 41.908 23.4775C44.0121 23.4775 45.8259 22.3892 45.8259 20.3938C45.8259 17.3464 41.5452 17.8543 41.5452 16.6209ZM66.7907 15.8228C67.5888 15.8228 68.2238 16.4576 68.3325 17.6911H65.2489C65.3576 16.4576 65.9926 15.8228 66.7907 15.8228ZM71.2635 19.2148V18.4921C71.2635 15.7794 69.3665 13.7912 66.7907 13.7912C64.2149 13.7912 62.2197 15.8409 62.2197 18.6888C62.2197 21.6091 64.1062 23.4775 67.1172 23.4775C67.9567 23.4775 69.6171 23.3259 70.8973 22.4396L70.0882 20.6413C69.2205 21.1336 68.3409 21.3552 67.5526 21.3552C67.484 21.3552 67.4168 21.3526 67.3502 21.3488C67.3352 21.3479 67.32 21.347 67.3052 21.3459C67.242 21.3414 67.1796 21.3352 67.1184 21.327C67.1044 21.3252 67.091 21.3227 67.0772 21.3208C67.0275 21.3133 66.9786 21.3046 66.9305 21.2947C66.9135 21.2912 66.8963 21.2882 66.8796 21.2844C66.8299 21.2732 66.7815 21.2599 66.7336 21.2458C66.7075 21.2381 66.6817 21.2303 66.6565 21.222C66.622 21.2106 66.5882 21.1981 66.5547 21.1852C66.5166 21.1703 66.4794 21.1548 66.4431 21.1383C66.4323 21.1333 66.4217 21.1281 66.4111 21.123C66.3523 21.0949 66.2956 21.0647 66.2417 21.0323C66.24 21.0314 66.2386 21.0303 66.2369 21.0294C66.1167 20.9563 66.0088 20.8726 65.9124 20.7799C65.911 20.7785 65.9096 20.7772 65.9081 20.7757C65.8685 20.7374 65.8312 20.6973 65.7955 20.6559C65.7817 20.6399 65.7679 20.6239 65.7546 20.6072C65.7339 20.5816 65.714 20.5557 65.6947 20.5294C65.6623 20.4843 65.6305 20.4385 65.6012 20.3896C65.6004 20.3882 65.5995 20.3869 65.5985 20.3855C65.4156 20.0778 65.2942 19.6905 65.2489 19.215L71.2635 19.2148Z" fill="white"/>
</g>
</g>
<defs>
<clipPath id="clip0_1184_1350">
<rect width="87.7088" height="36" fill="white"/>
</clipPath>
<clipPath id="clip1_1184_1350">
<rect width="66" height="15.9036" fill="white" transform="translate(11 10)"/>
</clipPath>
</defs>
</svg>
