<svg width="193" height="80" viewBox="0 0 193 80" fill="none" xmlns="http://www.w3.org/2000/svg">
<g clip-path="url(#clip0_905_3133)">
<g clip-path="url(#clip1_905_3133)">
<mask id="mask0_905_3133" style="mask-type:luminance" maskUnits="userSpaceOnUse" x="12" y="10" width="163" height="58">
<path d="M174.846 10H12V67.7059H174.846V10Z" fill="white"/>
</mask>
<g mask="url(#mask0_905_3133)">
<path d="M20.0269 65.8659C17.2961 64.6616 15.2887 63.2189 14.0046 61.5378C12.6392 59.9357 12.0004 58.5729 12.0004 57.3705C11.9819 57.1275 12.0233 56.8836 12.1211 56.6603C12.2188 56.437 12.37 56.2411 12.5612 56.0899C12.7179 55.9305 12.9057 55.8054 13.1128 55.7218C13.32 55.638 13.5422 55.5975 13.7656 55.603H20.3487C20.5714 55.6194 20.7876 55.6853 20.9816 55.7953C21.1757 55.9059 21.3426 56.0579 21.4703 56.2406C21.7141 56.484 22.3529 56.9663 23.3184 57.7646C24.2506 58.5944 25.3448 59.2228 26.5319 59.6096C27.7827 60.1024 29.1178 60.3472 30.4623 60.3303C32.6323 60.3303 34.3146 59.9311 35.68 59.0497C36.3105 58.7063 36.8326 58.1939 37.1875 57.5705C37.5424 56.9467 37.7161 56.237 37.6891 55.5202C37.7043 54.5645 37.393 53.6321 36.8064 52.8767C35.8456 52.0455 34.7258 51.4178 33.5149 51.0315C31.9106 50.4716 29.5017 49.9118 26.3711 49.1912C21.7922 48.2175 18.5006 46.7862 16.3355 44.7804C14.1704 42.7746 13.0439 40.2137 13.0439 36.9275C13.0578 34.7464 13.7383 32.6216 14.9945 30.8371C16.473 28.8088 18.4635 27.208 20.7632 26.1974C23.255 24.9949 26.3028 24.435 29.8333 24.435C33.0465 24.3615 36.2419 24.9326 39.23 26.1146C41.8779 27.3171 43.887 28.6803 45.2475 30.282C46.6079 31.8838 47.2565 33.3297 47.2565 34.5322C47.2619 34.7553 47.2215 34.9771 47.1376 35.184C47.0537 35.3908 46.9282 35.5783 46.7689 35.7347C46.6069 35.9133 46.4088 36.0555 46.1877 36.152C45.9667 36.2485 45.7277 36.2971 45.4864 36.2946H39.4543C39.1927 36.2988 38.9335 36.2431 38.6968 36.1317C38.4601 36.0203 38.2522 35.8562 38.0889 35.652C37.4667 35.1862 36.8769 34.6787 36.3237 34.133C35.4861 33.4218 34.5373 32.8527 33.5149 32.4485C32.3334 32.0073 31.08 31.7894 29.8186 31.8059C27.8144 31.8059 26.2881 32.21 25.2446 33.0912C24.7386 33.4932 24.331 34.0051 24.053 34.5881C23.775 35.1711 23.6338 35.8097 23.6403 36.4553C23.5962 37.3286 23.8815 38.1867 24.44 38.8603C24.9276 39.503 25.9663 40.0628 27.4926 40.6227C29.7667 41.4045 32.1026 41.994 34.4755 42.3851C44.1112 44.2302 48.9291 48.4804 48.9291 54.9701C48.9291 58.7383 47.3199 61.8639 44.0527 64.1862C40.7856 66.5084 36.1091 67.7159 30.2478 67.7159C26.1272 67.7109 22.7577 67.0925 20.0269 65.8659Z" fill="white"/>
<path d="M55.9507 66.3477C55.7642 66.1742 55.6175 65.9627 55.5207 65.7275C55.4239 65.4923 55.3793 65.2388 55.3899 64.9845V11.9182C55.3771 11.6492 55.4204 11.3806 55.5169 11.1292C55.6135 10.8778 55.7611 10.6491 55.9507 10.4576C56.3295 10.1317 56.8161 9.95819 57.316 9.97077H64.06C64.3257 9.92918 64.5974 9.95084 64.8531 10.034C65.1089 10.1172 65.3412 10.2594 65.5315 10.4493C65.7214 10.6391 65.8641 10.8711 65.9473 11.1264C66.0306 11.3816 66.0521 11.6529 66.0105 11.9182V64.9845C66.0223 65.4836 65.8485 65.9691 65.5228 66.3477C65.3312 66.5368 65.102 66.6843 64.8504 66.7806C64.5984 66.877 64.3294 66.9204 64.06 66.9076H57.3356C57.0777 66.9213 56.82 66.8784 56.5807 66.7816C56.3413 66.6847 56.1262 66.5368 55.9507 66.3477Z" fill="white"/>
<path d="M73.9151 66.3476C73.7289 66.1741 73.5821 65.9627 73.4856 65.7275C73.3886 65.4923 73.3438 65.2388 73.3547 64.9844V28.5147C73.3419 28.2458 73.3849 27.9772 73.4815 27.7258C73.578 27.4744 73.7257 27.2457 73.9151 27.0542C74.2952 26.7299 74.781 26.5566 75.2805 26.5674H82.1077C82.3607 26.5667 82.6114 26.616 82.8456 26.7125C83.0793 26.8089 83.292 26.9505 83.4709 27.1292C83.6502 27.3079 83.792 27.5201 83.8885 27.7537C83.985 27.9873 84.0344 28.2377 84.034 28.4904V64.9602C84.0344 65.2128 83.985 65.463 83.8885 65.6969C83.792 65.9302 83.6502 66.1426 83.4709 66.3212C83.292 66.5002 83.0793 66.6418 82.8456 66.7381C82.6114 66.8345 82.3607 66.8838 82.1077 66.8833H75.2805C75.028 66.8961 74.7755 66.855 74.54 66.7628C74.3044 66.6705 74.0917 66.529 73.9151 66.3476Z" fill="white"/>
<path d="M96.2684 62.818C92.7334 59.5321 90.9046 55.0286 90.6461 49.2741L90.5684 46.0706L90.6461 42.8623C90.8899 37.0932 92.7334 32.6044 96.2684 29.3182C99.7211 26.032 104.456 24.4497 110.318 24.4497C114.569 24.4497 118.12 25.1702 121.075 26.6941C123.961 28.213 126.131 29.9803 127.575 32.1419C128.94 34.3084 129.745 36.3921 129.823 38.393C129.867 38.6429 129.845 38.9001 129.76 39.1392C129.675 39.3782 129.528 39.5909 129.335 39.7562C129.143 39.9454 128.915 40.0929 128.662 40.1892C128.411 40.2856 128.142 40.3288 127.872 40.3161H120.753C120.291 40.3445 119.834 40.2025 119.47 39.9168C119.111 39.5543 118.836 39.1171 118.666 38.6364C117.861 36.6306 116.818 35.1068 115.535 34.2256C114.019 33.2886 112.261 32.8148 110.478 32.8624C107.748 32.8624 105.66 33.7436 104.139 35.4281C102.618 37.1126 101.73 39.7562 101.652 43.281L101.569 46.2507L101.652 48.8943C101.974 55.8657 104.944 59.3129 110.483 59.3129C112.269 59.3827 114.033 58.9073 115.54 57.9496C116.822 57.0687 117.866 55.6274 118.671 53.5437C118.831 53.0569 119.108 52.6161 119.475 52.2584C119.839 51.9728 120.296 51.8307 120.758 51.8592H127.897C128.166 51.8465 128.435 51.8897 128.687 51.986C128.939 52.0824 129.168 52.2299 129.36 52.4191C129.553 52.5844 129.699 52.7971 129.785 53.0361C129.87 53.2752 129.892 53.5323 129.847 53.7823C129.769 55.6274 128.965 57.6286 127.599 59.7947C126.234 61.9612 124.069 63.8793 121.177 65.4033C118.286 66.9273 114.677 67.7306 110.342 67.7306C104.456 67.711 99.7211 66.119 96.2684 62.818Z" fill="white"/>
<path d="M140.805 62.5795C137.275 59.1328 135.441 54.3031 135.187 47.9741L135.104 45.9682C135.104 39.3179 136.87 34.0259 140.405 30.1798C143.857 26.3337 148.753 24.4106 154.932 24.4106C161.271 24.4106 166.255 26.3337 169.707 30.1798C173.16 34.0259 174.856 39.1767 174.856 45.5885V47.273C174.867 47.5264 174.822 47.7791 174.726 48.0136C174.629 48.2481 174.482 48.4589 174.296 48.6313C174.105 48.8228 173.877 48.9722 173.624 49.0695C173.372 49.1668 173.103 49.2099 172.833 49.1961H146.184V49.8338C146.182 52.4979 147.055 55.0889 148.671 57.2097C150.197 59.2155 152.284 60.1745 154.932 60.1745C156.382 60.2065 157.819 59.8882 159.12 59.2465C160.421 58.6049 161.547 57.6591 162.402 56.489C162.733 56.0739 163.109 55.6967 163.524 55.3644C163.969 55.2463 164.429 55.1922 164.889 55.2037H171.955C172.412 55.2139 172.857 55.3541 173.237 55.6078C173.402 55.7423 173.533 55.9141 173.617 56.1086C173.702 56.3036 173.739 56.5155 173.725 56.7274C173.725 58.013 173.004 59.532 171.477 61.2163C169.951 62.9786 167.703 64.5026 164.894 65.7878C161.78 67.1304 158.411 67.7862 155.019 67.7109C149.012 67.7109 144.257 66.0261 140.805 62.5795ZM163.763 42.2195C163.763 39.094 162.963 36.5331 161.437 34.6052C160.631 33.6829 159.628 32.9523 158.503 32.4671C157.377 31.9818 156.157 31.7543 154.932 31.801C152.206 31.801 150.055 32.7747 148.51 34.6052C146.988 36.5526 146.184 39.094 146.184 42.2195V42.3802H163.763V42.2195Z" fill="white"/>
<path d="M76.3247 17.994C77.375 19.0455 78.6229 19.8792 79.997 20.4474C81.3711 21.0155 82.8441 21.3069 84.3316 21.3046V10H73.0088C73.007 11.4848 73.2988 12.9554 73.8679 14.3272C74.4369 15.6991 75.2717 16.9452 76.3247 17.994Z" fill="white"/>
</g>
</g>
</g>
<defs>
<clipPath id="clip0_905_3133">
<rect width="193" height="80" fill="white"/>
</clipPath>
<clipPath id="clip1_905_3133">
<rect width="162.846" height="58" fill="white" transform="translate(12 10)"/>
</clipPath>
</defs>
</svg>
