<svg width="27" height="36" viewBox="0 0 27 36" fill="none" xmlns="http://www.w3.org/2000/svg">
<path d="M8.64038 4.00013L5 7.6166V17.3341L8.16455 20.612H9.61573C9.5804 20.7107 9.53407 20.8627 9.63482 21.0116C9.74438 21.1765 9.93346 21.1765 10.0059 21.1765C10.0907 21.1765 10.2091 21.1658 10.3912 21.1407H10.3933C10.3933 21.1407 10.4693 21.2092 10.2378 21.2863C10.0469 21.3544 9.88048 21.467 9.82569 21.6607C9.82207 21.675 9.82074 21.6897 9.81721 21.7023H5.00144L5.00002 26.6691L8.6404 30.2985H18.2145L21.8549 26.6743V17.3662L18.6897 14.0933H16.0058C16.004 14.0933 16.0016 14.0918 16.0016 14.0918C15.8832 14.0201 15.7616 13.9444 15.6503 13.8709L15.6093 13.8444L15.6022 13.8401C15.5421 13.8024 15.4789 13.7561 15.41 13.6952C15.3499 13.6468 15.3001 13.5984 15.2629 13.5553L15.2523 13.5445C15.1817 13.4692 15.1198 13.3972 15.0721 13.3344C15.4909 13.4563 15.9472 13.4872 16.1663 13.4943H16.1924C16.2065 13.4943 16.2211 13.4965 16.2334 13.4965L16.2525 13.4979C16.3055 13.5016 16.3462 13.5105 16.3727 13.5195C16.4009 13.5302 16.426 13.5431 16.449 13.5539L16.5621 13.5969C16.5886 13.6041 16.6169 13.6055 16.6469 13.6055C16.8113 13.6055 16.965 13.5051 17.0357 13.3473C17.0587 13.2935 17.094 13.1863 17.0675 13.0446L21.8544 13.0482V7.62224L18.2148 4H8.64062L8.64038 4.00013Z" fill="#8C1515"/>
<path d="M21.4201 7.81404L18.0387 4.44824H8.81606L5.43377 7.80859V17.1493L8.34413 20.1618L10.2208 20.1636C10.0105 20.3555 9.94512 20.5545 9.91153 20.6514C9.83909 20.8648 9.7631 20.9257 10.4222 20.8325C10.6307 20.802 11.0107 20.6657 11.1891 20.5438C11.3641 20.4219 11.7104 20.5205 11.6804 20.7841C11.5178 21.1875 11.1008 21.4404 10.7031 21.4906C9.7878 21.6072 10.1836 21.9532 10.1836 21.9532C10.2844 22.0232 10.3568 22.0913 10.4081 22.1523H9.96275V22.1504H5.4354L5.43359 26.4773L8.81409 29.8485H18.0385L21.4189 26.4827V17.5528L18.5085 14.5439H16.1566C15.9693 14.4166 15.7166 14.2749 15.4868 14.1225C15.4868 14.1207 15.4868 14.1207 15.485 14.1207C15.3967 14.0687 15.3101 14.0041 15.227 13.9306C15.1581 13.875 15.0963 13.8158 15.0433 13.7567C14.84 13.5415 14.6881 13.3173 14.6474 13.2133C14.5714 13.0233 14.5891 12.783 14.7605 12.8816C15.1952 13.1362 15.9092 13.1846 16.1742 13.1936C16.2042 13.1936 16.4181 13.2187 16.4693 13.2348C16.5223 13.2564 16.6036 13.2958 16.6036 13.2958C16.7114 13.3424 16.9058 13.1918 16.6814 12.9139C16.623 12.8188 16.5347 12.7094 16.4304 12.5983H21.4187V7.81406" fill="white"/>
<path d="M8.99344 4.89658L5.87109 8.00059V16.9619L8.52884 19.713H11.0239C11.4498 19.5232 11.5399 19.5394 11.6583 19.2974C11.676 19.2589 11.6935 19.1477 11.6953 19.0391C11.7007 19.0083 11.7537 18.6817 11.5982 18.7612C11.3314 18.8972 10.7924 18.538 10.3894 18.7518C9.98653 18.963 10.2817 18.4722 10.3382 18.3875C10.3382 18.3875 10.5538 18.0993 10.8789 17.9086C10.8913 17.9018 10.9019 17.8949 10.9107 17.8872C10.9425 17.8693 10.9744 17.8539 11.008 17.8376C11.2554 17.7205 11.9603 17.2441 12.0876 17.0953C12.1636 17.009 12.2979 16.8114 12.3032 16.702C12.3261 16.607 12.3439 16.4565 12.2538 16.3975C12.1195 16.3077 12.0116 16.483 11.8014 16.5788C11.591 16.6737 11.432 16.7131 11.2446 16.7199C11.0645 16.7259 10.8913 16.6558 10.7835 16.672C10.6756 16.69 10.612 16.607 10.81 16.4044C10.9001 16.3128 10.9391 16.2718 10.9815 16.241C11.4515 15.9349 11.8738 15.9314 12.1106 15.3876C12.1106 15.3876 12.2945 14.9001 11.9392 15.1079C11.7449 15.2225 11.6389 15.3876 11.0822 15.3876C10.5273 15.3876 10.3099 15.6552 10.2163 15.7715C10.2163 15.7715 9.8382 16.3077 9.93183 15.556C10.0273 14.8069 10.1703 14.4246 10.5185 14.1322C10.8188 13.8816 11.5645 13.5447 11.8331 13.1735C11.9709 13.035 12.3174 12.6331 12.1159 12.2928C12.031 12.1493 11.8244 12.521 11.6106 12.5689C11.3667 12.6339 11.0575 12.7143 10.8207 12.6655C10.5273 12.6065 10.34 12.7194 10.2304 12.7699C10.1209 12.8203 9.91405 12.6604 10.1667 12.3681C10.506 11.9754 11.3261 11.4627 11.8774 11.156C11.9534 11.1237 12.1388 11.0412 12.3084 10.9319C12.312 10.93 12.3155 10.9282 12.3174 10.9282C12.3598 10.9084 12.4216 10.8707 12.4569 10.8223C12.5771 10.72 12.6602 10.6054 12.6319 10.4889C12.6072 10.3831 12.5558 10.3472 12.3932 10.3292C12.2643 10.3167 12.0506 10.4691 11.8703 10.4548C11.5946 10.4315 11.1899 10.496 11.3242 10.297C11.4496 10.1123 11.6528 9.99382 11.7111 9.96158C11.8242 9.90959 11.9762 9.84152 12.2007 9.73924C12.5523 9.57787 12.5028 9.17269 12.3668 9.15841C12.1546 9.13506 11.5822 9.3214 11.985 8.85525C11.985 8.85525 12.176 8.65984 12.3685 8.53251C12.5205 8.44289 12.646 8.40877 12.7961 8.35309C12.8898 8.31906 13.1356 8.09851 12.5524 8.07516C12.5524 8.07516 12.2272 8.08414 12.2891 7.93175C12.3403 7.83136 12.6267 7.64843 12.6267 7.64843C12.6267 7.64843 12.8562 7.48877 12.9499 7.39376C13.04 7.30585 13.1036 7.23599 13.0983 7.15705C13.0948 7.06743 12.8651 6.95626 12.7678 6.83072C12.699 6.74101 12.7573 6.70886 12.7961 6.69808C12.8174 6.69458 12.8421 6.6909 12.8722 6.6909C13.109 6.6927 13.1761 6.45239 13.3143 5.82838C13.3548 5.64186 13.3582 5.60253 13.418 5.60073C13.4239 5.60073 13.4273 5.60253 13.4306 5.60253C13.4306 5.60253 13.4888 5.91808 13.5739 6.27135C13.6464 6.46676 13.7256 6.54928 13.8655 6.5474C13.8933 6.5474 13.9186 6.55091 13.9396 6.55459C13.9784 6.56536 14.0382 6.59777 13.9675 6.68739C13.9144 6.75735 13.7559 6.87032 13.7433 6.93847C13.6978 7.13208 13.8798 7.20204 14.0652 7.2164C14.3281 7.23428 14.2186 7.40103 13.9346 7.6144C13.6607 7.82058 14.3619 8.26176 14.3619 8.26176C14.7613 8.57561 14.4765 8.65617 14.3956 8.70106C14.3138 8.74408 14.0897 8.88398 14.3138 8.97361C14.5405 9.06152 14.8515 9.37887 14.8515 9.37887C15.2526 9.84503 14.6813 9.66048 14.4697 9.68203C14.3332 9.69631 14.2843 10.1033 14.6357 10.2629C15.1709 10.5086 15.2897 10.5499 15.4785 10.6934C15.8316 10.9587 15.6445 11.1846 15.2029 11.1057C15.2029 11.1057 14.9206 11.0341 14.7225 11.0735C14.5987 11.0968 14.5136 11.1255 14.4554 11.156C14.4251 11.2026 14.3551 11.3872 14.9695 11.5791C15.2627 11.6723 15.6268 11.8966 15.9504 12.153L20.9908 12.1477L20.99 8.00376L17.8677 4.89624H8.99361L8.99344 4.89658ZM16.6044 14.9919C16.7493 15.2356 16.8336 15.5546 16.896 16.0232C16.8977 16.3046 16.5319 16.1677 16.4131 16.0942C16.3305 16.0369 16.2209 15.9839 16.0794 15.9497C15.8122 15.8847 15.1768 15.6016 15.0032 15.5383C14.8262 15.4725 14.6973 15.605 14.6762 15.6555H14.6779C14.6324 15.741 14.7259 15.9137 14.7259 15.9137C14.9754 16.4876 15.4347 16.4568 15.9395 16.8245C16.6339 17.3265 16.2631 17.4325 16.1198 17.3573C15.9791 17.2803 15.7456 17.3282 15.7456 17.3282C15.1852 17.4847 15.0175 17.2478 14.6888 17.1597C14.3619 17.0699 14.6307 17.483 14.7487 17.6207C14.8742 17.7695 15.5813 18.2466 15.8265 18.3629C16.3625 18.6161 16.6415 19.0266 16.8075 19.5482C16.9651 20.0416 16.7932 19.9339 16.6659 19.8732C16.5387 19.8116 16.5016 19.6791 16.1855 19.6868C15.8678 19.6936 15.6892 19.6705 15.4625 19.4892C15.4026 19.4422 15.3546 19.3883 15.3142 19.3438C15.3108 19.3421 15.3091 19.3404 15.3074 19.3387C15.09 19.1702 15.1321 19.7295 15.1768 19.821C15.3335 20.1417 15.4397 20.0109 16.3448 20.5009C16.7738 20.7335 16.8749 21.0456 16.9204 21.1765C16.9929 21.3885 17.067 21.4493 16.4097 21.356C16.1999 21.327 15.8215 21.191 15.6411 21.067C15.4684 20.9456 15.1203 21.0439 15.1515 21.3073C15.3142 21.7109 15.7313 21.9641 16.1291 22.0137C16.4771 22.059 16.6347 22.136 16.6979 22.2146C16.8884 22.4353 16.5353 22.7585 16.5353 22.7585C16.3583 22.9663 16.5496 23.2101 16.6802 23.2819C16.8926 23.3913 17.3039 23.6419 17.4404 24.0011C18.1542 25.8654 17.4631 25.3309 17.1252 25.1179C16.7864 24.9041 16.1409 24.356 15.5526 24.4039C14.9644 24.4509 14.7681 24.4834 14.4183 24.2012C14.0703 23.9198 14.104 24.3757 14.104 24.3757V26.6239C14.125 27.1276 14.2169 27.6082 14.6113 28.0153C14.9341 28.3513 15.1802 28.2881 15.6361 28.8533C15.8459 29.1133 16.5319 29.3929 16.9895 29.3981L17.8677 29.3998L20.99 26.2921V17.737L18.3345 14.9919H16.6044ZM5.87295 22.6003L5.87118 26.2852L8.99353 29.3946H9.99723C10.9409 29.3476 11.2943 28.6053 11.5806 28.1487C11.7961 27.8023 12.1779 27.5081 12.42 27.2567C12.6762 26.9933 12.7222 26.3904 12.7292 25.7379V24.3757L12.7311 24.3893V24.0635H12.7328V23.8463H12.733V23.7958V23.2083C12.733 23.0715 12.5775 23.0613 12.2382 23.4341C11.8972 23.8053 11.3265 23.7745 10.996 23.8053C10.6656 23.8352 9.71491 24.338 9.44271 24.698C9.27483 24.9221 9.03625 24.7374 9.13342 24.2961H9.12988C9.17581 24.0977 9.26059 23.8301 9.39669 23.4769C9.58395 22.9843 10.2873 22.6952 10.2873 22.6952C10.2873 22.6952 10.3598 22.6627 10.4234 22.6003H5.87295Z" fill="#8C1515"/>
</svg>
