<svg width="32" height="32" viewBox="0 0 32 32" fill="none" xmlns="http://www.w3.org/2000/svg">
<path opacity="0.2" d="M29.3327 16C29.3327 23.3637 23.3631 29.3333 15.9993 29.3333C8.63555 29.3333 2.66602 23.3637 2.66602 16C2.66602 8.63616 8.63555 2.66663 15.9993 2.66663C23.3631 2.66663 29.3327 8.63616 29.3327 16Z" fill="#22C55E"/>
<path fill-rule="evenodd" clip-rule="evenodd" d="M22.2349 11.0171C22.7779 11.5147 22.8145 12.3581 22.3169 12.9009L14.9836 20.9009C14.7311 21.1765 14.3744 21.3333 14.0007 21.3333C13.6269 21.3333 13.2703 21.1765 13.0178 20.9009L9.68445 17.2646C9.18687 16.7217 9.22353 15.8784 9.76636 15.3808C10.3092 14.8832 11.1526 14.9198 11.6502 15.4626L14.0007 18.0268L20.3512 11.099C20.8487 10.5562 21.6921 10.5195 22.2349 11.0171Z" fill="#22C55E"/>
</svg>
