<svg width="98" height="80" viewBox="0 0 98 80" fill="none" xmlns="http://www.w3.org/2000/svg">
<g clip-path="url(#clip0_905_3225)">
<g clip-path="url(#clip1_905_3225)">
<path d="M83.2678 21.865C83.3207 22.6209 83.3207 23.3767 83.3207 24.1396C83.3207 47.3827 65.4067 74.1891 32.6502 74.1891V74.1751C22.9738 74.1891 13.4985 71.4513 5.35254 66.2893C6.75956 66.4565 8.17364 66.5401 9.59124 66.5435C17.6102 66.5505 25.4 63.8928 31.7087 58.999C24.0882 58.8562 17.4057 53.9484 15.0712 46.7836C17.7407 47.2921 20.4913 47.1876 23.1114 46.4805C14.8032 44.8226 8.82602 37.6124 8.82602 29.2389V29.016C11.3015 30.3779 14.0733 31.1337 16.9085 31.2173C9.08344 26.0518 6.6714 15.7695 11.3967 7.73039C20.4384 18.7198 33.7786 25.4005 48.0993 26.1075C46.664 19.9981 48.6247 13.596 53.2513 9.30129C60.4239 2.64149 71.7048 2.98284 78.4472 10.0641C82.4356 9.28736 86.2582 7.84185 89.7563 5.79375C88.4269 9.86557 85.6446 13.3243 81.9278 15.5222C85.4577 15.1112 88.9065 14.1777 92.1543 12.7531C89.7634 16.292 86.7518 19.3746 83.2678 21.865Z" fill="#1D9BF0"/>
</g>
</g>
<defs>
<clipPath id="clip0_905_3225">
<rect width="98" height="80" fill="white"/>
</clipPath>
<clipPath id="clip1_905_3225">
<rect width="87.4541" height="71.0565" fill="white" transform="translate(5 4)"/>
</clipPath>
</defs>
</svg>
