<svg width="88" height="36" viewBox="0 0 88 36" fill="none" xmlns="http://www.w3.org/2000/svg">
<g clip-path="url(#clip0_953_1706)">
<path d="M9 13.5281H13.1069L15.491 19.6363L17.91 13.5281H21.9125L15.8913 28.0068H11.8714L13.5246 24.1783L9 13.5281ZM26.0716 13.2844C22.9914 13.2844 21.0424 16.0514 21.0424 18.801C21.0424 21.8986 23.1829 24.3523 26.0194 24.3523C28.1425 24.3523 28.943 23.0645 28.943 23.0645V24.0738H32.5279V13.5281H28.943V14.4852C28.9256 14.4852 28.0381 13.2844 26.0716 13.2844ZM26.8373 16.6779C28.2643 16.6779 28.9952 17.809 28.9952 18.8184C28.9952 19.9147 28.2121 20.9936 26.8373 20.9936C25.7062 20.9936 24.6794 20.0713 24.6794 18.8706C24.6794 17.6524 25.4974 16.6779 26.8373 16.6779ZM33.746 24.0738V8.86426H37.4875V14.52C37.4875 14.52 38.375 13.2844 40.2371 13.2844C42.5168 13.2844 43.8567 14.9899 43.8567 17.4088V24.0738H40.1327V18.3137C40.1327 17.4958 39.7498 16.6953 38.8623 16.6953C37.9574 16.6953 37.4875 17.4958 37.4875 18.3137V24.0738H33.746ZM50.2434 13.2844C46.7107 13.2844 44.605 15.9644 44.605 18.8532C44.605 22.1248 47.1458 24.3697 50.2608 24.3697C53.2714 24.3697 55.8991 22.2292 55.8991 18.9054C55.8991 15.2683 53.1322 13.2844 50.2434 13.2844ZM50.2782 16.6953C51.5311 16.6953 52.3839 17.7394 52.3839 18.8358C52.3839 19.7755 51.5834 20.9414 50.2782 20.9414C49.0774 20.9414 48.1899 19.9843 48.1899 18.8184C48.1899 17.722 48.9208 16.6953 50.2782 16.6953ZM62.1291 13.2844C58.5965 13.2844 56.4908 15.9644 56.4908 18.8532C56.4908 22.1248 59.0315 24.3697 62.1465 24.3697C65.1571 24.3697 67.7849 22.2292 67.7849 18.9054C67.7849 15.2683 65.0353 13.2844 62.1291 13.2844ZM62.1639 16.6953C63.4169 16.6953 64.2696 17.7394 64.2696 18.8358C64.2696 19.7755 63.4691 20.9414 62.1639 20.9414C60.9632 20.9414 60.0757 19.9843 60.0757 18.8184C60.0757 17.722 60.824 16.6953 62.1639 16.6953ZM70.7433 19.323C72.118 19.323 73.2318 20.4368 73.2318 21.8115C73.2318 23.1863 72.118 24.3001 70.7433 24.3001C69.3685 24.3001 68.2547 23.1863 68.2547 21.8115C68.2547 20.4368 69.3685 19.323 70.7433 19.323ZM74.0497 18.4181H69.5773L73.545 8.86426H78L74.0497 18.4181Z" fill="white"/>
</g>
<defs>
<clipPath id="clip0_953_1706">
<rect width="87.7091" height="36" fill="white"/>
</clipPath>
</defs>
</svg>
